%
M48
M72
T01C0.02400
T02C0.02800
T03C0.03200
T04C0.03937
%
T01
X133395Y154484
X143395Y154484
X153395Y154484
X153495Y180984
X143495Y180984
X133495Y180984
X133395Y208184
X143395Y208184
X153395Y208184
X153295Y241784
X143295Y241784
X133295Y241784
T02
X111395Y164784
X104395Y164784
T03
X55195Y56384
X75195Y56384
X143395Y142084
X163395Y142084
X173495Y146084
X183495Y146084
X193495Y146084
X204795Y139684
X224795Y139684
X231495Y163584
X237695Y180484
X217695Y180484
X211495Y163584
X192595Y171084
X182595Y171084
X172595Y171084
X163395Y166284
X143395Y166284
X111269Y191501
X109121Y201268
X109895Y214884
X89895Y214884
X93995Y241984
X98995Y249484
X103995Y241984
X70795Y239984
X60795Y239984
X143395Y228884
X163395Y228884
X172895Y238084
X182895Y238084
X192895Y238084
X222495Y220984
X242495Y220984
X192895Y201984
X182895Y201984
X172895Y201984
T04
X170156Y125597
X160156Y125597
X150156Y125597
X140156Y125597
X130156Y125597
X120156Y125597
X110156Y125597
X100156Y125597
X90156Y125597
X80156Y125597
X85195Y156384
X85195Y166384
X71395Y202984
X61395Y202984
X180156Y125597
X190156Y125597
X200156Y125597
X210156Y125597
X220156Y125597
X220156Y28077
X210156Y28077
X200156Y28077
X190156Y28077
X180156Y28077
X170156Y28077
X160156Y28077
X150156Y28077
X140156Y28077
X130156Y28077
X120156Y28077
X110156Y28077
X100156Y28077
X90156Y28077
X80156Y28077
M30
