G75*
%MOIN*%
%OFA0B0*%
%FSLAX25Y25*%
%IPPOS*%
%LPD*%
%AMOC8*
5,1,8,0,0,1.08239X$1,22.5*
%
%ADD10C,0.00600*%
%ADD11C,0.01000*%
%ADD12C,0.00500*%
%ADD13C,0.00400*%
%ADD14R,0.08268X0.01575*%
%ADD15C,0.00300*%
D10*
X0059195Y0052884D02*
X0060195Y0052884D01*
X0060695Y0053384D01*
X0069695Y0053384D01*
X0070195Y0052884D01*
X0071195Y0052884D01*
X0071255Y0052886D01*
X0071316Y0052891D01*
X0071375Y0052900D01*
X0071434Y0052913D01*
X0071493Y0052929D01*
X0071550Y0052949D01*
X0071605Y0052972D01*
X0071660Y0052999D01*
X0071712Y0053028D01*
X0071763Y0053061D01*
X0071812Y0053097D01*
X0071858Y0053135D01*
X0071902Y0053177D01*
X0071944Y0053221D01*
X0071982Y0053267D01*
X0072018Y0053316D01*
X0072051Y0053367D01*
X0072080Y0053419D01*
X0072107Y0053474D01*
X0072130Y0053529D01*
X0072150Y0053586D01*
X0072166Y0053645D01*
X0072179Y0053704D01*
X0072188Y0053763D01*
X0072193Y0053824D01*
X0072195Y0053884D01*
X0072195Y0058884D02*
X0072193Y0058944D01*
X0072188Y0059005D01*
X0072179Y0059064D01*
X0072166Y0059123D01*
X0072150Y0059182D01*
X0072130Y0059239D01*
X0072107Y0059294D01*
X0072080Y0059349D01*
X0072051Y0059401D01*
X0072018Y0059452D01*
X0071982Y0059501D01*
X0071944Y0059547D01*
X0071902Y0059591D01*
X0071858Y0059633D01*
X0071812Y0059671D01*
X0071763Y0059707D01*
X0071712Y0059740D01*
X0071660Y0059769D01*
X0071605Y0059796D01*
X0071550Y0059819D01*
X0071493Y0059839D01*
X0071434Y0059855D01*
X0071375Y0059868D01*
X0071316Y0059877D01*
X0071255Y0059882D01*
X0071195Y0059884D01*
X0070195Y0059884D01*
X0069695Y0059384D01*
X0060695Y0059384D01*
X0060195Y0059884D01*
X0059195Y0059884D01*
X0059135Y0059882D01*
X0059074Y0059877D01*
X0059015Y0059868D01*
X0058956Y0059855D01*
X0058897Y0059839D01*
X0058840Y0059819D01*
X0058785Y0059796D01*
X0058730Y0059769D01*
X0058678Y0059740D01*
X0058627Y0059707D01*
X0058578Y0059671D01*
X0058532Y0059633D01*
X0058488Y0059591D01*
X0058446Y0059547D01*
X0058408Y0059501D01*
X0058372Y0059452D01*
X0058339Y0059401D01*
X0058310Y0059349D01*
X0058283Y0059294D01*
X0058260Y0059239D01*
X0058240Y0059182D01*
X0058224Y0059123D01*
X0058211Y0059064D01*
X0058202Y0059005D01*
X0058197Y0058944D01*
X0058195Y0058884D01*
X0058195Y0053884D02*
X0058197Y0053824D01*
X0058202Y0053763D01*
X0058211Y0053704D01*
X0058224Y0053645D01*
X0058240Y0053586D01*
X0058260Y0053529D01*
X0058283Y0053474D01*
X0058310Y0053419D01*
X0058339Y0053367D01*
X0058372Y0053316D01*
X0058408Y0053267D01*
X0058446Y0053221D01*
X0058488Y0053177D01*
X0058532Y0053135D01*
X0058578Y0053097D01*
X0058627Y0053061D01*
X0058678Y0053028D01*
X0058730Y0052999D01*
X0058785Y0052972D01*
X0058840Y0052949D01*
X0058897Y0052929D01*
X0058956Y0052913D01*
X0059015Y0052900D01*
X0059074Y0052891D01*
X0059135Y0052886D01*
X0059195Y0052884D01*
X0126072Y0147201D02*
X0126074Y0147332D01*
X0126080Y0147464D01*
X0126090Y0147595D01*
X0126104Y0147726D01*
X0126122Y0147856D01*
X0126144Y0147985D01*
X0126169Y0148114D01*
X0126199Y0148242D01*
X0126233Y0148369D01*
X0126270Y0148496D01*
X0126311Y0148620D01*
X0126356Y0148744D01*
X0126405Y0148866D01*
X0126457Y0148987D01*
X0126513Y0149105D01*
X0126573Y0149223D01*
X0126636Y0149338D01*
X0126703Y0149451D01*
X0126773Y0149563D01*
X0126846Y0149672D01*
X0126922Y0149778D01*
X0127002Y0149883D01*
X0127085Y0149985D01*
X0127171Y0150084D01*
X0127260Y0150181D01*
X0127352Y0150275D01*
X0127447Y0150366D01*
X0127544Y0150455D01*
X0127644Y0150540D01*
X0127747Y0150622D01*
X0127852Y0150701D01*
X0127959Y0150777D01*
X0128069Y0150849D01*
X0128181Y0150918D01*
X0128295Y0150984D01*
X0128410Y0151046D01*
X0128528Y0151105D01*
X0128647Y0151160D01*
X0128768Y0151212D01*
X0128891Y0151259D01*
X0129015Y0151303D01*
X0129140Y0151344D01*
X0129266Y0151380D01*
X0129394Y0151413D01*
X0129522Y0151441D01*
X0129651Y0151466D01*
X0129781Y0151487D01*
X0129911Y0151504D01*
X0130042Y0151517D01*
X0130173Y0151526D01*
X0130304Y0151531D01*
X0130436Y0151532D01*
X0130567Y0151529D01*
X0130699Y0151522D01*
X0130830Y0151511D01*
X0130960Y0151496D01*
X0131090Y0151477D01*
X0131220Y0151454D01*
X0131348Y0151428D01*
X0131476Y0151397D01*
X0131603Y0151362D01*
X0131729Y0151324D01*
X0131853Y0151282D01*
X0131977Y0151236D01*
X0132098Y0151186D01*
X0132218Y0151133D01*
X0132337Y0151076D01*
X0132454Y0151016D01*
X0132568Y0150952D01*
X0132681Y0150884D01*
X0132792Y0150813D01*
X0132901Y0150739D01*
X0133007Y0150662D01*
X0133111Y0150581D01*
X0133212Y0150498D01*
X0133311Y0150411D01*
X0133407Y0150321D01*
X0133500Y0150228D01*
X0133591Y0150133D01*
X0133678Y0150035D01*
X0133763Y0149934D01*
X0133844Y0149831D01*
X0133922Y0149725D01*
X0133997Y0149617D01*
X0134069Y0149507D01*
X0134137Y0149395D01*
X0134202Y0149281D01*
X0134263Y0149164D01*
X0134321Y0149046D01*
X0134375Y0148926D01*
X0134426Y0148805D01*
X0134473Y0148682D01*
X0134516Y0148558D01*
X0134555Y0148433D01*
X0134591Y0148306D01*
X0134622Y0148178D01*
X0134650Y0148050D01*
X0134674Y0147921D01*
X0134694Y0147791D01*
X0134710Y0147660D01*
X0134722Y0147529D01*
X0134730Y0147398D01*
X0134734Y0147267D01*
X0134734Y0147135D01*
X0134730Y0147004D01*
X0134722Y0146873D01*
X0134710Y0146742D01*
X0134694Y0146611D01*
X0134674Y0146481D01*
X0134650Y0146352D01*
X0134622Y0146224D01*
X0134591Y0146096D01*
X0134555Y0145969D01*
X0134516Y0145844D01*
X0134473Y0145720D01*
X0134426Y0145597D01*
X0134375Y0145476D01*
X0134321Y0145356D01*
X0134263Y0145238D01*
X0134202Y0145121D01*
X0134137Y0145007D01*
X0134069Y0144895D01*
X0133997Y0144785D01*
X0133922Y0144677D01*
X0133844Y0144571D01*
X0133763Y0144468D01*
X0133678Y0144367D01*
X0133591Y0144269D01*
X0133500Y0144174D01*
X0133407Y0144081D01*
X0133311Y0143991D01*
X0133212Y0143904D01*
X0133111Y0143821D01*
X0133007Y0143740D01*
X0132901Y0143663D01*
X0132792Y0143589D01*
X0132681Y0143518D01*
X0132569Y0143450D01*
X0132454Y0143386D01*
X0132337Y0143326D01*
X0132218Y0143269D01*
X0132098Y0143216D01*
X0131977Y0143166D01*
X0131853Y0143120D01*
X0131729Y0143078D01*
X0131603Y0143040D01*
X0131476Y0143005D01*
X0131348Y0142974D01*
X0131220Y0142948D01*
X0131090Y0142925D01*
X0130960Y0142906D01*
X0130830Y0142891D01*
X0130699Y0142880D01*
X0130567Y0142873D01*
X0130436Y0142870D01*
X0130304Y0142871D01*
X0130173Y0142876D01*
X0130042Y0142885D01*
X0129911Y0142898D01*
X0129781Y0142915D01*
X0129651Y0142936D01*
X0129522Y0142961D01*
X0129394Y0142989D01*
X0129266Y0143022D01*
X0129140Y0143058D01*
X0129015Y0143099D01*
X0128891Y0143143D01*
X0128768Y0143190D01*
X0128647Y0143242D01*
X0128528Y0143297D01*
X0128410Y0143356D01*
X0128295Y0143418D01*
X0128181Y0143484D01*
X0128069Y0143553D01*
X0127959Y0143625D01*
X0127852Y0143701D01*
X0127747Y0143780D01*
X0127644Y0143862D01*
X0127544Y0143947D01*
X0127447Y0144036D01*
X0127352Y0144127D01*
X0127260Y0144221D01*
X0127171Y0144318D01*
X0127085Y0144417D01*
X0127002Y0144519D01*
X0126922Y0144624D01*
X0126846Y0144730D01*
X0126773Y0144839D01*
X0126703Y0144951D01*
X0126636Y0145064D01*
X0126573Y0145179D01*
X0126513Y0145297D01*
X0126457Y0145415D01*
X0126405Y0145536D01*
X0126356Y0145658D01*
X0126311Y0145782D01*
X0126270Y0145906D01*
X0126233Y0146033D01*
X0126199Y0146160D01*
X0126169Y0146288D01*
X0126144Y0146417D01*
X0126122Y0146546D01*
X0126104Y0146676D01*
X0126090Y0146807D01*
X0126080Y0146938D01*
X0126074Y0147070D01*
X0126072Y0147201D01*
X0147395Y0145584D02*
X0148395Y0145584D01*
X0148895Y0145084D01*
X0157895Y0145084D01*
X0158395Y0145584D01*
X0159395Y0145584D01*
X0159455Y0145582D01*
X0159516Y0145577D01*
X0159575Y0145568D01*
X0159634Y0145555D01*
X0159693Y0145539D01*
X0159750Y0145519D01*
X0159805Y0145496D01*
X0159860Y0145469D01*
X0159912Y0145440D01*
X0159963Y0145407D01*
X0160012Y0145371D01*
X0160058Y0145333D01*
X0160102Y0145291D01*
X0160144Y0145247D01*
X0160182Y0145201D01*
X0160218Y0145152D01*
X0160251Y0145101D01*
X0160280Y0145049D01*
X0160307Y0144994D01*
X0160330Y0144939D01*
X0160350Y0144882D01*
X0160366Y0144823D01*
X0160379Y0144764D01*
X0160388Y0144705D01*
X0160393Y0144644D01*
X0160395Y0144584D01*
X0160395Y0139584D02*
X0160393Y0139524D01*
X0160388Y0139463D01*
X0160379Y0139404D01*
X0160366Y0139345D01*
X0160350Y0139286D01*
X0160330Y0139229D01*
X0160307Y0139174D01*
X0160280Y0139119D01*
X0160251Y0139067D01*
X0160218Y0139016D01*
X0160182Y0138967D01*
X0160144Y0138921D01*
X0160102Y0138877D01*
X0160058Y0138835D01*
X0160012Y0138797D01*
X0159963Y0138761D01*
X0159912Y0138728D01*
X0159860Y0138699D01*
X0159805Y0138672D01*
X0159750Y0138649D01*
X0159693Y0138629D01*
X0159634Y0138613D01*
X0159575Y0138600D01*
X0159516Y0138591D01*
X0159455Y0138586D01*
X0159395Y0138584D01*
X0158395Y0138584D01*
X0157895Y0139084D01*
X0148895Y0139084D01*
X0148395Y0138584D01*
X0147395Y0138584D01*
X0147335Y0138586D01*
X0147274Y0138591D01*
X0147215Y0138600D01*
X0147156Y0138613D01*
X0147097Y0138629D01*
X0147040Y0138649D01*
X0146985Y0138672D01*
X0146930Y0138699D01*
X0146878Y0138728D01*
X0146827Y0138761D01*
X0146778Y0138797D01*
X0146732Y0138835D01*
X0146688Y0138877D01*
X0146646Y0138921D01*
X0146608Y0138967D01*
X0146572Y0139016D01*
X0146539Y0139067D01*
X0146510Y0139119D01*
X0146483Y0139174D01*
X0146460Y0139229D01*
X0146440Y0139286D01*
X0146424Y0139345D01*
X0146411Y0139404D01*
X0146402Y0139463D01*
X0146397Y0139524D01*
X0146395Y0139584D01*
X0146395Y0144584D02*
X0146397Y0144644D01*
X0146402Y0144705D01*
X0146411Y0144764D01*
X0146424Y0144823D01*
X0146440Y0144882D01*
X0146460Y0144939D01*
X0146483Y0144994D01*
X0146510Y0145049D01*
X0146539Y0145101D01*
X0146572Y0145152D01*
X0146608Y0145201D01*
X0146646Y0145247D01*
X0146688Y0145291D01*
X0146732Y0145333D01*
X0146778Y0145371D01*
X0146827Y0145407D01*
X0146878Y0145440D01*
X0146930Y0145469D01*
X0146985Y0145496D01*
X0147040Y0145519D01*
X0147097Y0145539D01*
X0147156Y0145555D01*
X0147215Y0145568D01*
X0147274Y0145577D01*
X0147335Y0145582D01*
X0147395Y0145584D01*
X0147395Y0162784D02*
X0148395Y0162784D01*
X0148895Y0163284D01*
X0157895Y0163284D01*
X0158395Y0162784D01*
X0159395Y0162784D01*
X0159455Y0162786D01*
X0159516Y0162791D01*
X0159575Y0162800D01*
X0159634Y0162813D01*
X0159693Y0162829D01*
X0159750Y0162849D01*
X0159805Y0162872D01*
X0159860Y0162899D01*
X0159912Y0162928D01*
X0159963Y0162961D01*
X0160012Y0162997D01*
X0160058Y0163035D01*
X0160102Y0163077D01*
X0160144Y0163121D01*
X0160182Y0163167D01*
X0160218Y0163216D01*
X0160251Y0163267D01*
X0160280Y0163319D01*
X0160307Y0163374D01*
X0160330Y0163429D01*
X0160350Y0163486D01*
X0160366Y0163545D01*
X0160379Y0163604D01*
X0160388Y0163663D01*
X0160393Y0163724D01*
X0160395Y0163784D01*
X0160395Y0168784D02*
X0160393Y0168844D01*
X0160388Y0168905D01*
X0160379Y0168964D01*
X0160366Y0169023D01*
X0160350Y0169082D01*
X0160330Y0169139D01*
X0160307Y0169194D01*
X0160280Y0169249D01*
X0160251Y0169301D01*
X0160218Y0169352D01*
X0160182Y0169401D01*
X0160144Y0169447D01*
X0160102Y0169491D01*
X0160058Y0169533D01*
X0160012Y0169571D01*
X0159963Y0169607D01*
X0159912Y0169640D01*
X0159860Y0169669D01*
X0159805Y0169696D01*
X0159750Y0169719D01*
X0159693Y0169739D01*
X0159634Y0169755D01*
X0159575Y0169768D01*
X0159516Y0169777D01*
X0159455Y0169782D01*
X0159395Y0169784D01*
X0158395Y0169784D01*
X0157895Y0169284D01*
X0148895Y0169284D01*
X0148395Y0169784D01*
X0147395Y0169784D01*
X0147335Y0169782D01*
X0147274Y0169777D01*
X0147215Y0169768D01*
X0147156Y0169755D01*
X0147097Y0169739D01*
X0147040Y0169719D01*
X0146985Y0169696D01*
X0146930Y0169669D01*
X0146878Y0169640D01*
X0146827Y0169607D01*
X0146778Y0169571D01*
X0146732Y0169533D01*
X0146688Y0169491D01*
X0146646Y0169447D01*
X0146608Y0169401D01*
X0146572Y0169352D01*
X0146539Y0169301D01*
X0146510Y0169249D01*
X0146483Y0169194D01*
X0146460Y0169139D01*
X0146440Y0169082D01*
X0146424Y0169023D01*
X0146411Y0168964D01*
X0146402Y0168905D01*
X0146397Y0168844D01*
X0146395Y0168784D01*
X0146395Y0163784D02*
X0146397Y0163724D01*
X0146402Y0163663D01*
X0146411Y0163604D01*
X0146424Y0163545D01*
X0146440Y0163486D01*
X0146460Y0163429D01*
X0146483Y0163374D01*
X0146510Y0163319D01*
X0146539Y0163267D01*
X0146572Y0163216D01*
X0146608Y0163167D01*
X0146646Y0163121D01*
X0146688Y0163077D01*
X0146732Y0163035D01*
X0146778Y0162997D01*
X0146827Y0162961D01*
X0146878Y0162928D01*
X0146930Y0162899D01*
X0146985Y0162872D01*
X0147040Y0162849D01*
X0147097Y0162829D01*
X0147156Y0162813D01*
X0147215Y0162800D01*
X0147274Y0162791D01*
X0147335Y0162786D01*
X0147395Y0162784D01*
X0152156Y0188268D02*
X0152158Y0188399D01*
X0152164Y0188531D01*
X0152174Y0188662D01*
X0152188Y0188793D01*
X0152206Y0188923D01*
X0152228Y0189052D01*
X0152253Y0189181D01*
X0152283Y0189309D01*
X0152317Y0189436D01*
X0152354Y0189563D01*
X0152395Y0189687D01*
X0152440Y0189811D01*
X0152489Y0189933D01*
X0152541Y0190054D01*
X0152597Y0190172D01*
X0152657Y0190290D01*
X0152720Y0190405D01*
X0152787Y0190518D01*
X0152857Y0190630D01*
X0152930Y0190739D01*
X0153006Y0190845D01*
X0153086Y0190950D01*
X0153169Y0191052D01*
X0153255Y0191151D01*
X0153344Y0191248D01*
X0153436Y0191342D01*
X0153531Y0191433D01*
X0153628Y0191522D01*
X0153728Y0191607D01*
X0153831Y0191689D01*
X0153936Y0191768D01*
X0154043Y0191844D01*
X0154153Y0191916D01*
X0154265Y0191985D01*
X0154379Y0192051D01*
X0154494Y0192113D01*
X0154612Y0192172D01*
X0154731Y0192227D01*
X0154852Y0192279D01*
X0154975Y0192326D01*
X0155099Y0192370D01*
X0155224Y0192411D01*
X0155350Y0192447D01*
X0155478Y0192480D01*
X0155606Y0192508D01*
X0155735Y0192533D01*
X0155865Y0192554D01*
X0155995Y0192571D01*
X0156126Y0192584D01*
X0156257Y0192593D01*
X0156388Y0192598D01*
X0156520Y0192599D01*
X0156651Y0192596D01*
X0156783Y0192589D01*
X0156914Y0192578D01*
X0157044Y0192563D01*
X0157174Y0192544D01*
X0157304Y0192521D01*
X0157432Y0192495D01*
X0157560Y0192464D01*
X0157687Y0192429D01*
X0157813Y0192391D01*
X0157937Y0192349D01*
X0158061Y0192303D01*
X0158182Y0192253D01*
X0158302Y0192200D01*
X0158421Y0192143D01*
X0158538Y0192083D01*
X0158652Y0192019D01*
X0158765Y0191951D01*
X0158876Y0191880D01*
X0158985Y0191806D01*
X0159091Y0191729D01*
X0159195Y0191648D01*
X0159296Y0191565D01*
X0159395Y0191478D01*
X0159491Y0191388D01*
X0159584Y0191295D01*
X0159675Y0191200D01*
X0159762Y0191102D01*
X0159847Y0191001D01*
X0159928Y0190898D01*
X0160006Y0190792D01*
X0160081Y0190684D01*
X0160153Y0190574D01*
X0160221Y0190462D01*
X0160286Y0190348D01*
X0160347Y0190231D01*
X0160405Y0190113D01*
X0160459Y0189993D01*
X0160510Y0189872D01*
X0160557Y0189749D01*
X0160600Y0189625D01*
X0160639Y0189500D01*
X0160675Y0189373D01*
X0160706Y0189245D01*
X0160734Y0189117D01*
X0160758Y0188988D01*
X0160778Y0188858D01*
X0160794Y0188727D01*
X0160806Y0188596D01*
X0160814Y0188465D01*
X0160818Y0188334D01*
X0160818Y0188202D01*
X0160814Y0188071D01*
X0160806Y0187940D01*
X0160794Y0187809D01*
X0160778Y0187678D01*
X0160758Y0187548D01*
X0160734Y0187419D01*
X0160706Y0187291D01*
X0160675Y0187163D01*
X0160639Y0187036D01*
X0160600Y0186911D01*
X0160557Y0186787D01*
X0160510Y0186664D01*
X0160459Y0186543D01*
X0160405Y0186423D01*
X0160347Y0186305D01*
X0160286Y0186188D01*
X0160221Y0186074D01*
X0160153Y0185962D01*
X0160081Y0185852D01*
X0160006Y0185744D01*
X0159928Y0185638D01*
X0159847Y0185535D01*
X0159762Y0185434D01*
X0159675Y0185336D01*
X0159584Y0185241D01*
X0159491Y0185148D01*
X0159395Y0185058D01*
X0159296Y0184971D01*
X0159195Y0184888D01*
X0159091Y0184807D01*
X0158985Y0184730D01*
X0158876Y0184656D01*
X0158765Y0184585D01*
X0158653Y0184517D01*
X0158538Y0184453D01*
X0158421Y0184393D01*
X0158302Y0184336D01*
X0158182Y0184283D01*
X0158061Y0184233D01*
X0157937Y0184187D01*
X0157813Y0184145D01*
X0157687Y0184107D01*
X0157560Y0184072D01*
X0157432Y0184041D01*
X0157304Y0184015D01*
X0157174Y0183992D01*
X0157044Y0183973D01*
X0156914Y0183958D01*
X0156783Y0183947D01*
X0156651Y0183940D01*
X0156520Y0183937D01*
X0156388Y0183938D01*
X0156257Y0183943D01*
X0156126Y0183952D01*
X0155995Y0183965D01*
X0155865Y0183982D01*
X0155735Y0184003D01*
X0155606Y0184028D01*
X0155478Y0184056D01*
X0155350Y0184089D01*
X0155224Y0184125D01*
X0155099Y0184166D01*
X0154975Y0184210D01*
X0154852Y0184257D01*
X0154731Y0184309D01*
X0154612Y0184364D01*
X0154494Y0184423D01*
X0154379Y0184485D01*
X0154265Y0184551D01*
X0154153Y0184620D01*
X0154043Y0184692D01*
X0153936Y0184768D01*
X0153831Y0184847D01*
X0153728Y0184929D01*
X0153628Y0185014D01*
X0153531Y0185103D01*
X0153436Y0185194D01*
X0153344Y0185288D01*
X0153255Y0185385D01*
X0153169Y0185484D01*
X0153086Y0185586D01*
X0153006Y0185691D01*
X0152930Y0185797D01*
X0152857Y0185906D01*
X0152787Y0186018D01*
X0152720Y0186131D01*
X0152657Y0186246D01*
X0152597Y0186364D01*
X0152541Y0186482D01*
X0152489Y0186603D01*
X0152440Y0186725D01*
X0152395Y0186849D01*
X0152354Y0186973D01*
X0152317Y0187100D01*
X0152283Y0187227D01*
X0152253Y0187355D01*
X0152228Y0187484D01*
X0152206Y0187613D01*
X0152188Y0187743D01*
X0152174Y0187874D01*
X0152164Y0188005D01*
X0152158Y0188137D01*
X0152156Y0188268D01*
X0152056Y0215468D02*
X0152058Y0215599D01*
X0152064Y0215731D01*
X0152074Y0215862D01*
X0152088Y0215993D01*
X0152106Y0216123D01*
X0152128Y0216252D01*
X0152153Y0216381D01*
X0152183Y0216509D01*
X0152217Y0216636D01*
X0152254Y0216763D01*
X0152295Y0216887D01*
X0152340Y0217011D01*
X0152389Y0217133D01*
X0152441Y0217254D01*
X0152497Y0217372D01*
X0152557Y0217490D01*
X0152620Y0217605D01*
X0152687Y0217718D01*
X0152757Y0217830D01*
X0152830Y0217939D01*
X0152906Y0218045D01*
X0152986Y0218150D01*
X0153069Y0218252D01*
X0153155Y0218351D01*
X0153244Y0218448D01*
X0153336Y0218542D01*
X0153431Y0218633D01*
X0153528Y0218722D01*
X0153628Y0218807D01*
X0153731Y0218889D01*
X0153836Y0218968D01*
X0153943Y0219044D01*
X0154053Y0219116D01*
X0154165Y0219185D01*
X0154279Y0219251D01*
X0154394Y0219313D01*
X0154512Y0219372D01*
X0154631Y0219427D01*
X0154752Y0219479D01*
X0154875Y0219526D01*
X0154999Y0219570D01*
X0155124Y0219611D01*
X0155250Y0219647D01*
X0155378Y0219680D01*
X0155506Y0219708D01*
X0155635Y0219733D01*
X0155765Y0219754D01*
X0155895Y0219771D01*
X0156026Y0219784D01*
X0156157Y0219793D01*
X0156288Y0219798D01*
X0156420Y0219799D01*
X0156551Y0219796D01*
X0156683Y0219789D01*
X0156814Y0219778D01*
X0156944Y0219763D01*
X0157074Y0219744D01*
X0157204Y0219721D01*
X0157332Y0219695D01*
X0157460Y0219664D01*
X0157587Y0219629D01*
X0157713Y0219591D01*
X0157837Y0219549D01*
X0157961Y0219503D01*
X0158082Y0219453D01*
X0158202Y0219400D01*
X0158321Y0219343D01*
X0158438Y0219283D01*
X0158552Y0219219D01*
X0158665Y0219151D01*
X0158776Y0219080D01*
X0158885Y0219006D01*
X0158991Y0218929D01*
X0159095Y0218848D01*
X0159196Y0218765D01*
X0159295Y0218678D01*
X0159391Y0218588D01*
X0159484Y0218495D01*
X0159575Y0218400D01*
X0159662Y0218302D01*
X0159747Y0218201D01*
X0159828Y0218098D01*
X0159906Y0217992D01*
X0159981Y0217884D01*
X0160053Y0217774D01*
X0160121Y0217662D01*
X0160186Y0217548D01*
X0160247Y0217431D01*
X0160305Y0217313D01*
X0160359Y0217193D01*
X0160410Y0217072D01*
X0160457Y0216949D01*
X0160500Y0216825D01*
X0160539Y0216700D01*
X0160575Y0216573D01*
X0160606Y0216445D01*
X0160634Y0216317D01*
X0160658Y0216188D01*
X0160678Y0216058D01*
X0160694Y0215927D01*
X0160706Y0215796D01*
X0160714Y0215665D01*
X0160718Y0215534D01*
X0160718Y0215402D01*
X0160714Y0215271D01*
X0160706Y0215140D01*
X0160694Y0215009D01*
X0160678Y0214878D01*
X0160658Y0214748D01*
X0160634Y0214619D01*
X0160606Y0214491D01*
X0160575Y0214363D01*
X0160539Y0214236D01*
X0160500Y0214111D01*
X0160457Y0213987D01*
X0160410Y0213864D01*
X0160359Y0213743D01*
X0160305Y0213623D01*
X0160247Y0213505D01*
X0160186Y0213388D01*
X0160121Y0213274D01*
X0160053Y0213162D01*
X0159981Y0213052D01*
X0159906Y0212944D01*
X0159828Y0212838D01*
X0159747Y0212735D01*
X0159662Y0212634D01*
X0159575Y0212536D01*
X0159484Y0212441D01*
X0159391Y0212348D01*
X0159295Y0212258D01*
X0159196Y0212171D01*
X0159095Y0212088D01*
X0158991Y0212007D01*
X0158885Y0211930D01*
X0158776Y0211856D01*
X0158665Y0211785D01*
X0158553Y0211717D01*
X0158438Y0211653D01*
X0158321Y0211593D01*
X0158202Y0211536D01*
X0158082Y0211483D01*
X0157961Y0211433D01*
X0157837Y0211387D01*
X0157713Y0211345D01*
X0157587Y0211307D01*
X0157460Y0211272D01*
X0157332Y0211241D01*
X0157204Y0211215D01*
X0157074Y0211192D01*
X0156944Y0211173D01*
X0156814Y0211158D01*
X0156683Y0211147D01*
X0156551Y0211140D01*
X0156420Y0211137D01*
X0156288Y0211138D01*
X0156157Y0211143D01*
X0156026Y0211152D01*
X0155895Y0211165D01*
X0155765Y0211182D01*
X0155635Y0211203D01*
X0155506Y0211228D01*
X0155378Y0211256D01*
X0155250Y0211289D01*
X0155124Y0211325D01*
X0154999Y0211366D01*
X0154875Y0211410D01*
X0154752Y0211457D01*
X0154631Y0211509D01*
X0154512Y0211564D01*
X0154394Y0211623D01*
X0154279Y0211685D01*
X0154165Y0211751D01*
X0154053Y0211820D01*
X0153943Y0211892D01*
X0153836Y0211968D01*
X0153731Y0212047D01*
X0153628Y0212129D01*
X0153528Y0212214D01*
X0153431Y0212303D01*
X0153336Y0212394D01*
X0153244Y0212488D01*
X0153155Y0212585D01*
X0153069Y0212684D01*
X0152986Y0212786D01*
X0152906Y0212891D01*
X0152830Y0212997D01*
X0152757Y0213106D01*
X0152687Y0213218D01*
X0152620Y0213331D01*
X0152557Y0213446D01*
X0152497Y0213564D01*
X0152441Y0213682D01*
X0152389Y0213803D01*
X0152340Y0213925D01*
X0152295Y0214049D01*
X0152254Y0214173D01*
X0152217Y0214300D01*
X0152183Y0214427D01*
X0152153Y0214555D01*
X0152128Y0214684D01*
X0152106Y0214813D01*
X0152088Y0214943D01*
X0152074Y0215074D01*
X0152064Y0215205D01*
X0152058Y0215337D01*
X0152056Y0215468D01*
X0148395Y0225384D02*
X0148895Y0225884D01*
X0157895Y0225884D01*
X0158395Y0225384D01*
X0159395Y0225384D01*
X0159455Y0225386D01*
X0159516Y0225391D01*
X0159575Y0225400D01*
X0159634Y0225413D01*
X0159693Y0225429D01*
X0159750Y0225449D01*
X0159805Y0225472D01*
X0159860Y0225499D01*
X0159912Y0225528D01*
X0159963Y0225561D01*
X0160012Y0225597D01*
X0160058Y0225635D01*
X0160102Y0225677D01*
X0160144Y0225721D01*
X0160182Y0225767D01*
X0160218Y0225816D01*
X0160251Y0225867D01*
X0160280Y0225919D01*
X0160307Y0225974D01*
X0160330Y0226029D01*
X0160350Y0226086D01*
X0160366Y0226145D01*
X0160379Y0226204D01*
X0160388Y0226263D01*
X0160393Y0226324D01*
X0160395Y0226384D01*
X0160395Y0231384D02*
X0160393Y0231444D01*
X0160388Y0231505D01*
X0160379Y0231564D01*
X0160366Y0231623D01*
X0160350Y0231682D01*
X0160330Y0231739D01*
X0160307Y0231794D01*
X0160280Y0231849D01*
X0160251Y0231901D01*
X0160218Y0231952D01*
X0160182Y0232001D01*
X0160144Y0232047D01*
X0160102Y0232091D01*
X0160058Y0232133D01*
X0160012Y0232171D01*
X0159963Y0232207D01*
X0159912Y0232240D01*
X0159860Y0232269D01*
X0159805Y0232296D01*
X0159750Y0232319D01*
X0159693Y0232339D01*
X0159634Y0232355D01*
X0159575Y0232368D01*
X0159516Y0232377D01*
X0159455Y0232382D01*
X0159395Y0232384D01*
X0158395Y0232384D01*
X0157895Y0231884D01*
X0148895Y0231884D01*
X0148395Y0232384D01*
X0147395Y0232384D01*
X0147335Y0232382D01*
X0147274Y0232377D01*
X0147215Y0232368D01*
X0147156Y0232355D01*
X0147097Y0232339D01*
X0147040Y0232319D01*
X0146985Y0232296D01*
X0146930Y0232269D01*
X0146878Y0232240D01*
X0146827Y0232207D01*
X0146778Y0232171D01*
X0146732Y0232133D01*
X0146688Y0232091D01*
X0146646Y0232047D01*
X0146608Y0232001D01*
X0146572Y0231952D01*
X0146539Y0231901D01*
X0146510Y0231849D01*
X0146483Y0231794D01*
X0146460Y0231739D01*
X0146440Y0231682D01*
X0146424Y0231623D01*
X0146411Y0231564D01*
X0146402Y0231505D01*
X0146397Y0231444D01*
X0146395Y0231384D01*
X0146395Y0226384D02*
X0146397Y0226324D01*
X0146402Y0226263D01*
X0146411Y0226204D01*
X0146424Y0226145D01*
X0146440Y0226086D01*
X0146460Y0226029D01*
X0146483Y0225974D01*
X0146510Y0225919D01*
X0146539Y0225867D01*
X0146572Y0225816D01*
X0146608Y0225767D01*
X0146646Y0225721D01*
X0146688Y0225677D01*
X0146732Y0225635D01*
X0146778Y0225597D01*
X0146827Y0225561D01*
X0146878Y0225528D01*
X0146930Y0225499D01*
X0146985Y0225472D01*
X0147040Y0225449D01*
X0147097Y0225429D01*
X0147156Y0225413D01*
X0147215Y0225400D01*
X0147274Y0225391D01*
X0147335Y0225386D01*
X0147395Y0225384D01*
X0148395Y0225384D01*
X0151956Y0249068D02*
X0151958Y0249199D01*
X0151964Y0249331D01*
X0151974Y0249462D01*
X0151988Y0249593D01*
X0152006Y0249723D01*
X0152028Y0249852D01*
X0152053Y0249981D01*
X0152083Y0250109D01*
X0152117Y0250236D01*
X0152154Y0250363D01*
X0152195Y0250487D01*
X0152240Y0250611D01*
X0152289Y0250733D01*
X0152341Y0250854D01*
X0152397Y0250972D01*
X0152457Y0251090D01*
X0152520Y0251205D01*
X0152587Y0251318D01*
X0152657Y0251430D01*
X0152730Y0251539D01*
X0152806Y0251645D01*
X0152886Y0251750D01*
X0152969Y0251852D01*
X0153055Y0251951D01*
X0153144Y0252048D01*
X0153236Y0252142D01*
X0153331Y0252233D01*
X0153428Y0252322D01*
X0153528Y0252407D01*
X0153631Y0252489D01*
X0153736Y0252568D01*
X0153843Y0252644D01*
X0153953Y0252716D01*
X0154065Y0252785D01*
X0154179Y0252851D01*
X0154294Y0252913D01*
X0154412Y0252972D01*
X0154531Y0253027D01*
X0154652Y0253079D01*
X0154775Y0253126D01*
X0154899Y0253170D01*
X0155024Y0253211D01*
X0155150Y0253247D01*
X0155278Y0253280D01*
X0155406Y0253308D01*
X0155535Y0253333D01*
X0155665Y0253354D01*
X0155795Y0253371D01*
X0155926Y0253384D01*
X0156057Y0253393D01*
X0156188Y0253398D01*
X0156320Y0253399D01*
X0156451Y0253396D01*
X0156583Y0253389D01*
X0156714Y0253378D01*
X0156844Y0253363D01*
X0156974Y0253344D01*
X0157104Y0253321D01*
X0157232Y0253295D01*
X0157360Y0253264D01*
X0157487Y0253229D01*
X0157613Y0253191D01*
X0157737Y0253149D01*
X0157861Y0253103D01*
X0157982Y0253053D01*
X0158102Y0253000D01*
X0158221Y0252943D01*
X0158338Y0252883D01*
X0158452Y0252819D01*
X0158565Y0252751D01*
X0158676Y0252680D01*
X0158785Y0252606D01*
X0158891Y0252529D01*
X0158995Y0252448D01*
X0159096Y0252365D01*
X0159195Y0252278D01*
X0159291Y0252188D01*
X0159384Y0252095D01*
X0159475Y0252000D01*
X0159562Y0251902D01*
X0159647Y0251801D01*
X0159728Y0251698D01*
X0159806Y0251592D01*
X0159881Y0251484D01*
X0159953Y0251374D01*
X0160021Y0251262D01*
X0160086Y0251148D01*
X0160147Y0251031D01*
X0160205Y0250913D01*
X0160259Y0250793D01*
X0160310Y0250672D01*
X0160357Y0250549D01*
X0160400Y0250425D01*
X0160439Y0250300D01*
X0160475Y0250173D01*
X0160506Y0250045D01*
X0160534Y0249917D01*
X0160558Y0249788D01*
X0160578Y0249658D01*
X0160594Y0249527D01*
X0160606Y0249396D01*
X0160614Y0249265D01*
X0160618Y0249134D01*
X0160618Y0249002D01*
X0160614Y0248871D01*
X0160606Y0248740D01*
X0160594Y0248609D01*
X0160578Y0248478D01*
X0160558Y0248348D01*
X0160534Y0248219D01*
X0160506Y0248091D01*
X0160475Y0247963D01*
X0160439Y0247836D01*
X0160400Y0247711D01*
X0160357Y0247587D01*
X0160310Y0247464D01*
X0160259Y0247343D01*
X0160205Y0247223D01*
X0160147Y0247105D01*
X0160086Y0246988D01*
X0160021Y0246874D01*
X0159953Y0246762D01*
X0159881Y0246652D01*
X0159806Y0246544D01*
X0159728Y0246438D01*
X0159647Y0246335D01*
X0159562Y0246234D01*
X0159475Y0246136D01*
X0159384Y0246041D01*
X0159291Y0245948D01*
X0159195Y0245858D01*
X0159096Y0245771D01*
X0158995Y0245688D01*
X0158891Y0245607D01*
X0158785Y0245530D01*
X0158676Y0245456D01*
X0158565Y0245385D01*
X0158453Y0245317D01*
X0158338Y0245253D01*
X0158221Y0245193D01*
X0158102Y0245136D01*
X0157982Y0245083D01*
X0157861Y0245033D01*
X0157737Y0244987D01*
X0157613Y0244945D01*
X0157487Y0244907D01*
X0157360Y0244872D01*
X0157232Y0244841D01*
X0157104Y0244815D01*
X0156974Y0244792D01*
X0156844Y0244773D01*
X0156714Y0244758D01*
X0156583Y0244747D01*
X0156451Y0244740D01*
X0156320Y0244737D01*
X0156188Y0244738D01*
X0156057Y0244743D01*
X0155926Y0244752D01*
X0155795Y0244765D01*
X0155665Y0244782D01*
X0155535Y0244803D01*
X0155406Y0244828D01*
X0155278Y0244856D01*
X0155150Y0244889D01*
X0155024Y0244925D01*
X0154899Y0244966D01*
X0154775Y0245010D01*
X0154652Y0245057D01*
X0154531Y0245109D01*
X0154412Y0245164D01*
X0154294Y0245223D01*
X0154179Y0245285D01*
X0154065Y0245351D01*
X0153953Y0245420D01*
X0153843Y0245492D01*
X0153736Y0245568D01*
X0153631Y0245647D01*
X0153528Y0245729D01*
X0153428Y0245814D01*
X0153331Y0245903D01*
X0153236Y0245994D01*
X0153144Y0246088D01*
X0153055Y0246185D01*
X0152969Y0246284D01*
X0152886Y0246386D01*
X0152806Y0246491D01*
X0152730Y0246597D01*
X0152657Y0246706D01*
X0152587Y0246818D01*
X0152520Y0246931D01*
X0152457Y0247046D01*
X0152397Y0247164D01*
X0152341Y0247282D01*
X0152289Y0247403D01*
X0152240Y0247525D01*
X0152195Y0247649D01*
X0152154Y0247773D01*
X0152117Y0247900D01*
X0152083Y0248027D01*
X0152053Y0248155D01*
X0152028Y0248284D01*
X0152006Y0248413D01*
X0151988Y0248543D01*
X0151974Y0248674D01*
X0151964Y0248805D01*
X0151958Y0248937D01*
X0151956Y0249068D01*
X0109448Y0240984D02*
X0107869Y0240984D01*
X0107243Y0235484D02*
X0090747Y0235484D01*
X0090121Y0240984D02*
X0088542Y0240984D01*
X0097869Y0240984D02*
X0100121Y0240984D01*
X0107243Y0235484D02*
X0107398Y0235686D01*
X0107548Y0235891D01*
X0107694Y0236100D01*
X0107834Y0236313D01*
X0107968Y0236528D01*
X0108098Y0236748D01*
X0108222Y0236970D01*
X0108341Y0237195D01*
X0108454Y0237423D01*
X0108562Y0237653D01*
X0108664Y0237886D01*
X0108761Y0238122D01*
X0108852Y0238359D01*
X0108937Y0238599D01*
X0109016Y0238841D01*
X0109089Y0239085D01*
X0109156Y0239330D01*
X0109217Y0239577D01*
X0109273Y0239826D01*
X0109322Y0240075D01*
X0109365Y0240326D01*
X0109402Y0240578D01*
X0109433Y0240831D01*
X0109458Y0241084D01*
X0109477Y0241338D01*
X0109490Y0241592D01*
X0109496Y0241846D01*
X0109496Y0242101D01*
X0109490Y0242355D01*
X0109478Y0242609D01*
X0109460Y0242863D01*
X0109436Y0243117D01*
X0109405Y0243369D01*
X0109369Y0243621D01*
X0109326Y0243872D01*
X0109277Y0244122D01*
X0109222Y0244370D01*
X0109161Y0244617D01*
X0109095Y0244863D01*
X0109022Y0245107D01*
X0108943Y0245349D01*
X0108859Y0245589D01*
X0108769Y0245827D01*
X0108673Y0246062D01*
X0108571Y0246296D01*
X0108464Y0246527D01*
X0108351Y0246755D01*
X0108232Y0246980D01*
X0108109Y0247202D01*
X0107979Y0247422D01*
X0107845Y0247638D01*
X0107705Y0247850D01*
X0107561Y0248060D01*
X0107411Y0248265D01*
X0107256Y0248468D01*
X0107097Y0248666D01*
X0106932Y0248860D01*
X0106763Y0249050D01*
X0106590Y0249237D01*
X0106412Y0249418D01*
X0106229Y0249596D01*
X0106043Y0249769D01*
X0105852Y0249938D01*
X0105657Y0250101D01*
X0105459Y0250260D01*
X0105256Y0250415D01*
X0105050Y0250564D01*
X0104840Y0250708D01*
X0104627Y0250847D01*
X0104411Y0250981D01*
X0104191Y0251109D01*
X0103968Y0251233D01*
X0103743Y0251350D01*
X0103514Y0251463D01*
X0103283Y0251569D01*
X0103050Y0251670D01*
X0102814Y0251766D01*
X0102576Y0251855D01*
X0102335Y0251939D01*
X0102093Y0252017D01*
X0095897Y0252017D02*
X0095655Y0251939D01*
X0095414Y0251855D01*
X0095176Y0251766D01*
X0094940Y0251670D01*
X0094707Y0251569D01*
X0094476Y0251463D01*
X0094247Y0251350D01*
X0094022Y0251233D01*
X0093799Y0251109D01*
X0093579Y0250981D01*
X0093363Y0250847D01*
X0093150Y0250708D01*
X0092940Y0250564D01*
X0092734Y0250415D01*
X0092531Y0250260D01*
X0092333Y0250101D01*
X0092138Y0249938D01*
X0091947Y0249769D01*
X0091761Y0249596D01*
X0091578Y0249418D01*
X0091400Y0249237D01*
X0091227Y0249050D01*
X0091058Y0248860D01*
X0090893Y0248666D01*
X0090734Y0248468D01*
X0090579Y0248265D01*
X0090429Y0248060D01*
X0090285Y0247850D01*
X0090145Y0247638D01*
X0090011Y0247422D01*
X0089881Y0247202D01*
X0089758Y0246980D01*
X0089639Y0246755D01*
X0089526Y0246527D01*
X0089419Y0246296D01*
X0089317Y0246062D01*
X0089221Y0245827D01*
X0089131Y0245589D01*
X0089047Y0245349D01*
X0088968Y0245107D01*
X0088895Y0244863D01*
X0088829Y0244617D01*
X0088768Y0244370D01*
X0088713Y0244122D01*
X0088664Y0243872D01*
X0088621Y0243621D01*
X0088585Y0243369D01*
X0088554Y0243117D01*
X0088530Y0242863D01*
X0088512Y0242609D01*
X0088500Y0242355D01*
X0088494Y0242101D01*
X0088494Y0241846D01*
X0088500Y0241592D01*
X0088513Y0241338D01*
X0088532Y0241084D01*
X0088557Y0240831D01*
X0088588Y0240578D01*
X0088625Y0240326D01*
X0088668Y0240075D01*
X0088717Y0239826D01*
X0088773Y0239577D01*
X0088834Y0239330D01*
X0088901Y0239085D01*
X0088974Y0238841D01*
X0089053Y0238599D01*
X0089138Y0238359D01*
X0089229Y0238122D01*
X0089326Y0237886D01*
X0089428Y0237653D01*
X0089536Y0237423D01*
X0089649Y0237195D01*
X0089768Y0236970D01*
X0089892Y0236748D01*
X0090022Y0236528D01*
X0090156Y0236313D01*
X0090296Y0236100D01*
X0090442Y0235891D01*
X0090592Y0235686D01*
X0090747Y0235484D01*
X0093895Y0218384D02*
X0094895Y0218384D01*
X0095395Y0217884D01*
X0104395Y0217884D01*
X0104895Y0218384D01*
X0105895Y0218384D01*
X0105955Y0218382D01*
X0106016Y0218377D01*
X0106075Y0218368D01*
X0106134Y0218355D01*
X0106193Y0218339D01*
X0106250Y0218319D01*
X0106305Y0218296D01*
X0106360Y0218269D01*
X0106412Y0218240D01*
X0106463Y0218207D01*
X0106512Y0218171D01*
X0106558Y0218133D01*
X0106602Y0218091D01*
X0106644Y0218047D01*
X0106682Y0218001D01*
X0106718Y0217952D01*
X0106751Y0217901D01*
X0106780Y0217849D01*
X0106807Y0217794D01*
X0106830Y0217739D01*
X0106850Y0217682D01*
X0106866Y0217623D01*
X0106879Y0217564D01*
X0106888Y0217505D01*
X0106893Y0217444D01*
X0106895Y0217384D01*
X0106895Y0212384D02*
X0106893Y0212324D01*
X0106888Y0212263D01*
X0106879Y0212204D01*
X0106866Y0212145D01*
X0106850Y0212086D01*
X0106830Y0212029D01*
X0106807Y0211974D01*
X0106780Y0211919D01*
X0106751Y0211867D01*
X0106718Y0211816D01*
X0106682Y0211767D01*
X0106644Y0211721D01*
X0106602Y0211677D01*
X0106558Y0211635D01*
X0106512Y0211597D01*
X0106463Y0211561D01*
X0106412Y0211528D01*
X0106360Y0211499D01*
X0106305Y0211472D01*
X0106250Y0211449D01*
X0106193Y0211429D01*
X0106134Y0211413D01*
X0106075Y0211400D01*
X0106016Y0211391D01*
X0105955Y0211386D01*
X0105895Y0211384D01*
X0104895Y0211384D01*
X0104395Y0211884D01*
X0095395Y0211884D01*
X0094895Y0211384D01*
X0093895Y0211384D01*
X0093835Y0211386D01*
X0093774Y0211391D01*
X0093715Y0211400D01*
X0093656Y0211413D01*
X0093597Y0211429D01*
X0093540Y0211449D01*
X0093485Y0211472D01*
X0093430Y0211499D01*
X0093378Y0211528D01*
X0093327Y0211561D01*
X0093278Y0211597D01*
X0093232Y0211635D01*
X0093188Y0211677D01*
X0093146Y0211721D01*
X0093108Y0211767D01*
X0093072Y0211816D01*
X0093039Y0211867D01*
X0093010Y0211919D01*
X0092983Y0211974D01*
X0092960Y0212029D01*
X0092940Y0212086D01*
X0092924Y0212145D01*
X0092911Y0212204D01*
X0092902Y0212263D01*
X0092897Y0212324D01*
X0092895Y0212384D01*
X0092895Y0217384D02*
X0092897Y0217444D01*
X0092902Y0217505D01*
X0092911Y0217564D01*
X0092924Y0217623D01*
X0092940Y0217682D01*
X0092960Y0217739D01*
X0092983Y0217794D01*
X0093010Y0217849D01*
X0093039Y0217901D01*
X0093072Y0217952D01*
X0093108Y0218001D01*
X0093146Y0218047D01*
X0093188Y0218091D01*
X0093232Y0218133D01*
X0093278Y0218171D01*
X0093327Y0218207D01*
X0093378Y0218240D01*
X0093430Y0218269D01*
X0093485Y0218296D01*
X0093540Y0218319D01*
X0093597Y0218339D01*
X0093656Y0218355D01*
X0093715Y0218368D01*
X0093774Y0218377D01*
X0093835Y0218382D01*
X0093895Y0218384D01*
X0065795Y0233984D02*
X0065643Y0233986D01*
X0065492Y0233992D01*
X0065341Y0234001D01*
X0065189Y0234015D01*
X0065039Y0234032D01*
X0064889Y0234053D01*
X0064739Y0234078D01*
X0064590Y0234106D01*
X0064442Y0234139D01*
X0064295Y0234175D01*
X0064148Y0234214D01*
X0064003Y0234258D01*
X0063859Y0234305D01*
X0063716Y0234356D01*
X0063575Y0234410D01*
X0063434Y0234468D01*
X0063296Y0234529D01*
X0063159Y0234594D01*
X0063023Y0234663D01*
X0062890Y0234734D01*
X0062758Y0234809D01*
X0062628Y0234888D01*
X0062501Y0234969D01*
X0062375Y0235054D01*
X0062251Y0235142D01*
X0062130Y0235233D01*
X0062011Y0235327D01*
X0061895Y0235425D01*
X0061781Y0235525D01*
X0061669Y0235627D01*
X0061561Y0235733D01*
X0061455Y0235841D01*
X0061351Y0235952D01*
X0061251Y0236066D01*
X0061153Y0236182D01*
X0061059Y0236301D01*
X0065795Y0245984D02*
X0065949Y0245982D01*
X0066103Y0245976D01*
X0066257Y0245966D01*
X0066411Y0245952D01*
X0066564Y0245935D01*
X0066716Y0245913D01*
X0066868Y0245887D01*
X0067020Y0245858D01*
X0067170Y0245824D01*
X0067320Y0245787D01*
X0067468Y0245746D01*
X0067616Y0245701D01*
X0067762Y0245652D01*
X0067907Y0245600D01*
X0068050Y0245544D01*
X0068193Y0245484D01*
X0068333Y0245421D01*
X0068472Y0245354D01*
X0068609Y0245283D01*
X0068744Y0245209D01*
X0068877Y0245132D01*
X0069009Y0245051D01*
X0069138Y0244967D01*
X0069265Y0244879D01*
X0069389Y0244788D01*
X0069511Y0244695D01*
X0069631Y0244597D01*
X0069748Y0244497D01*
X0069863Y0244394D01*
X0069975Y0244288D01*
X0070084Y0244180D01*
X0070190Y0244068D01*
X0070294Y0243954D01*
X0070394Y0243837D01*
X0070492Y0243718D01*
X0070586Y0243596D01*
X0070677Y0243471D01*
X0065795Y0245984D02*
X0065645Y0245982D01*
X0065494Y0245976D01*
X0065344Y0245967D01*
X0065195Y0245954D01*
X0065045Y0245937D01*
X0064896Y0245916D01*
X0064748Y0245892D01*
X0064600Y0245864D01*
X0064453Y0245832D01*
X0064307Y0245797D01*
X0064162Y0245757D01*
X0064018Y0245715D01*
X0063875Y0245668D01*
X0063733Y0245618D01*
X0063592Y0245565D01*
X0063453Y0245508D01*
X0063315Y0245448D01*
X0063179Y0245384D01*
X0063045Y0245317D01*
X0062912Y0245246D01*
X0062781Y0245172D01*
X0062652Y0245095D01*
X0062525Y0245014D01*
X0062400Y0244931D01*
X0062277Y0244844D01*
X0062156Y0244755D01*
X0062038Y0244662D01*
X0061922Y0244566D01*
X0061808Y0244468D01*
X0061697Y0244367D01*
X0061588Y0244262D01*
X0061483Y0244156D01*
X0061379Y0244046D01*
X0061279Y0243934D01*
X0061181Y0243820D01*
X0061087Y0243703D01*
X0060995Y0243584D01*
X0065795Y0233984D02*
X0065947Y0233986D01*
X0066098Y0233992D01*
X0066249Y0234001D01*
X0066401Y0234015D01*
X0066551Y0234032D01*
X0066701Y0234053D01*
X0066851Y0234078D01*
X0067000Y0234106D01*
X0067148Y0234139D01*
X0067295Y0234175D01*
X0067442Y0234214D01*
X0067587Y0234258D01*
X0067731Y0234305D01*
X0067874Y0234356D01*
X0068015Y0234410D01*
X0068156Y0234468D01*
X0068294Y0234529D01*
X0068431Y0234594D01*
X0068567Y0234663D01*
X0068700Y0234734D01*
X0068832Y0234809D01*
X0068962Y0234888D01*
X0069089Y0234969D01*
X0069215Y0235054D01*
X0069339Y0235142D01*
X0069460Y0235233D01*
X0069579Y0235327D01*
X0069695Y0235425D01*
X0069809Y0235525D01*
X0069921Y0235627D01*
X0070029Y0235733D01*
X0070135Y0235841D01*
X0070239Y0235952D01*
X0070339Y0236066D01*
X0070437Y0236182D01*
X0070531Y0236301D01*
X0208795Y0143184D02*
X0209795Y0143184D01*
X0210295Y0142684D01*
X0219295Y0142684D01*
X0219795Y0143184D01*
X0220795Y0143184D01*
X0220855Y0143182D01*
X0220916Y0143177D01*
X0220975Y0143168D01*
X0221034Y0143155D01*
X0221093Y0143139D01*
X0221150Y0143119D01*
X0221205Y0143096D01*
X0221260Y0143069D01*
X0221312Y0143040D01*
X0221363Y0143007D01*
X0221412Y0142971D01*
X0221458Y0142933D01*
X0221502Y0142891D01*
X0221544Y0142847D01*
X0221582Y0142801D01*
X0221618Y0142752D01*
X0221651Y0142701D01*
X0221680Y0142649D01*
X0221707Y0142594D01*
X0221730Y0142539D01*
X0221750Y0142482D01*
X0221766Y0142423D01*
X0221779Y0142364D01*
X0221788Y0142305D01*
X0221793Y0142244D01*
X0221795Y0142184D01*
X0221795Y0137184D02*
X0221793Y0137124D01*
X0221788Y0137063D01*
X0221779Y0137004D01*
X0221766Y0136945D01*
X0221750Y0136886D01*
X0221730Y0136829D01*
X0221707Y0136774D01*
X0221680Y0136719D01*
X0221651Y0136667D01*
X0221618Y0136616D01*
X0221582Y0136567D01*
X0221544Y0136521D01*
X0221502Y0136477D01*
X0221458Y0136435D01*
X0221412Y0136397D01*
X0221363Y0136361D01*
X0221312Y0136328D01*
X0221260Y0136299D01*
X0221205Y0136272D01*
X0221150Y0136249D01*
X0221093Y0136229D01*
X0221034Y0136213D01*
X0220975Y0136200D01*
X0220916Y0136191D01*
X0220855Y0136186D01*
X0220795Y0136184D01*
X0219795Y0136184D01*
X0219295Y0136684D01*
X0210295Y0136684D01*
X0209795Y0136184D01*
X0208795Y0136184D01*
X0208735Y0136186D01*
X0208674Y0136191D01*
X0208615Y0136200D01*
X0208556Y0136213D01*
X0208497Y0136229D01*
X0208440Y0136249D01*
X0208385Y0136272D01*
X0208330Y0136299D01*
X0208278Y0136328D01*
X0208227Y0136361D01*
X0208178Y0136397D01*
X0208132Y0136435D01*
X0208088Y0136477D01*
X0208046Y0136521D01*
X0208008Y0136567D01*
X0207972Y0136616D01*
X0207939Y0136667D01*
X0207910Y0136719D01*
X0207883Y0136774D01*
X0207860Y0136829D01*
X0207840Y0136886D01*
X0207824Y0136945D01*
X0207811Y0137004D01*
X0207802Y0137063D01*
X0207797Y0137124D01*
X0207795Y0137184D01*
X0207795Y0142184D02*
X0207797Y0142244D01*
X0207802Y0142305D01*
X0207811Y0142364D01*
X0207824Y0142423D01*
X0207840Y0142482D01*
X0207860Y0142539D01*
X0207883Y0142594D01*
X0207910Y0142649D01*
X0207939Y0142701D01*
X0207972Y0142752D01*
X0208008Y0142801D01*
X0208046Y0142847D01*
X0208088Y0142891D01*
X0208132Y0142933D01*
X0208178Y0142971D01*
X0208227Y0143007D01*
X0208278Y0143040D01*
X0208330Y0143069D01*
X0208385Y0143096D01*
X0208440Y0143119D01*
X0208497Y0143139D01*
X0208556Y0143155D01*
X0208615Y0143168D01*
X0208674Y0143177D01*
X0208735Y0143182D01*
X0208795Y0143184D01*
X0215495Y0160084D02*
X0216495Y0160084D01*
X0216995Y0160584D01*
X0225995Y0160584D01*
X0226495Y0160084D01*
X0227495Y0160084D01*
X0227555Y0160086D01*
X0227616Y0160091D01*
X0227675Y0160100D01*
X0227734Y0160113D01*
X0227793Y0160129D01*
X0227850Y0160149D01*
X0227905Y0160172D01*
X0227960Y0160199D01*
X0228012Y0160228D01*
X0228063Y0160261D01*
X0228112Y0160297D01*
X0228158Y0160335D01*
X0228202Y0160377D01*
X0228244Y0160421D01*
X0228282Y0160467D01*
X0228318Y0160516D01*
X0228351Y0160567D01*
X0228380Y0160619D01*
X0228407Y0160674D01*
X0228430Y0160729D01*
X0228450Y0160786D01*
X0228466Y0160845D01*
X0228479Y0160904D01*
X0228488Y0160963D01*
X0228493Y0161024D01*
X0228495Y0161084D01*
X0228495Y0166084D02*
X0228493Y0166144D01*
X0228488Y0166205D01*
X0228479Y0166264D01*
X0228466Y0166323D01*
X0228450Y0166382D01*
X0228430Y0166439D01*
X0228407Y0166494D01*
X0228380Y0166549D01*
X0228351Y0166601D01*
X0228318Y0166652D01*
X0228282Y0166701D01*
X0228244Y0166747D01*
X0228202Y0166791D01*
X0228158Y0166833D01*
X0228112Y0166871D01*
X0228063Y0166907D01*
X0228012Y0166940D01*
X0227960Y0166969D01*
X0227905Y0166996D01*
X0227850Y0167019D01*
X0227793Y0167039D01*
X0227734Y0167055D01*
X0227675Y0167068D01*
X0227616Y0167077D01*
X0227555Y0167082D01*
X0227495Y0167084D01*
X0226495Y0167084D01*
X0225995Y0166584D01*
X0216995Y0166584D01*
X0216495Y0167084D01*
X0215495Y0167084D01*
X0215435Y0167082D01*
X0215374Y0167077D01*
X0215315Y0167068D01*
X0215256Y0167055D01*
X0215197Y0167039D01*
X0215140Y0167019D01*
X0215085Y0166996D01*
X0215030Y0166969D01*
X0214978Y0166940D01*
X0214927Y0166907D01*
X0214878Y0166871D01*
X0214832Y0166833D01*
X0214788Y0166791D01*
X0214746Y0166747D01*
X0214708Y0166701D01*
X0214672Y0166652D01*
X0214639Y0166601D01*
X0214610Y0166549D01*
X0214583Y0166494D01*
X0214560Y0166439D01*
X0214540Y0166382D01*
X0214524Y0166323D01*
X0214511Y0166264D01*
X0214502Y0166205D01*
X0214497Y0166144D01*
X0214495Y0166084D01*
X0214495Y0161084D02*
X0214497Y0161024D01*
X0214502Y0160963D01*
X0214511Y0160904D01*
X0214524Y0160845D01*
X0214540Y0160786D01*
X0214560Y0160729D01*
X0214583Y0160674D01*
X0214610Y0160619D01*
X0214639Y0160567D01*
X0214672Y0160516D01*
X0214708Y0160467D01*
X0214746Y0160421D01*
X0214788Y0160377D01*
X0214832Y0160335D01*
X0214878Y0160297D01*
X0214927Y0160261D01*
X0214978Y0160228D01*
X0215030Y0160199D01*
X0215085Y0160172D01*
X0215140Y0160149D01*
X0215197Y0160129D01*
X0215256Y0160113D01*
X0215315Y0160100D01*
X0215374Y0160091D01*
X0215435Y0160086D01*
X0215495Y0160084D01*
X0221695Y0176984D02*
X0222695Y0176984D01*
X0223195Y0177484D01*
X0232195Y0177484D01*
X0232695Y0176984D01*
X0233695Y0176984D01*
X0233755Y0176986D01*
X0233816Y0176991D01*
X0233875Y0177000D01*
X0233934Y0177013D01*
X0233993Y0177029D01*
X0234050Y0177049D01*
X0234105Y0177072D01*
X0234160Y0177099D01*
X0234212Y0177128D01*
X0234263Y0177161D01*
X0234312Y0177197D01*
X0234358Y0177235D01*
X0234402Y0177277D01*
X0234444Y0177321D01*
X0234482Y0177367D01*
X0234518Y0177416D01*
X0234551Y0177467D01*
X0234580Y0177519D01*
X0234607Y0177574D01*
X0234630Y0177629D01*
X0234650Y0177686D01*
X0234666Y0177745D01*
X0234679Y0177804D01*
X0234688Y0177863D01*
X0234693Y0177924D01*
X0234695Y0177984D01*
X0234695Y0182984D02*
X0234693Y0183044D01*
X0234688Y0183105D01*
X0234679Y0183164D01*
X0234666Y0183223D01*
X0234650Y0183282D01*
X0234630Y0183339D01*
X0234607Y0183394D01*
X0234580Y0183449D01*
X0234551Y0183501D01*
X0234518Y0183552D01*
X0234482Y0183601D01*
X0234444Y0183647D01*
X0234402Y0183691D01*
X0234358Y0183733D01*
X0234312Y0183771D01*
X0234263Y0183807D01*
X0234212Y0183840D01*
X0234160Y0183869D01*
X0234105Y0183896D01*
X0234050Y0183919D01*
X0233993Y0183939D01*
X0233934Y0183955D01*
X0233875Y0183968D01*
X0233816Y0183977D01*
X0233755Y0183982D01*
X0233695Y0183984D01*
X0232695Y0183984D01*
X0232195Y0183484D01*
X0223195Y0183484D01*
X0222695Y0183984D01*
X0221695Y0183984D01*
X0221635Y0183982D01*
X0221574Y0183977D01*
X0221515Y0183968D01*
X0221456Y0183955D01*
X0221397Y0183939D01*
X0221340Y0183919D01*
X0221285Y0183896D01*
X0221230Y0183869D01*
X0221178Y0183840D01*
X0221127Y0183807D01*
X0221078Y0183771D01*
X0221032Y0183733D01*
X0220988Y0183691D01*
X0220946Y0183647D01*
X0220908Y0183601D01*
X0220872Y0183552D01*
X0220839Y0183501D01*
X0220810Y0183449D01*
X0220783Y0183394D01*
X0220760Y0183339D01*
X0220740Y0183282D01*
X0220724Y0183223D01*
X0220711Y0183164D01*
X0220702Y0183105D01*
X0220697Y0183044D01*
X0220695Y0182984D01*
X0220695Y0177984D02*
X0220697Y0177924D01*
X0220702Y0177863D01*
X0220711Y0177804D01*
X0220724Y0177745D01*
X0220740Y0177686D01*
X0220760Y0177629D01*
X0220783Y0177574D01*
X0220810Y0177519D01*
X0220839Y0177467D01*
X0220872Y0177416D01*
X0220908Y0177367D01*
X0220946Y0177321D01*
X0220988Y0177277D01*
X0221032Y0177235D01*
X0221078Y0177197D01*
X0221127Y0177161D01*
X0221178Y0177128D01*
X0221230Y0177099D01*
X0221285Y0177072D01*
X0221340Y0177049D01*
X0221397Y0177029D01*
X0221456Y0177013D01*
X0221515Y0177000D01*
X0221574Y0176991D01*
X0221635Y0176986D01*
X0221695Y0176984D01*
X0226495Y0217484D02*
X0227495Y0217484D01*
X0227995Y0217984D01*
X0236995Y0217984D01*
X0237495Y0217484D01*
X0238495Y0217484D01*
X0238555Y0217486D01*
X0238616Y0217491D01*
X0238675Y0217500D01*
X0238734Y0217513D01*
X0238793Y0217529D01*
X0238850Y0217549D01*
X0238905Y0217572D01*
X0238960Y0217599D01*
X0239012Y0217628D01*
X0239063Y0217661D01*
X0239112Y0217697D01*
X0239158Y0217735D01*
X0239202Y0217777D01*
X0239244Y0217821D01*
X0239282Y0217867D01*
X0239318Y0217916D01*
X0239351Y0217967D01*
X0239380Y0218019D01*
X0239407Y0218074D01*
X0239430Y0218129D01*
X0239450Y0218186D01*
X0239466Y0218245D01*
X0239479Y0218304D01*
X0239488Y0218363D01*
X0239493Y0218424D01*
X0239495Y0218484D01*
X0239495Y0223484D02*
X0239493Y0223544D01*
X0239488Y0223605D01*
X0239479Y0223664D01*
X0239466Y0223723D01*
X0239450Y0223782D01*
X0239430Y0223839D01*
X0239407Y0223894D01*
X0239380Y0223949D01*
X0239351Y0224001D01*
X0239318Y0224052D01*
X0239282Y0224101D01*
X0239244Y0224147D01*
X0239202Y0224191D01*
X0239158Y0224233D01*
X0239112Y0224271D01*
X0239063Y0224307D01*
X0239012Y0224340D01*
X0238960Y0224369D01*
X0238905Y0224396D01*
X0238850Y0224419D01*
X0238793Y0224439D01*
X0238734Y0224455D01*
X0238675Y0224468D01*
X0238616Y0224477D01*
X0238555Y0224482D01*
X0238495Y0224484D01*
X0237495Y0224484D01*
X0236995Y0223984D01*
X0227995Y0223984D01*
X0227495Y0224484D01*
X0226495Y0224484D01*
X0226435Y0224482D01*
X0226374Y0224477D01*
X0226315Y0224468D01*
X0226256Y0224455D01*
X0226197Y0224439D01*
X0226140Y0224419D01*
X0226085Y0224396D01*
X0226030Y0224369D01*
X0225978Y0224340D01*
X0225927Y0224307D01*
X0225878Y0224271D01*
X0225832Y0224233D01*
X0225788Y0224191D01*
X0225746Y0224147D01*
X0225708Y0224101D01*
X0225672Y0224052D01*
X0225639Y0224001D01*
X0225610Y0223949D01*
X0225583Y0223894D01*
X0225560Y0223839D01*
X0225540Y0223782D01*
X0225524Y0223723D01*
X0225511Y0223664D01*
X0225502Y0223605D01*
X0225497Y0223544D01*
X0225495Y0223484D01*
X0225495Y0218484D02*
X0225497Y0218424D01*
X0225502Y0218363D01*
X0225511Y0218304D01*
X0225524Y0218245D01*
X0225540Y0218186D01*
X0225560Y0218129D01*
X0225583Y0218074D01*
X0225610Y0218019D01*
X0225639Y0217967D01*
X0225672Y0217916D01*
X0225708Y0217867D01*
X0225746Y0217821D01*
X0225788Y0217777D01*
X0225832Y0217735D01*
X0225878Y0217697D01*
X0225927Y0217661D01*
X0225978Y0217628D01*
X0226030Y0217599D01*
X0226085Y0217572D01*
X0226140Y0217549D01*
X0226197Y0217529D01*
X0226256Y0217513D01*
X0226315Y0217500D01*
X0226374Y0217491D01*
X0226435Y0217486D01*
X0226495Y0217484D01*
X0221067Y0077338D02*
X0221067Y0076171D01*
X0221067Y0073835D02*
X0221067Y0069165D01*
X0222234Y0069165D02*
X0219899Y0069165D01*
X0217570Y0069165D02*
X0214067Y0071500D01*
X0217570Y0073835D01*
X0219899Y0073835D02*
X0221067Y0073835D01*
X0224564Y0073835D02*
X0226900Y0073835D01*
X0225732Y0075003D02*
X0225732Y0070332D01*
X0226900Y0069165D01*
X0236228Y0071500D02*
X0238563Y0069165D01*
X0240898Y0071500D01*
X0240898Y0076171D01*
X0243226Y0073835D02*
X0245561Y0076171D01*
X0245561Y0069165D01*
X0243226Y0069165D02*
X0247896Y0069165D01*
X0236228Y0071500D02*
X0236228Y0076171D01*
X0214067Y0076171D02*
X0214067Y0069165D01*
X0209405Y0069165D02*
X0211740Y0073835D01*
X0207069Y0073835D02*
X0209405Y0069165D01*
X0204742Y0071500D02*
X0200071Y0071500D01*
X0200071Y0070332D02*
X0200071Y0072668D01*
X0201239Y0073835D01*
X0203574Y0073835D01*
X0204742Y0072668D01*
X0204742Y0071500D01*
X0203574Y0069165D02*
X0201239Y0069165D01*
X0200071Y0070332D01*
X0197744Y0070332D02*
X0197744Y0075003D01*
X0196577Y0076171D01*
X0193074Y0076171D01*
X0193074Y0069165D01*
X0196577Y0069165D01*
X0197744Y0070332D01*
X0190746Y0072668D02*
X0186076Y0072668D01*
X0183748Y0073835D02*
X0183748Y0075003D01*
X0182581Y0076171D01*
X0180245Y0076171D01*
X0179078Y0075003D01*
X0176750Y0075003D02*
X0176750Y0073835D01*
X0175583Y0072668D01*
X0176750Y0071500D01*
X0176750Y0070332D01*
X0175583Y0069165D01*
X0173247Y0069165D01*
X0172080Y0070332D01*
X0169752Y0072668D02*
X0168585Y0071500D01*
X0165082Y0071500D01*
X0162754Y0071500D02*
X0162754Y0070332D01*
X0161587Y0069165D01*
X0159251Y0069165D01*
X0158084Y0070332D01*
X0155756Y0069165D02*
X0151086Y0069165D01*
X0151086Y0076171D01*
X0155756Y0076171D01*
X0158084Y0075003D02*
X0158084Y0073835D01*
X0159251Y0072668D01*
X0161587Y0072668D01*
X0162754Y0071500D01*
X0165082Y0069165D02*
X0165082Y0076171D01*
X0168585Y0076171D01*
X0169752Y0075003D01*
X0169752Y0072668D01*
X0172080Y0075003D02*
X0173247Y0076171D01*
X0175583Y0076171D01*
X0176750Y0075003D01*
X0175583Y0072668D02*
X0174415Y0072668D01*
X0179078Y0069165D02*
X0183748Y0073835D01*
X0183748Y0069165D02*
X0179078Y0069165D01*
X0162754Y0075003D02*
X0161587Y0076171D01*
X0159251Y0076171D01*
X0158084Y0075003D01*
X0153421Y0072668D02*
X0151086Y0072668D01*
D11*
X0040274Y0021542D02*
X0040274Y0131384D01*
X0244998Y0131384D01*
X0244998Y0021542D01*
X0040274Y0021542D01*
X0124498Y0141492D02*
X0124498Y0159406D01*
X0130797Y0159406D01*
X0130797Y0158421D01*
X0155994Y0158421D01*
X0155994Y0159406D01*
X0162293Y0159406D01*
X0162293Y0141492D01*
X0124498Y0141492D01*
X0097695Y0151384D02*
X0080195Y0151384D01*
X0080195Y0171384D01*
X0097695Y0171384D01*
X0097695Y0151384D01*
X0080195Y0151384D02*
X0072695Y0151384D01*
X0072695Y0171384D01*
X0080195Y0171384D01*
X0076395Y0190484D02*
X0056395Y0190484D01*
X0056395Y0207984D01*
X0076395Y0207984D01*
X0076395Y0190484D01*
X0076395Y0207984D02*
X0076395Y0215484D01*
X0056395Y0215484D01*
X0056395Y0207984D01*
X0065795Y0231984D02*
X0065600Y0231986D01*
X0065404Y0231994D01*
X0065209Y0232006D01*
X0065014Y0232022D01*
X0064819Y0232044D01*
X0064625Y0232070D01*
X0064432Y0232101D01*
X0064240Y0232137D01*
X0064048Y0232177D01*
X0063858Y0232222D01*
X0063669Y0232272D01*
X0063481Y0232326D01*
X0063294Y0232385D01*
X0063109Y0232448D01*
X0062926Y0232516D01*
X0062744Y0232589D01*
X0062564Y0232665D01*
X0062386Y0232747D01*
X0062210Y0232832D01*
X0062036Y0232922D01*
X0061865Y0233016D01*
X0061695Y0233114D01*
X0061529Y0233217D01*
X0061364Y0233323D01*
X0061203Y0233433D01*
X0061044Y0233547D01*
X0060888Y0233666D01*
X0060735Y0233787D01*
X0060585Y0233913D01*
X0060438Y0234042D01*
X0060294Y0234175D01*
X0060154Y0234311D01*
X0060017Y0234451D01*
X0059883Y0234594D01*
X0059753Y0234740D01*
X0059627Y0234889D01*
X0059504Y0235042D01*
X0059385Y0235197D01*
X0059270Y0235355D01*
X0059159Y0235516D01*
X0059052Y0235680D01*
X0058948Y0235846D01*
X0058849Y0236015D01*
X0065795Y0247984D02*
X0065990Y0247982D01*
X0066184Y0247975D01*
X0066378Y0247963D01*
X0066572Y0247946D01*
X0066766Y0247925D01*
X0066959Y0247899D01*
X0067151Y0247868D01*
X0067343Y0247833D01*
X0067533Y0247793D01*
X0067723Y0247748D01*
X0067911Y0247699D01*
X0068098Y0247645D01*
X0068284Y0247587D01*
X0068468Y0247524D01*
X0068651Y0247457D01*
X0068832Y0247385D01*
X0069011Y0247309D01*
X0069188Y0247229D01*
X0069363Y0247144D01*
X0069537Y0247055D01*
X0069707Y0246962D01*
X0069876Y0246865D01*
X0070042Y0246763D01*
X0070206Y0246658D01*
X0070367Y0246549D01*
X0070526Y0246436D01*
X0070681Y0246319D01*
X0070834Y0246198D01*
X0070983Y0246073D01*
X0071130Y0245945D01*
X0071274Y0245814D01*
X0071414Y0245679D01*
X0071551Y0245540D01*
X0071684Y0245399D01*
X0071814Y0245254D01*
X0071941Y0245106D01*
X0065795Y0247984D02*
X0065603Y0247982D01*
X0065411Y0247975D01*
X0065219Y0247963D01*
X0065027Y0247947D01*
X0064836Y0247926D01*
X0064646Y0247901D01*
X0064456Y0247871D01*
X0064267Y0247837D01*
X0064079Y0247798D01*
X0063892Y0247754D01*
X0063706Y0247706D01*
X0063521Y0247654D01*
X0063337Y0247597D01*
X0063155Y0247536D01*
X0062975Y0247470D01*
X0062796Y0247400D01*
X0062618Y0247326D01*
X0062443Y0247248D01*
X0062269Y0247165D01*
X0062098Y0247078D01*
X0061929Y0246988D01*
X0061762Y0246893D01*
X0061597Y0246794D01*
X0061434Y0246691D01*
X0061275Y0246584D01*
X0061117Y0246474D01*
X0060963Y0246360D01*
X0060811Y0246242D01*
X0060662Y0246120D01*
X0060516Y0245995D01*
X0060374Y0245867D01*
X0060234Y0245735D01*
X0060097Y0245600D01*
X0059964Y0245461D01*
X0059834Y0245320D01*
X0059708Y0245175D01*
X0059585Y0245027D01*
X0059466Y0244877D01*
X0059350Y0244723D01*
X0059238Y0244567D01*
X0059130Y0244408D01*
X0059025Y0244247D01*
X0058925Y0244083D01*
X0058829Y0243917D01*
X0058736Y0243749D01*
X0065795Y0231984D02*
X0065988Y0231986D01*
X0066181Y0231993D01*
X0066373Y0232005D01*
X0066566Y0232021D01*
X0066758Y0232042D01*
X0066949Y0232068D01*
X0067139Y0232098D01*
X0067329Y0232133D01*
X0067518Y0232172D01*
X0067706Y0232216D01*
X0067893Y0232264D01*
X0068079Y0232317D01*
X0068263Y0232374D01*
X0068446Y0232436D01*
X0068627Y0232502D01*
X0068807Y0232573D01*
X0068985Y0232647D01*
X0069161Y0232726D01*
X0069335Y0232810D01*
X0069507Y0232897D01*
X0069677Y0232989D01*
X0069844Y0233085D01*
X0070010Y0233184D01*
X0070173Y0233288D01*
X0070333Y0233395D01*
X0070490Y0233507D01*
X0070645Y0233622D01*
X0070797Y0233741D01*
X0070946Y0233863D01*
X0071093Y0233989D01*
X0071236Y0234119D01*
X0071376Y0234252D01*
X0071512Y0234388D01*
X0071646Y0234528D01*
X0071775Y0234670D01*
X0071902Y0234816D01*
X0124398Y0236863D02*
X0130697Y0236863D01*
X0130697Y0237847D01*
X0155894Y0237847D01*
X0155894Y0236863D01*
X0162193Y0236863D01*
X0162193Y0254777D01*
X0124398Y0254777D01*
X0124398Y0236863D01*
X0124498Y0221177D02*
X0162293Y0221177D01*
X0162293Y0203263D01*
X0155994Y0203263D01*
X0155994Y0204247D01*
X0130797Y0204247D01*
X0130797Y0203263D01*
X0124498Y0203263D01*
X0124498Y0221177D01*
X0124598Y0193977D02*
X0162393Y0193977D01*
X0162393Y0176063D01*
X0156094Y0176063D01*
X0156094Y0177047D01*
X0130897Y0177047D01*
X0130897Y0176063D01*
X0124598Y0176063D01*
X0124598Y0193977D01*
D12*
X0124188Y0241734D02*
X0126440Y0241734D01*
X0127191Y0242485D01*
X0127191Y0245488D01*
X0126440Y0246238D01*
X0124188Y0246238D01*
X0124188Y0241734D01*
X0122587Y0241734D02*
X0119584Y0241734D01*
X0119584Y0246238D01*
X0122587Y0246238D01*
X0121086Y0243986D02*
X0119584Y0243986D01*
X0117983Y0241734D02*
X0114980Y0241734D01*
X0114980Y0246238D01*
X0114066Y0248734D02*
X0112565Y0248734D01*
X0111814Y0249485D01*
X0111814Y0252488D01*
X0112565Y0253238D01*
X0114066Y0253238D01*
X0114817Y0252488D01*
X0116418Y0251737D02*
X0117920Y0253238D01*
X0117920Y0248734D01*
X0119421Y0248734D02*
X0116418Y0248734D01*
X0114817Y0249485D02*
X0114066Y0248734D01*
X0110246Y0248734D02*
X0108745Y0248734D01*
X0109496Y0248734D02*
X0109496Y0253238D01*
X0110246Y0253238D02*
X0108745Y0253238D01*
X0108775Y0246238D02*
X0108775Y0241734D01*
X0105773Y0246238D01*
X0105773Y0241734D01*
X0104171Y0241734D02*
X0104171Y0246238D01*
X0101169Y0246238D02*
X0104171Y0241734D01*
X0101169Y0241734D02*
X0101169Y0246238D01*
X0099567Y0245488D02*
X0099567Y0242485D01*
X0098817Y0241734D01*
X0097315Y0241734D01*
X0096565Y0242485D01*
X0096565Y0245488D01*
X0097315Y0246238D01*
X0098817Y0246238D01*
X0099567Y0245488D01*
X0094963Y0245488D02*
X0094213Y0246238D01*
X0092711Y0246238D01*
X0091961Y0245488D01*
X0091961Y0242485D01*
X0092711Y0241734D01*
X0094213Y0241734D01*
X0094963Y0242485D01*
X0090359Y0240984D02*
X0087357Y0240984D01*
X0085756Y0241734D02*
X0082753Y0241734D01*
X0082753Y0246238D01*
X0085756Y0246238D01*
X0084254Y0243986D02*
X0082753Y0243986D01*
X0081152Y0241734D02*
X0078149Y0241734D01*
X0078149Y0246238D01*
X0076548Y0245488D02*
X0076548Y0244737D01*
X0075797Y0243986D01*
X0073545Y0243986D01*
X0073545Y0241734D02*
X0075797Y0241734D01*
X0076548Y0242485D01*
X0076548Y0243236D01*
X0075797Y0243986D01*
X0076548Y0245488D02*
X0075797Y0246238D01*
X0073545Y0246238D01*
X0073545Y0241734D01*
X0110377Y0240984D02*
X0113379Y0240984D01*
X0174647Y0244584D02*
X0191143Y0244584D01*
X0188423Y0238584D02*
X0187368Y0238584D01*
X0192397Y0242556D02*
X0192293Y0242771D01*
X0192184Y0242984D01*
X0192070Y0243194D01*
X0191951Y0243401D01*
X0191828Y0243606D01*
X0191700Y0243808D01*
X0191567Y0244007D01*
X0191430Y0244202D01*
X0191289Y0244395D01*
X0191143Y0244584D01*
X0192395Y0233612D02*
X0192283Y0233382D01*
X0192166Y0233155D01*
X0192044Y0232931D01*
X0191916Y0232710D01*
X0191782Y0232493D01*
X0191644Y0232278D01*
X0191500Y0232067D01*
X0191351Y0231860D01*
X0191197Y0231656D01*
X0191039Y0231456D01*
X0190875Y0231260D01*
X0190707Y0231068D01*
X0190534Y0230880D01*
X0190356Y0230696D01*
X0190175Y0230517D01*
X0189988Y0230342D01*
X0189798Y0230172D01*
X0189604Y0230007D01*
X0189405Y0229846D01*
X0189203Y0229690D01*
X0188997Y0229539D01*
X0188787Y0229393D01*
X0188574Y0229253D01*
X0188358Y0229117D01*
X0188138Y0228987D01*
X0187915Y0228862D01*
X0187690Y0228743D01*
X0187461Y0228629D01*
X0187230Y0228521D01*
X0186996Y0228418D01*
X0186760Y0228321D01*
X0186521Y0228230D01*
X0186281Y0228145D01*
X0186038Y0228065D01*
X0185793Y0227992D01*
X0185547Y0227924D01*
X0185299Y0227863D01*
X0185050Y0227808D01*
X0184800Y0227758D01*
X0184548Y0227715D01*
X0184295Y0227678D01*
X0184042Y0227647D01*
X0183788Y0227622D01*
X0183533Y0227603D01*
X0183278Y0227591D01*
X0183023Y0227585D01*
X0182767Y0227585D01*
X0182512Y0227591D01*
X0182257Y0227603D01*
X0182002Y0227622D01*
X0181748Y0227647D01*
X0181495Y0227678D01*
X0181242Y0227715D01*
X0180990Y0227758D01*
X0180740Y0227808D01*
X0180491Y0227863D01*
X0180243Y0227924D01*
X0179997Y0227992D01*
X0179752Y0228065D01*
X0179509Y0228145D01*
X0179269Y0228230D01*
X0179030Y0228321D01*
X0178794Y0228418D01*
X0178560Y0228521D01*
X0178329Y0228629D01*
X0178100Y0228743D01*
X0177875Y0228862D01*
X0177652Y0228987D01*
X0177432Y0229117D01*
X0177216Y0229253D01*
X0177003Y0229393D01*
X0176793Y0229539D01*
X0176587Y0229690D01*
X0176385Y0229846D01*
X0176186Y0230007D01*
X0175992Y0230172D01*
X0175802Y0230342D01*
X0175615Y0230517D01*
X0175434Y0230696D01*
X0175256Y0230880D01*
X0175083Y0231068D01*
X0174915Y0231260D01*
X0174751Y0231456D01*
X0174593Y0231656D01*
X0174439Y0231860D01*
X0174290Y0232067D01*
X0174146Y0232278D01*
X0174008Y0232493D01*
X0173874Y0232710D01*
X0173746Y0232931D01*
X0173624Y0233155D01*
X0173507Y0233382D01*
X0173395Y0233612D01*
X0177368Y0238584D02*
X0178423Y0238584D01*
X0173349Y0242462D02*
X0173456Y0242687D01*
X0173568Y0242910D01*
X0173685Y0243130D01*
X0173807Y0243347D01*
X0173935Y0243562D01*
X0174068Y0243773D01*
X0174205Y0243981D01*
X0174348Y0244185D01*
X0174495Y0244387D01*
X0174647Y0244584D01*
X0183937Y0225838D02*
X0186940Y0225838D01*
X0185439Y0225838D02*
X0185439Y0221334D01*
X0188541Y0223586D02*
X0191544Y0223586D01*
X0190793Y0221334D02*
X0190793Y0225838D01*
X0188541Y0223586D01*
X0191143Y0208484D02*
X0174647Y0208484D01*
X0177368Y0202484D02*
X0178423Y0202484D01*
X0173349Y0206362D02*
X0173456Y0206587D01*
X0173568Y0206810D01*
X0173685Y0207030D01*
X0173807Y0207247D01*
X0173935Y0207462D01*
X0174068Y0207673D01*
X0174205Y0207881D01*
X0174348Y0208085D01*
X0174495Y0208287D01*
X0174647Y0208484D01*
X0173395Y0197512D02*
X0173507Y0197282D01*
X0173624Y0197055D01*
X0173746Y0196831D01*
X0173874Y0196610D01*
X0174008Y0196393D01*
X0174146Y0196178D01*
X0174290Y0195967D01*
X0174439Y0195760D01*
X0174593Y0195556D01*
X0174751Y0195356D01*
X0174915Y0195160D01*
X0175083Y0194968D01*
X0175256Y0194780D01*
X0175434Y0194596D01*
X0175615Y0194417D01*
X0175802Y0194242D01*
X0175992Y0194072D01*
X0176186Y0193907D01*
X0176385Y0193746D01*
X0176587Y0193590D01*
X0176793Y0193439D01*
X0177003Y0193293D01*
X0177216Y0193153D01*
X0177432Y0193017D01*
X0177652Y0192887D01*
X0177875Y0192762D01*
X0178100Y0192643D01*
X0178329Y0192529D01*
X0178560Y0192421D01*
X0178794Y0192318D01*
X0179030Y0192221D01*
X0179269Y0192130D01*
X0179509Y0192045D01*
X0179752Y0191965D01*
X0179997Y0191892D01*
X0180243Y0191824D01*
X0180491Y0191763D01*
X0180740Y0191708D01*
X0180990Y0191658D01*
X0181242Y0191615D01*
X0181495Y0191578D01*
X0181748Y0191547D01*
X0182002Y0191522D01*
X0182257Y0191503D01*
X0182512Y0191491D01*
X0182767Y0191485D01*
X0183023Y0191485D01*
X0183278Y0191491D01*
X0183533Y0191503D01*
X0183788Y0191522D01*
X0184042Y0191547D01*
X0184295Y0191578D01*
X0184548Y0191615D01*
X0184800Y0191658D01*
X0185050Y0191708D01*
X0185299Y0191763D01*
X0185547Y0191824D01*
X0185793Y0191892D01*
X0186038Y0191965D01*
X0186281Y0192045D01*
X0186521Y0192130D01*
X0186760Y0192221D01*
X0186996Y0192318D01*
X0187230Y0192421D01*
X0187461Y0192529D01*
X0187690Y0192643D01*
X0187915Y0192762D01*
X0188138Y0192887D01*
X0188358Y0193017D01*
X0188574Y0193153D01*
X0188787Y0193293D01*
X0188997Y0193439D01*
X0189203Y0193590D01*
X0189405Y0193746D01*
X0189604Y0193907D01*
X0189798Y0194072D01*
X0189988Y0194242D01*
X0190175Y0194417D01*
X0190356Y0194596D01*
X0190534Y0194780D01*
X0190707Y0194968D01*
X0190875Y0195160D01*
X0191039Y0195356D01*
X0191197Y0195556D01*
X0191351Y0195760D01*
X0191500Y0195967D01*
X0191644Y0196178D01*
X0191782Y0196393D01*
X0191916Y0196610D01*
X0192044Y0196831D01*
X0192166Y0197055D01*
X0192283Y0197282D01*
X0192395Y0197512D01*
X0188423Y0202484D02*
X0187368Y0202484D01*
X0192397Y0206456D02*
X0192293Y0206671D01*
X0192184Y0206884D01*
X0192070Y0207094D01*
X0191951Y0207301D01*
X0191828Y0207506D01*
X0191700Y0207708D01*
X0191567Y0207907D01*
X0191430Y0208102D01*
X0191289Y0208295D01*
X0191143Y0208484D01*
X0190793Y0189738D02*
X0189292Y0189738D01*
X0188541Y0188988D01*
X0186940Y0189738D02*
X0183937Y0189738D01*
X0185439Y0189738D02*
X0185439Y0185234D01*
X0188541Y0185985D02*
X0189292Y0185234D01*
X0190793Y0185234D01*
X0191544Y0185985D01*
X0191544Y0186736D01*
X0190793Y0187486D01*
X0190042Y0187486D01*
X0190793Y0187486D02*
X0191544Y0188237D01*
X0191544Y0188988D01*
X0190793Y0189738D01*
X0191743Y0152584D02*
X0175247Y0152584D01*
X0177968Y0146584D02*
X0179023Y0146584D01*
X0173949Y0150462D02*
X0174056Y0150687D01*
X0174168Y0150910D01*
X0174285Y0151130D01*
X0174407Y0151347D01*
X0174535Y0151562D01*
X0174668Y0151773D01*
X0174805Y0151981D01*
X0174948Y0152185D01*
X0175095Y0152387D01*
X0175247Y0152584D01*
X0173995Y0141612D02*
X0174107Y0141382D01*
X0174224Y0141155D01*
X0174346Y0140931D01*
X0174474Y0140710D01*
X0174608Y0140493D01*
X0174746Y0140278D01*
X0174890Y0140067D01*
X0175039Y0139860D01*
X0175193Y0139656D01*
X0175351Y0139456D01*
X0175515Y0139260D01*
X0175683Y0139068D01*
X0175856Y0138880D01*
X0176034Y0138696D01*
X0176215Y0138517D01*
X0176402Y0138342D01*
X0176592Y0138172D01*
X0176786Y0138007D01*
X0176985Y0137846D01*
X0177187Y0137690D01*
X0177393Y0137539D01*
X0177603Y0137393D01*
X0177816Y0137253D01*
X0178032Y0137117D01*
X0178252Y0136987D01*
X0178475Y0136862D01*
X0178700Y0136743D01*
X0178929Y0136629D01*
X0179160Y0136521D01*
X0179394Y0136418D01*
X0179630Y0136321D01*
X0179869Y0136230D01*
X0180109Y0136145D01*
X0180352Y0136065D01*
X0180597Y0135992D01*
X0180843Y0135924D01*
X0181091Y0135863D01*
X0181340Y0135808D01*
X0181590Y0135758D01*
X0181842Y0135715D01*
X0182095Y0135678D01*
X0182348Y0135647D01*
X0182602Y0135622D01*
X0182857Y0135603D01*
X0183112Y0135591D01*
X0183367Y0135585D01*
X0183623Y0135585D01*
X0183878Y0135591D01*
X0184133Y0135603D01*
X0184388Y0135622D01*
X0184642Y0135647D01*
X0184895Y0135678D01*
X0185148Y0135715D01*
X0185400Y0135758D01*
X0185650Y0135808D01*
X0185899Y0135863D01*
X0186147Y0135924D01*
X0186393Y0135992D01*
X0186638Y0136065D01*
X0186881Y0136145D01*
X0187121Y0136230D01*
X0187360Y0136321D01*
X0187596Y0136418D01*
X0187830Y0136521D01*
X0188061Y0136629D01*
X0188290Y0136743D01*
X0188515Y0136862D01*
X0188738Y0136987D01*
X0188958Y0137117D01*
X0189174Y0137253D01*
X0189387Y0137393D01*
X0189597Y0137539D01*
X0189803Y0137690D01*
X0190005Y0137846D01*
X0190204Y0138007D01*
X0190398Y0138172D01*
X0190588Y0138342D01*
X0190775Y0138517D01*
X0190956Y0138696D01*
X0191134Y0138880D01*
X0191307Y0139068D01*
X0191475Y0139260D01*
X0191639Y0139456D01*
X0191797Y0139656D01*
X0191951Y0139860D01*
X0192100Y0140067D01*
X0192244Y0140278D01*
X0192382Y0140493D01*
X0192516Y0140710D01*
X0192644Y0140931D01*
X0192766Y0141155D01*
X0192883Y0141382D01*
X0192995Y0141612D01*
X0189023Y0146584D02*
X0187968Y0146584D01*
X0192997Y0150556D02*
X0192893Y0150771D01*
X0192784Y0150984D01*
X0192670Y0151194D01*
X0192551Y0151401D01*
X0192428Y0151606D01*
X0192300Y0151808D01*
X0192167Y0152007D01*
X0192030Y0152202D01*
X0191889Y0152395D01*
X0191743Y0152584D01*
X0190642Y0133838D02*
X0189141Y0132337D01*
X0190642Y0133838D02*
X0190642Y0129334D01*
X0189141Y0129334D02*
X0192144Y0129334D01*
X0187540Y0133838D02*
X0184537Y0133838D01*
X0186039Y0133838D02*
X0186039Y0129334D01*
D13*
X0185197Y0146884D02*
X0185197Y0150387D01*
X0186365Y0149220D01*
X0187532Y0150387D01*
X0187532Y0146884D01*
X0183941Y0146884D02*
X0183941Y0150387D01*
X0183941Y0148636D02*
X0181606Y0148636D01*
X0180350Y0147468D02*
X0180350Y0149804D01*
X0179766Y0150387D01*
X0178599Y0150387D01*
X0178015Y0149804D01*
X0178015Y0147468D01*
X0178599Y0146884D01*
X0179766Y0146884D01*
X0180350Y0147468D01*
X0181606Y0146884D02*
X0181606Y0150387D01*
X0176759Y0146301D02*
X0174424Y0146301D01*
X0173168Y0147468D02*
X0173168Y0149804D01*
X0172584Y0150387D01*
X0171416Y0150387D01*
X0170833Y0149804D01*
X0170833Y0147468D01*
X0171416Y0146884D01*
X0172584Y0146884D01*
X0173168Y0147468D01*
X0169577Y0146884D02*
X0168409Y0148052D01*
X0168993Y0148052D02*
X0167242Y0148052D01*
X0167242Y0146884D02*
X0167242Y0150387D01*
X0168993Y0150387D01*
X0169577Y0149804D01*
X0169577Y0148636D01*
X0168993Y0148052D01*
X0165986Y0146884D02*
X0163650Y0146884D01*
X0163650Y0150387D01*
X0165986Y0150387D01*
X0164818Y0148636D02*
X0163650Y0148636D01*
X0162395Y0149804D02*
X0160059Y0147468D01*
X0160059Y0146884D01*
X0162395Y0146884D01*
X0162395Y0149804D02*
X0162395Y0150387D01*
X0160059Y0150387D01*
X0158804Y0146301D02*
X0156468Y0146301D01*
X0155213Y0147468D02*
X0154629Y0146884D01*
X0153461Y0146884D01*
X0152877Y0147468D01*
X0151622Y0146884D02*
X0149286Y0146884D01*
X0150454Y0146884D02*
X0150454Y0150387D01*
X0149286Y0149220D01*
X0148030Y0149804D02*
X0148030Y0148636D01*
X0147447Y0148052D01*
X0145695Y0148052D01*
X0145695Y0146884D02*
X0145695Y0150387D01*
X0147447Y0150387D01*
X0148030Y0149804D01*
X0146863Y0148052D02*
X0148030Y0146884D01*
X0152877Y0149804D02*
X0153461Y0150387D01*
X0154629Y0150387D01*
X0155213Y0149804D01*
X0155213Y0149220D01*
X0154629Y0148636D01*
X0155213Y0148052D01*
X0155213Y0147468D01*
X0154629Y0148636D02*
X0154045Y0148636D01*
X0153875Y0138973D02*
X0156177Y0138973D01*
X0156945Y0138206D01*
X0156945Y0136671D01*
X0156177Y0135904D01*
X0153875Y0135904D01*
X0153875Y0134369D02*
X0153875Y0138973D01*
X0155410Y0135904D02*
X0156945Y0134369D01*
X0158479Y0135137D02*
X0159247Y0134369D01*
X0160781Y0134369D01*
X0161549Y0135137D01*
X0161549Y0135904D01*
X0160781Y0136671D01*
X0158479Y0136671D01*
X0158479Y0135137D01*
X0158479Y0136671D02*
X0160014Y0138206D01*
X0161549Y0138973D01*
X0158804Y0170501D02*
X0156468Y0170501D01*
X0155213Y0171084D02*
X0152877Y0171084D01*
X0155213Y0173420D01*
X0155213Y0174004D01*
X0154629Y0174587D01*
X0153461Y0174587D01*
X0152877Y0174004D01*
X0150454Y0174587D02*
X0150454Y0171084D01*
X0149286Y0171084D02*
X0151622Y0171084D01*
X0149286Y0173420D02*
X0150454Y0174587D01*
X0148030Y0174004D02*
X0148030Y0172836D01*
X0147447Y0172252D01*
X0145695Y0172252D01*
X0145695Y0171084D02*
X0145695Y0174587D01*
X0147447Y0174587D01*
X0148030Y0174004D01*
X0146863Y0172252D02*
X0148030Y0171084D01*
X0160059Y0171084D02*
X0162395Y0171084D01*
X0163650Y0171084D02*
X0163650Y0174587D01*
X0165986Y0174587D01*
X0167242Y0174587D02*
X0168993Y0174587D01*
X0169577Y0174004D01*
X0169577Y0172836D01*
X0168993Y0172252D01*
X0167242Y0172252D01*
X0168409Y0172252D02*
X0169577Y0171084D01*
X0170833Y0171668D02*
X0170833Y0174004D01*
X0171416Y0174587D01*
X0172584Y0174587D01*
X0173168Y0174004D01*
X0173168Y0171668D01*
X0172584Y0171084D01*
X0171416Y0171084D01*
X0170833Y0171668D01*
X0174424Y0170501D02*
X0176759Y0170501D01*
X0178015Y0171668D02*
X0178599Y0171084D01*
X0179766Y0171084D01*
X0180350Y0171668D01*
X0180350Y0174004D01*
X0179766Y0174587D01*
X0178599Y0174587D01*
X0178015Y0174004D01*
X0178015Y0171668D01*
X0181606Y0171084D02*
X0181606Y0174587D01*
X0181606Y0172836D02*
X0183941Y0172836D01*
X0183941Y0174587D02*
X0183941Y0171084D01*
X0185197Y0171084D02*
X0185197Y0174587D01*
X0186365Y0173420D01*
X0187532Y0174587D01*
X0187532Y0171084D01*
X0167242Y0171084D02*
X0167242Y0174587D01*
X0164818Y0172836D02*
X0163650Y0172836D01*
X0162395Y0174004D02*
X0160059Y0171668D01*
X0160059Y0171084D01*
X0160059Y0174587D02*
X0162395Y0174587D01*
X0162395Y0174004D01*
X0163650Y0171084D02*
X0165986Y0171084D01*
X0131880Y0200336D02*
X0128811Y0197267D01*
X0128811Y0196499D01*
X0127276Y0196499D02*
X0125742Y0198034D01*
X0126509Y0198034D02*
X0124207Y0198034D01*
X0124207Y0196499D02*
X0124207Y0201103D01*
X0126509Y0201103D01*
X0127276Y0200336D01*
X0127276Y0198801D01*
X0126509Y0198034D01*
X0128811Y0201103D02*
X0131880Y0201103D01*
X0131880Y0200336D01*
X0131013Y0223699D02*
X0129478Y0223699D01*
X0128711Y0224467D01*
X0128711Y0225234D01*
X0129478Y0226001D01*
X0131013Y0226001D01*
X0131780Y0225234D01*
X0131780Y0224467D01*
X0131013Y0223699D01*
X0131013Y0226001D02*
X0131780Y0226769D01*
X0131780Y0227536D01*
X0131013Y0228303D01*
X0129478Y0228303D01*
X0128711Y0227536D01*
X0128711Y0226769D01*
X0129478Y0226001D01*
X0127176Y0226001D02*
X0126409Y0225234D01*
X0124107Y0225234D01*
X0125642Y0225234D02*
X0127176Y0223699D01*
X0127176Y0226001D02*
X0127176Y0227536D01*
X0126409Y0228303D01*
X0124107Y0228303D01*
X0124107Y0223699D01*
X0106739Y0206584D02*
X0104404Y0206584D01*
X0105572Y0206584D02*
X0105572Y0210087D01*
X0104404Y0208920D01*
X0103148Y0209504D02*
X0103148Y0208336D01*
X0102564Y0207752D01*
X0100813Y0207752D01*
X0100813Y0206584D02*
X0100813Y0210087D01*
X0102564Y0210087D01*
X0103148Y0209504D01*
X0101981Y0207752D02*
X0103148Y0206584D01*
X0093400Y0218184D02*
X0093400Y0221787D01*
X0092199Y0221787D02*
X0094601Y0221787D01*
X0090918Y0221787D02*
X0090918Y0218785D01*
X0090317Y0218184D01*
X0089116Y0218184D01*
X0088516Y0218785D01*
X0088516Y0221787D01*
X0087235Y0221187D02*
X0087235Y0219986D01*
X0086634Y0219385D01*
X0084833Y0219385D01*
X0084833Y0218184D02*
X0084833Y0221787D01*
X0086634Y0221787D01*
X0087235Y0221187D01*
X0083551Y0221787D02*
X0083551Y0218184D01*
X0081149Y0221787D01*
X0081149Y0218184D01*
X0079895Y0218184D02*
X0078694Y0218184D01*
X0079295Y0218184D02*
X0079295Y0221787D01*
X0079895Y0221787D02*
X0078694Y0221787D01*
X0077413Y0217584D02*
X0075011Y0217584D01*
X0073730Y0218184D02*
X0072529Y0219385D01*
X0073129Y0219385D02*
X0071328Y0219385D01*
X0071328Y0218184D02*
X0071328Y0221787D01*
X0073129Y0221787D01*
X0073730Y0221187D01*
X0073730Y0219986D01*
X0073129Y0219385D01*
X0070047Y0218184D02*
X0067645Y0218184D01*
X0067645Y0221787D01*
X0070047Y0221787D01*
X0068846Y0219986D02*
X0067645Y0219986D01*
X0066363Y0221787D02*
X0066363Y0218184D01*
X0065162Y0219385D01*
X0063961Y0218184D01*
X0063961Y0221787D01*
X0062680Y0221187D02*
X0062080Y0221787D01*
X0060879Y0221787D01*
X0060278Y0221187D01*
X0060278Y0218785D01*
X0060879Y0218184D01*
X0062080Y0218184D01*
X0062680Y0218785D01*
X0062680Y0221187D01*
X0058997Y0221187D02*
X0058997Y0219986D01*
X0058397Y0219385D01*
X0056595Y0219385D01*
X0056595Y0218184D02*
X0056595Y0221787D01*
X0058397Y0221787D01*
X0058997Y0221187D01*
X0066993Y0157670D02*
X0066392Y0157069D01*
X0066392Y0155868D01*
X0066993Y0155268D01*
X0066392Y0153986D02*
X0069995Y0151584D01*
X0069995Y0153986D02*
X0066392Y0151584D01*
X0069995Y0155268D02*
X0067593Y0157670D01*
X0066993Y0157670D01*
X0069995Y0157670D02*
X0069995Y0155268D01*
X0075395Y0141188D02*
X0075395Y0137352D01*
X0076162Y0136584D01*
X0077697Y0136584D01*
X0078464Y0137352D01*
X0078464Y0141188D01*
X0079999Y0140421D02*
X0080766Y0141188D01*
X0082301Y0141188D01*
X0083068Y0140421D01*
X0084603Y0140421D02*
X0085370Y0141188D01*
X0086905Y0141188D01*
X0087672Y0140421D01*
X0087672Y0139654D01*
X0084603Y0136584D01*
X0087672Y0136584D01*
X0083068Y0137352D02*
X0082301Y0136584D01*
X0080766Y0136584D01*
X0079999Y0137352D01*
X0080766Y0138886D02*
X0079999Y0139654D01*
X0079999Y0140421D01*
X0080766Y0138886D02*
X0082301Y0138886D01*
X0083068Y0138119D01*
X0083068Y0137352D01*
X0081534Y0135817D02*
X0081534Y0141956D01*
X0071456Y0051587D02*
X0070288Y0051587D01*
X0069704Y0051004D01*
X0069704Y0048668D01*
X0072039Y0051004D01*
X0072039Y0048668D01*
X0071456Y0048084D01*
X0070288Y0048084D01*
X0069704Y0048668D01*
X0068448Y0048084D02*
X0066113Y0048084D01*
X0067281Y0048084D02*
X0067281Y0051587D01*
X0066113Y0050420D01*
X0064857Y0051004D02*
X0064273Y0051587D01*
X0062522Y0051587D01*
X0062522Y0048084D01*
X0062522Y0049252D02*
X0064273Y0049252D01*
X0064857Y0049836D01*
X0064857Y0051004D01*
X0063690Y0049252D02*
X0064857Y0048084D01*
X0071456Y0051587D02*
X0072039Y0051004D01*
X0213795Y0168384D02*
X0213795Y0171887D01*
X0215547Y0171887D01*
X0216130Y0171304D01*
X0216130Y0170136D01*
X0215547Y0169552D01*
X0213795Y0169552D01*
X0214963Y0169552D02*
X0216130Y0168384D01*
X0217386Y0168968D02*
X0217970Y0168384D01*
X0219138Y0168384D01*
X0219722Y0168968D01*
X0219722Y0169552D01*
X0219138Y0170136D01*
X0218554Y0170136D01*
X0219138Y0170136D02*
X0219722Y0170720D01*
X0219722Y0171304D01*
X0219138Y0171887D01*
X0217970Y0171887D01*
X0217386Y0171304D01*
X0219995Y0185284D02*
X0219995Y0188787D01*
X0221747Y0188787D01*
X0222330Y0188204D01*
X0222330Y0187036D01*
X0221747Y0186452D01*
X0219995Y0186452D01*
X0221163Y0186452D02*
X0222330Y0185284D01*
X0223586Y0187036D02*
X0225922Y0187036D01*
X0225338Y0188787D02*
X0225338Y0185284D01*
X0223586Y0187036D02*
X0225338Y0188787D01*
X0233413Y0212684D02*
X0233413Y0216187D01*
X0235164Y0216187D01*
X0235748Y0215604D01*
X0235748Y0214436D01*
X0235164Y0213852D01*
X0233413Y0213852D01*
X0234581Y0213852D02*
X0235748Y0212684D01*
X0237004Y0213268D02*
X0237588Y0212684D01*
X0238756Y0212684D01*
X0239339Y0213268D01*
X0239339Y0214436D01*
X0238756Y0215020D01*
X0238172Y0215020D01*
X0237004Y0214436D01*
X0237004Y0216187D01*
X0239339Y0216187D01*
X0187532Y0233684D02*
X0187532Y0237187D01*
X0186365Y0236020D01*
X0185197Y0237187D01*
X0185197Y0233684D01*
X0183941Y0233684D02*
X0183941Y0237187D01*
X0183941Y0235436D02*
X0181606Y0235436D01*
X0180350Y0236604D02*
X0179766Y0237187D01*
X0178599Y0237187D01*
X0178015Y0236604D01*
X0178015Y0234268D01*
X0178599Y0233684D01*
X0179766Y0233684D01*
X0180350Y0234268D01*
X0180350Y0236604D01*
X0181606Y0237187D02*
X0181606Y0233684D01*
X0176759Y0233101D02*
X0174424Y0233101D01*
X0173168Y0234268D02*
X0173168Y0236604D01*
X0172584Y0237187D01*
X0171416Y0237187D01*
X0170833Y0236604D01*
X0170833Y0234268D01*
X0171416Y0233684D01*
X0172584Y0233684D01*
X0173168Y0234268D01*
X0169577Y0233684D02*
X0168409Y0234852D01*
X0168993Y0234852D02*
X0167242Y0234852D01*
X0167242Y0233684D02*
X0167242Y0237187D01*
X0168993Y0237187D01*
X0169577Y0236604D01*
X0169577Y0235436D01*
X0168993Y0234852D01*
X0165986Y0233684D02*
X0163650Y0233684D01*
X0163650Y0237187D01*
X0165986Y0237187D01*
X0164818Y0235436D02*
X0163650Y0235436D01*
X0162395Y0236604D02*
X0160059Y0234268D01*
X0160059Y0233684D01*
X0162395Y0233684D01*
X0162395Y0236604D02*
X0162395Y0237187D01*
X0160059Y0237187D01*
X0158804Y0233101D02*
X0156468Y0233101D01*
X0155213Y0233684D02*
X0152877Y0233684D01*
X0154045Y0233684D02*
X0154045Y0237187D01*
X0152877Y0236020D01*
X0151622Y0233684D02*
X0149286Y0233684D01*
X0150454Y0233684D02*
X0150454Y0237187D01*
X0149286Y0236020D01*
X0148030Y0236604D02*
X0148030Y0235436D01*
X0147447Y0234852D01*
X0145695Y0234852D01*
X0145695Y0233684D02*
X0145695Y0237187D01*
X0147447Y0237187D01*
X0148030Y0236604D01*
X0146863Y0234852D02*
X0148030Y0233684D01*
X0130913Y0257299D02*
X0129378Y0257299D01*
X0128611Y0258067D01*
X0129378Y0259601D02*
X0131680Y0259601D01*
X0131680Y0258067D02*
X0131680Y0261136D01*
X0130913Y0261903D01*
X0129378Y0261903D01*
X0128611Y0261136D01*
X0128611Y0260369D01*
X0129378Y0259601D01*
X0127076Y0259601D02*
X0126309Y0258834D01*
X0124007Y0258834D01*
X0125542Y0258834D02*
X0127076Y0257299D01*
X0127076Y0259601D02*
X0127076Y0261136D01*
X0126309Y0261903D01*
X0124007Y0261903D01*
X0124007Y0257299D01*
X0130913Y0257299D02*
X0131680Y0258067D01*
X0215713Y0134887D02*
X0217464Y0134887D01*
X0218048Y0134304D01*
X0218048Y0133136D01*
X0217464Y0132552D01*
X0215713Y0132552D01*
X0215713Y0131384D02*
X0215713Y0134887D01*
X0216881Y0132552D02*
X0218048Y0131384D01*
X0219304Y0131384D02*
X0221639Y0133720D01*
X0221639Y0134304D01*
X0221056Y0134887D01*
X0219888Y0134887D01*
X0219304Y0134304D01*
X0219304Y0131384D02*
X0221639Y0131384D01*
D14*
X0156487Y0188268D03*
X0156387Y0215468D03*
X0156287Y0249068D03*
X0130403Y0147201D03*
D15*
X0129597Y0119494D02*
X0132066Y0117025D01*
X0132683Y0117025D01*
X0132683Y0115811D02*
X0132683Y0113342D01*
X0130214Y0115811D01*
X0129597Y0115811D01*
X0128980Y0115194D01*
X0128980Y0113959D01*
X0129597Y0113342D01*
X0129597Y0112128D02*
X0128980Y0111511D01*
X0128980Y0110276D01*
X0129597Y0109659D01*
X0132066Y0109659D01*
X0132683Y0110276D01*
X0132683Y0111511D01*
X0132066Y0112128D01*
X0129597Y0112128D01*
X0128980Y0108438D02*
X0128980Y0107204D01*
X0128980Y0107821D02*
X0132683Y0107821D01*
X0132683Y0107204D02*
X0132683Y0108438D01*
X0138980Y0108438D02*
X0138980Y0107204D01*
X0138980Y0107821D02*
X0142683Y0107821D01*
X0142683Y0107204D02*
X0142683Y0108438D01*
X0142066Y0109659D02*
X0142683Y0110276D01*
X0142683Y0111511D01*
X0142066Y0112128D01*
X0139597Y0112128D01*
X0138980Y0111511D01*
X0138980Y0110276D01*
X0139597Y0109659D01*
X0142066Y0109659D01*
X0142683Y0113342D02*
X0140214Y0115811D01*
X0139597Y0115811D01*
X0138980Y0115194D01*
X0138980Y0113959D01*
X0139597Y0113342D01*
X0142683Y0113342D02*
X0142683Y0115811D01*
X0142066Y0117025D02*
X0140831Y0117025D01*
X0140831Y0118877D01*
X0141449Y0119494D01*
X0142066Y0119494D01*
X0142683Y0118877D01*
X0142683Y0117643D01*
X0142066Y0117025D01*
X0140831Y0117025D02*
X0139597Y0118260D01*
X0138980Y0119494D01*
X0129597Y0119494D02*
X0128980Y0119494D01*
X0128980Y0117025D01*
X0122683Y0115811D02*
X0122683Y0113342D01*
X0122683Y0114577D02*
X0118980Y0114577D01*
X0120214Y0113342D01*
X0119597Y0112128D02*
X0118980Y0111511D01*
X0118980Y0110276D01*
X0119597Y0109659D01*
X0122066Y0109659D01*
X0122683Y0110276D01*
X0122683Y0111511D01*
X0122066Y0112128D01*
X0119597Y0112128D01*
X0118980Y0108438D02*
X0118980Y0107204D01*
X0118980Y0107821D02*
X0122683Y0107821D01*
X0122683Y0107204D02*
X0122683Y0108438D01*
X0120831Y0117025D02*
X0118980Y0118877D01*
X0122683Y0118877D01*
X0120831Y0119494D02*
X0120831Y0117025D01*
X0112683Y0117025D02*
X0110214Y0119494D01*
X0109597Y0119494D01*
X0108980Y0118877D01*
X0108980Y0117643D01*
X0109597Y0117025D01*
X0108980Y0114577D02*
X0112683Y0114577D01*
X0112683Y0115811D02*
X0112683Y0113342D01*
X0112066Y0112128D02*
X0109597Y0112128D01*
X0108980Y0111511D01*
X0108980Y0110276D01*
X0109597Y0109659D01*
X0112066Y0109659D01*
X0112683Y0110276D01*
X0112683Y0111511D01*
X0112066Y0112128D01*
X0110214Y0113342D02*
X0108980Y0114577D01*
X0112683Y0117025D02*
X0112683Y0119494D01*
X0112683Y0108438D02*
X0112683Y0107204D01*
X0112683Y0107821D02*
X0108980Y0107821D01*
X0108980Y0107204D02*
X0108980Y0108438D01*
X0102683Y0108438D02*
X0102683Y0107204D01*
X0102683Y0107821D02*
X0098980Y0107821D01*
X0098980Y0107204D02*
X0098980Y0108438D01*
X0099597Y0109659D02*
X0102066Y0109659D01*
X0102683Y0110276D01*
X0102683Y0111511D01*
X0102066Y0112128D01*
X0099597Y0112128D01*
X0098980Y0111511D01*
X0098980Y0110276D01*
X0099597Y0109659D01*
X0100214Y0113342D02*
X0098980Y0114577D01*
X0102683Y0114577D01*
X0102683Y0115811D02*
X0102683Y0113342D01*
X0102066Y0117025D02*
X0102683Y0117643D01*
X0102683Y0118877D01*
X0102066Y0119494D01*
X0101449Y0119494D01*
X0100831Y0118877D01*
X0100831Y0118260D01*
X0100831Y0118877D02*
X0100214Y0119494D01*
X0099597Y0119494D01*
X0098980Y0118877D01*
X0098980Y0117643D01*
X0099597Y0117025D01*
X0092683Y0116422D02*
X0092066Y0117039D01*
X0089597Y0117039D01*
X0088980Y0116422D01*
X0088980Y0114570D01*
X0092683Y0114570D01*
X0092683Y0116422D01*
X0092683Y0113356D02*
X0088980Y0113356D01*
X0088980Y0110887D02*
X0092683Y0113356D01*
X0092683Y0110887D02*
X0088980Y0110887D01*
X0089597Y0109672D02*
X0088980Y0109055D01*
X0088980Y0107821D01*
X0089597Y0107204D01*
X0092066Y0107204D01*
X0092683Y0107821D01*
X0092683Y0109055D01*
X0092066Y0109672D01*
X0090831Y0109672D01*
X0090831Y0108438D01*
X0082683Y0108438D02*
X0081449Y0107204D01*
X0078980Y0107204D01*
X0078980Y0109672D02*
X0081449Y0109672D01*
X0082683Y0108438D01*
X0082683Y0110887D02*
X0082683Y0112121D01*
X0082683Y0111504D02*
X0078980Y0111504D01*
X0078980Y0110887D02*
X0078980Y0112121D01*
X0078980Y0113342D02*
X0082683Y0115811D01*
X0078980Y0115811D01*
X0078980Y0113342D02*
X0082683Y0113342D01*
X0098901Y0049730D02*
X0098901Y0047262D01*
X0100753Y0047262D01*
X0100135Y0048496D01*
X0100135Y0049113D01*
X0100753Y0049730D01*
X0101987Y0049730D01*
X0102604Y0049113D01*
X0102604Y0047879D01*
X0101987Y0047262D01*
X0102604Y0046047D02*
X0102604Y0043578D01*
X0102604Y0044813D02*
X0098901Y0044813D01*
X0100135Y0043578D01*
X0099518Y0042364D02*
X0098901Y0041747D01*
X0098901Y0040513D01*
X0099518Y0039895D01*
X0101987Y0039895D01*
X0102604Y0040513D01*
X0102604Y0041747D01*
X0101987Y0042364D01*
X0099518Y0042364D01*
X0098901Y0038674D02*
X0098901Y0037440D01*
X0098901Y0038057D02*
X0102604Y0038057D01*
X0102604Y0037440D02*
X0102604Y0038674D01*
X0108901Y0038674D02*
X0108901Y0037440D01*
X0108901Y0038057D02*
X0112604Y0038057D01*
X0112604Y0037440D02*
X0112604Y0038674D01*
X0111987Y0039895D02*
X0109518Y0039895D01*
X0108901Y0040513D01*
X0108901Y0041747D01*
X0109518Y0042364D01*
X0111987Y0042364D01*
X0112604Y0041747D01*
X0112604Y0040513D01*
X0111987Y0039895D01*
X0112604Y0043578D02*
X0110135Y0046047D01*
X0109518Y0046047D01*
X0108901Y0045430D01*
X0108901Y0044196D01*
X0109518Y0043578D01*
X0112604Y0043578D02*
X0112604Y0046047D01*
X0118901Y0045430D02*
X0120753Y0043578D01*
X0120753Y0046047D01*
X0122604Y0045430D02*
X0118901Y0045430D01*
X0119518Y0042364D02*
X0118901Y0041747D01*
X0118901Y0040513D01*
X0119518Y0039895D01*
X0121987Y0039895D01*
X0122604Y0040513D01*
X0122604Y0041747D01*
X0121987Y0042364D01*
X0119518Y0042364D01*
X0118901Y0038674D02*
X0118901Y0037440D01*
X0118901Y0038057D02*
X0122604Y0038057D01*
X0122604Y0037440D02*
X0122604Y0038674D01*
X0128901Y0038674D02*
X0128901Y0037440D01*
X0128901Y0038057D02*
X0132604Y0038057D01*
X0132604Y0037440D02*
X0132604Y0038674D01*
X0131987Y0039895D02*
X0129518Y0039895D01*
X0128901Y0040513D01*
X0128901Y0041747D01*
X0129518Y0042364D01*
X0131987Y0042364D01*
X0132604Y0041747D01*
X0132604Y0040513D01*
X0131987Y0039895D01*
X0132604Y0043578D02*
X0132604Y0046047D01*
X0132604Y0044813D02*
X0128901Y0044813D01*
X0130135Y0043578D01*
X0130753Y0047262D02*
X0130753Y0049113D01*
X0131370Y0049730D01*
X0131987Y0049730D01*
X0132604Y0049113D01*
X0132604Y0047879D01*
X0131987Y0047262D01*
X0130753Y0047262D01*
X0129518Y0048496D01*
X0128901Y0049730D01*
X0138901Y0049730D02*
X0138901Y0047262D01*
X0138901Y0044813D02*
X0142604Y0044813D01*
X0142604Y0046047D02*
X0142604Y0043578D01*
X0141987Y0042364D02*
X0139518Y0042364D01*
X0138901Y0041747D01*
X0138901Y0040513D01*
X0139518Y0039895D01*
X0141987Y0039895D01*
X0142604Y0040513D01*
X0142604Y0041747D01*
X0141987Y0042364D01*
X0140135Y0043578D02*
X0138901Y0044813D01*
X0141987Y0047262D02*
X0142604Y0047262D01*
X0141987Y0047262D02*
X0139518Y0049730D01*
X0138901Y0049730D01*
X0148901Y0046047D02*
X0148901Y0043578D01*
X0150753Y0043578D01*
X0150135Y0044813D01*
X0150135Y0045430D01*
X0150753Y0046047D01*
X0151987Y0046047D01*
X0152604Y0045430D01*
X0152604Y0044196D01*
X0151987Y0043578D01*
X0151987Y0042364D02*
X0149518Y0042364D01*
X0148901Y0041747D01*
X0148901Y0040513D01*
X0149518Y0039895D01*
X0151987Y0039895D01*
X0152604Y0040513D01*
X0152604Y0041747D01*
X0151987Y0042364D01*
X0152604Y0038674D02*
X0152604Y0037440D01*
X0152604Y0038057D02*
X0148901Y0038057D01*
X0148901Y0037440D02*
X0148901Y0038674D01*
X0142604Y0038674D02*
X0142604Y0037440D01*
X0142604Y0038057D02*
X0138901Y0038057D01*
X0138901Y0037440D02*
X0138901Y0038674D01*
X0158901Y0038674D02*
X0158901Y0037440D01*
X0158901Y0038057D02*
X0162604Y0038057D01*
X0162604Y0037440D02*
X0162604Y0038674D01*
X0161987Y0039895D02*
X0162604Y0040513D01*
X0162604Y0041747D01*
X0161987Y0042364D01*
X0159518Y0042364D01*
X0158901Y0041747D01*
X0158901Y0040513D01*
X0159518Y0039895D01*
X0161987Y0039895D01*
X0162604Y0043578D02*
X0162604Y0046047D01*
X0162604Y0044813D02*
X0158901Y0044813D01*
X0160135Y0043578D01*
X0160135Y0047262D02*
X0159518Y0047262D01*
X0158901Y0047879D01*
X0158901Y0049113D01*
X0159518Y0049730D01*
X0160135Y0049730D01*
X0160753Y0049113D01*
X0160753Y0047879D01*
X0160135Y0047262D01*
X0160753Y0047879D02*
X0161370Y0047262D01*
X0161987Y0047262D01*
X0162604Y0047879D01*
X0162604Y0049113D01*
X0161987Y0049730D01*
X0161370Y0049730D01*
X0160753Y0049113D01*
X0168901Y0049113D02*
X0168901Y0047879D01*
X0169518Y0047262D01*
X0170135Y0047262D01*
X0170753Y0047879D01*
X0170753Y0049730D01*
X0171987Y0049730D02*
X0169518Y0049730D01*
X0168901Y0049113D01*
X0171987Y0049730D02*
X0172604Y0049113D01*
X0172604Y0047879D01*
X0171987Y0047262D01*
X0172604Y0046047D02*
X0172604Y0043578D01*
X0172604Y0044813D02*
X0168901Y0044813D01*
X0170135Y0043578D01*
X0169518Y0042364D02*
X0168901Y0041747D01*
X0168901Y0040513D01*
X0169518Y0039895D01*
X0171987Y0039895D01*
X0172604Y0040513D01*
X0172604Y0041747D01*
X0171987Y0042364D01*
X0169518Y0042364D01*
X0168901Y0038674D02*
X0168901Y0037440D01*
X0168901Y0038057D02*
X0172604Y0038057D01*
X0172604Y0037440D02*
X0172604Y0038674D01*
X0178901Y0038674D02*
X0178901Y0037440D01*
X0178901Y0038057D02*
X0182604Y0038057D01*
X0182604Y0037440D02*
X0182604Y0038674D01*
X0181987Y0039895D02*
X0179518Y0039895D01*
X0178901Y0040513D01*
X0178901Y0041747D01*
X0179518Y0042364D01*
X0181987Y0042364D01*
X0182604Y0041747D01*
X0182604Y0040513D01*
X0181987Y0039895D01*
X0182604Y0043578D02*
X0180135Y0046047D01*
X0179518Y0046047D01*
X0178901Y0045430D01*
X0178901Y0044196D01*
X0179518Y0043578D01*
X0182604Y0043578D02*
X0182604Y0046047D01*
X0182604Y0047262D02*
X0182604Y0049730D01*
X0182604Y0048496D02*
X0178901Y0048496D01*
X0180135Y0047262D01*
X0188901Y0045430D02*
X0189518Y0046047D01*
X0190135Y0046047D01*
X0190753Y0045430D01*
X0191370Y0046047D01*
X0191987Y0046047D01*
X0192604Y0045430D01*
X0192604Y0044196D01*
X0191987Y0043578D01*
X0191987Y0042364D02*
X0189518Y0042364D01*
X0188901Y0041747D01*
X0188901Y0040513D01*
X0189518Y0039895D01*
X0191987Y0039895D01*
X0192604Y0040513D01*
X0192604Y0041747D01*
X0191987Y0042364D01*
X0190753Y0044813D02*
X0190753Y0045430D01*
X0188901Y0045430D02*
X0188901Y0044196D01*
X0189518Y0043578D01*
X0188901Y0038674D02*
X0188901Y0037440D01*
X0188901Y0038057D02*
X0192604Y0038057D01*
X0192604Y0037440D02*
X0192604Y0038674D01*
X0198901Y0038674D02*
X0198901Y0037440D01*
X0198901Y0038057D02*
X0202604Y0038057D01*
X0202604Y0037440D02*
X0202604Y0038674D01*
X0201987Y0039895D02*
X0199518Y0039895D01*
X0198901Y0040513D01*
X0198901Y0041747D01*
X0199518Y0042364D01*
X0201987Y0042364D01*
X0202604Y0041747D01*
X0202604Y0040513D01*
X0201987Y0039895D01*
X0202604Y0043578D02*
X0202604Y0046047D01*
X0202604Y0044813D02*
X0198901Y0044813D01*
X0200135Y0043578D01*
X0208901Y0044196D02*
X0209518Y0043578D01*
X0208901Y0044196D02*
X0208901Y0045430D01*
X0209518Y0046047D01*
X0210135Y0046047D01*
X0212604Y0043578D01*
X0212604Y0046047D01*
X0212604Y0047262D02*
X0210135Y0049730D01*
X0209518Y0049730D01*
X0208901Y0049113D01*
X0208901Y0047879D01*
X0209518Y0047262D01*
X0212604Y0047262D02*
X0212604Y0049730D01*
X0218901Y0049113D02*
X0218901Y0047879D01*
X0219518Y0047262D01*
X0219518Y0046047D02*
X0218901Y0045430D01*
X0218901Y0044196D01*
X0219518Y0043578D01*
X0219518Y0042364D02*
X0218901Y0041747D01*
X0218901Y0040513D01*
X0219518Y0039895D01*
X0221987Y0039895D01*
X0222604Y0040513D01*
X0222604Y0041747D01*
X0221987Y0042364D01*
X0219518Y0042364D01*
X0222604Y0043578D02*
X0220135Y0046047D01*
X0219518Y0046047D01*
X0220753Y0048496D02*
X0220753Y0049113D01*
X0221370Y0049730D01*
X0221987Y0049730D01*
X0222604Y0049113D01*
X0222604Y0047879D01*
X0221987Y0047262D01*
X0222604Y0046047D02*
X0222604Y0043578D01*
X0222604Y0038674D02*
X0222604Y0037440D01*
X0222604Y0038057D02*
X0218901Y0038057D01*
X0218901Y0037440D02*
X0218901Y0038674D01*
X0212604Y0038674D02*
X0212604Y0037440D01*
X0212604Y0038057D02*
X0208901Y0038057D01*
X0208901Y0037440D02*
X0208901Y0038674D01*
X0209518Y0039895D02*
X0211987Y0039895D01*
X0212604Y0040513D01*
X0212604Y0041747D01*
X0211987Y0042364D01*
X0209518Y0042364D01*
X0208901Y0041747D01*
X0208901Y0040513D01*
X0209518Y0039895D01*
X0218901Y0049113D02*
X0219518Y0049730D01*
X0220135Y0049730D01*
X0220753Y0049113D01*
X0220831Y0107204D02*
X0220831Y0108438D01*
X0218980Y0107204D02*
X0222683Y0107204D01*
X0222683Y0109672D01*
X0222683Y0110887D02*
X0218980Y0110887D01*
X0222683Y0113356D01*
X0218980Y0113356D01*
X0218980Y0109672D02*
X0218980Y0107204D01*
X0212683Y0108438D02*
X0211449Y0107204D01*
X0208980Y0107204D01*
X0208980Y0109672D02*
X0211449Y0109672D01*
X0212683Y0108438D01*
X0212683Y0110887D02*
X0208980Y0110887D01*
X0208980Y0112738D01*
X0209597Y0113356D01*
X0210831Y0113356D01*
X0211449Y0112738D01*
X0211449Y0110887D01*
X0202683Y0110887D02*
X0198980Y0110887D01*
X0202683Y0113356D01*
X0198980Y0113356D01*
X0198980Y0109672D02*
X0201449Y0109672D01*
X0202683Y0108438D01*
X0201449Y0107204D01*
X0198980Y0107204D01*
X0192683Y0107204D02*
X0192683Y0108438D01*
X0192683Y0107821D02*
X0188980Y0107821D01*
X0188980Y0107204D02*
X0188980Y0108438D01*
X0189597Y0109659D02*
X0188980Y0110276D01*
X0188980Y0111511D01*
X0189597Y0112128D01*
X0192066Y0112128D01*
X0192683Y0111511D01*
X0192683Y0110276D01*
X0192066Y0109659D01*
X0189597Y0109659D01*
X0189597Y0113342D02*
X0188980Y0113959D01*
X0188980Y0115194D01*
X0189597Y0115811D01*
X0190214Y0115811D01*
X0190831Y0115194D01*
X0191449Y0115811D01*
X0192066Y0115811D01*
X0192683Y0115194D01*
X0192683Y0113959D01*
X0192066Y0113342D01*
X0190831Y0114577D02*
X0190831Y0115194D01*
X0190831Y0117025D02*
X0188980Y0118877D01*
X0192683Y0118877D01*
X0190831Y0119494D02*
X0190831Y0117025D01*
X0182683Y0117643D02*
X0182066Y0117025D01*
X0182683Y0117643D02*
X0182683Y0118877D01*
X0182066Y0119494D01*
X0180831Y0119494D01*
X0180214Y0118877D01*
X0180214Y0118260D01*
X0180831Y0117025D01*
X0178980Y0117025D01*
X0178980Y0119494D01*
X0179597Y0115811D02*
X0180214Y0115811D01*
X0180831Y0115194D01*
X0181449Y0115811D01*
X0182066Y0115811D01*
X0182683Y0115194D01*
X0182683Y0113959D01*
X0182066Y0113342D01*
X0182066Y0112128D02*
X0179597Y0112128D01*
X0178980Y0111511D01*
X0178980Y0110276D01*
X0179597Y0109659D01*
X0182066Y0109659D01*
X0182683Y0110276D01*
X0182683Y0111511D01*
X0182066Y0112128D01*
X0180831Y0114577D02*
X0180831Y0115194D01*
X0179597Y0115811D02*
X0178980Y0115194D01*
X0178980Y0113959D01*
X0179597Y0113342D01*
X0178980Y0108438D02*
X0178980Y0107204D01*
X0178980Y0107821D02*
X0182683Y0107821D01*
X0182683Y0107204D02*
X0182683Y0108438D01*
X0172683Y0108438D02*
X0172683Y0107204D01*
X0172683Y0107821D02*
X0168980Y0107821D01*
X0168980Y0107204D02*
X0168980Y0108438D01*
X0169597Y0109659D02*
X0172066Y0109659D01*
X0172683Y0110276D01*
X0172683Y0111511D01*
X0172066Y0112128D01*
X0169597Y0112128D01*
X0168980Y0111511D01*
X0168980Y0110276D01*
X0169597Y0109659D01*
X0169597Y0113342D02*
X0168980Y0113959D01*
X0168980Y0115194D01*
X0169597Y0115811D01*
X0170214Y0115811D01*
X0170831Y0115194D01*
X0171449Y0115811D01*
X0172066Y0115811D01*
X0172683Y0115194D01*
X0172683Y0113959D01*
X0172066Y0113342D01*
X0170831Y0114577D02*
X0170831Y0115194D01*
X0169597Y0117025D02*
X0168980Y0117643D01*
X0168980Y0118877D01*
X0169597Y0119494D01*
X0170214Y0119494D01*
X0172683Y0117025D01*
X0172683Y0119494D01*
X0162683Y0118877D02*
X0162683Y0117643D01*
X0162066Y0117025D01*
X0162066Y0115811D02*
X0162683Y0115194D01*
X0162683Y0113959D01*
X0162066Y0113342D01*
X0162066Y0112128D02*
X0159597Y0112128D01*
X0158980Y0111511D01*
X0158980Y0110276D01*
X0159597Y0109659D01*
X0162066Y0109659D01*
X0162683Y0110276D01*
X0162683Y0111511D01*
X0162066Y0112128D01*
X0160831Y0114577D02*
X0160831Y0115194D01*
X0161449Y0115811D01*
X0162066Y0115811D01*
X0160831Y0115194D02*
X0160214Y0115811D01*
X0159597Y0115811D01*
X0158980Y0115194D01*
X0158980Y0113959D01*
X0159597Y0113342D01*
X0158980Y0108438D02*
X0158980Y0107204D01*
X0158980Y0107821D02*
X0162683Y0107821D01*
X0162683Y0107204D02*
X0162683Y0108438D01*
X0159597Y0117025D02*
X0158980Y0117643D01*
X0158980Y0118877D01*
X0159597Y0119494D01*
X0160214Y0119494D01*
X0160831Y0118877D01*
X0161449Y0119494D01*
X0162066Y0119494D01*
X0162683Y0118877D01*
X0160831Y0118877D02*
X0160831Y0118260D01*
X0152683Y0118877D02*
X0152683Y0117643D01*
X0152066Y0117025D01*
X0150831Y0117025D02*
X0150214Y0118260D01*
X0150214Y0118877D01*
X0150831Y0119494D01*
X0152066Y0119494D01*
X0152683Y0118877D01*
X0150831Y0117025D02*
X0148980Y0117025D01*
X0148980Y0119494D01*
X0149597Y0115811D02*
X0148980Y0115194D01*
X0148980Y0113959D01*
X0149597Y0113342D01*
X0149597Y0112128D02*
X0148980Y0111511D01*
X0148980Y0110276D01*
X0149597Y0109659D01*
X0152066Y0109659D01*
X0152683Y0110276D01*
X0152683Y0111511D01*
X0152066Y0112128D01*
X0149597Y0112128D01*
X0152683Y0113342D02*
X0150214Y0115811D01*
X0149597Y0115811D01*
X0152683Y0115811D02*
X0152683Y0113342D01*
X0152683Y0108438D02*
X0152683Y0107204D01*
X0152683Y0107821D02*
X0148980Y0107821D01*
X0148980Y0107204D02*
X0148980Y0108438D01*
X0091987Y0047275D02*
X0089518Y0047275D01*
X0088901Y0046658D01*
X0088901Y0044806D01*
X0092604Y0044806D01*
X0092604Y0046658D01*
X0091987Y0047275D01*
X0092604Y0043592D02*
X0088901Y0043592D01*
X0088901Y0041123D02*
X0092604Y0043592D01*
X0092604Y0041123D02*
X0088901Y0041123D01*
X0089518Y0039909D02*
X0088901Y0039291D01*
X0088901Y0038057D01*
X0089518Y0037440D01*
X0091987Y0037440D01*
X0092604Y0038057D01*
X0092604Y0039291D01*
X0091987Y0039909D01*
X0090753Y0039909D01*
X0090753Y0038674D01*
X0082604Y0038057D02*
X0081987Y0037440D01*
X0082604Y0038057D02*
X0082604Y0039291D01*
X0081987Y0039909D01*
X0081370Y0039909D01*
X0080753Y0039291D01*
X0080753Y0038674D01*
X0080753Y0039291D02*
X0080135Y0039909D01*
X0079518Y0039909D01*
X0078901Y0039291D01*
X0078901Y0038057D01*
X0079518Y0037440D01*
X0078901Y0041123D02*
X0081370Y0041123D01*
X0082604Y0042357D01*
X0081370Y0043592D01*
X0078901Y0043592D01*
X0079518Y0044806D02*
X0078901Y0045423D01*
X0078901Y0046658D01*
X0079518Y0047275D01*
X0080135Y0047275D01*
X0080753Y0046658D01*
X0081370Y0047275D01*
X0081987Y0047275D01*
X0082604Y0046658D01*
X0082604Y0045423D01*
X0081987Y0044806D01*
X0080753Y0046041D02*
X0080753Y0046658D01*
M02*
