G75*
%MOIN*%
%OFA0B0*%
%FSLAX25Y25*%
%IPPOS*%
%LPD*%
%AMOC8*
5,1,8,0,0,1.08239X$1,22.5*
%
%ADD10OC8,0.06000*%
%ADD11OC8,0.05600*%
%ADD12C,0.05600*%
%ADD13C,0.01200*%
%ADD14C,0.06737*%
%ADD15C,0.05200*%
%ADD16C,0.06000*%
%ADD17C,0.08400*%
D10*
X0055195Y0056384D03*
X0075195Y0056384D03*
X0143395Y0142084D03*
X0163395Y0142084D03*
X0163395Y0166284D03*
X0143395Y0166284D03*
X0109895Y0214884D03*
X0089895Y0214884D03*
X0093995Y0241984D03*
X0098995Y0249484D03*
X0103995Y0241984D03*
X0070795Y0239984D03*
X0060795Y0239984D03*
X0143395Y0228884D03*
X0163395Y0228884D03*
X0217695Y0180484D03*
X0211495Y0163584D03*
X0231495Y0163584D03*
X0237695Y0180484D03*
X0242495Y0220984D03*
X0222495Y0220984D03*
X0224795Y0139684D03*
X0204795Y0139684D03*
D11*
X0111395Y0164784D03*
D12*
X0104395Y0164784D03*
D13*
X0111414Y0189544D02*
X0110814Y0188944D01*
X0109139Y0190015D01*
X0108712Y0191956D01*
X0109783Y0193631D01*
X0111724Y0194058D01*
X0113399Y0192987D01*
X0113826Y0191046D01*
X0112755Y0189371D01*
X0110814Y0188944D01*
X0110985Y0189903D01*
X0109938Y0190573D01*
X0109671Y0191785D01*
X0110341Y0192832D01*
X0111553Y0193099D01*
X0112600Y0192429D01*
X0112867Y0191217D01*
X0112197Y0190170D01*
X0110985Y0189903D01*
X0111156Y0190862D01*
X0110737Y0191130D01*
X0110630Y0191614D01*
X0110898Y0192033D01*
X0111382Y0192140D01*
X0111801Y0191872D01*
X0111908Y0191388D01*
X0111640Y0190969D01*
X0111156Y0190862D01*
X0109266Y0199311D02*
X0108666Y0198711D01*
X0106991Y0199782D01*
X0106564Y0201723D01*
X0107635Y0203398D01*
X0109576Y0203825D01*
X0111251Y0202754D01*
X0111678Y0200813D01*
X0110607Y0199138D01*
X0108666Y0198711D01*
X0108837Y0199670D01*
X0107790Y0200340D01*
X0107523Y0201552D01*
X0108193Y0202599D01*
X0109405Y0202866D01*
X0110452Y0202196D01*
X0110719Y0200984D01*
X0110049Y0199937D01*
X0108837Y0199670D01*
X0109008Y0200629D01*
X0108589Y0200897D01*
X0108482Y0201381D01*
X0108750Y0201800D01*
X0109234Y0201907D01*
X0109653Y0201639D01*
X0109760Y0201155D01*
X0109492Y0200736D01*
X0109008Y0200629D01*
D14*
X0088164Y0166384D02*
X0082227Y0166384D01*
X0082227Y0156384D02*
X0088164Y0156384D01*
X0071395Y0200016D02*
X0071395Y0205953D01*
X0061395Y0205953D02*
X0061395Y0200016D01*
D15*
X0133395Y0208184D03*
X0143395Y0208184D03*
X0153395Y0208184D03*
X0153495Y0180984D03*
X0143495Y0180984D03*
X0133495Y0180984D03*
X0133395Y0154484D03*
X0143395Y0154484D03*
X0153395Y0154484D03*
X0153295Y0241784D03*
X0143295Y0241784D03*
X0133295Y0241784D03*
D16*
X0172895Y0240684D02*
X0172895Y0235484D01*
X0182895Y0235484D02*
X0182895Y0240684D01*
X0192895Y0240684D02*
X0192895Y0235484D01*
X0192895Y0204584D02*
X0192895Y0199384D01*
X0182895Y0199384D02*
X0182895Y0204584D01*
X0172895Y0204584D02*
X0172895Y0199384D01*
X0172595Y0173684D02*
X0172595Y0168484D01*
X0182595Y0168484D02*
X0182595Y0173684D01*
X0192595Y0173684D02*
X0192595Y0168484D01*
X0193495Y0148684D02*
X0193495Y0143484D01*
X0183495Y0143484D02*
X0183495Y0148684D01*
X0173495Y0148684D02*
X0173495Y0143484D01*
D17*
X0170156Y0125597D03*
X0160156Y0125597D03*
X0150156Y0125597D03*
X0140156Y0125597D03*
X0130156Y0125597D03*
X0120156Y0125597D03*
X0110156Y0125597D03*
X0100156Y0125597D03*
X0090156Y0125597D03*
X0080156Y0125597D03*
X0080156Y0028077D03*
X0090156Y0028077D03*
X0100156Y0028077D03*
X0110156Y0028077D03*
X0120156Y0028077D03*
X0130156Y0028077D03*
X0140156Y0028077D03*
X0150156Y0028077D03*
X0160156Y0028077D03*
X0170156Y0028077D03*
X0180156Y0028077D03*
X0190156Y0028077D03*
X0200156Y0028077D03*
X0210156Y0028077D03*
X0220156Y0028077D03*
X0220156Y0125597D03*
X0210156Y0125597D03*
X0200156Y0125597D03*
X0190156Y0125597D03*
X0180156Y0125597D03*
M02*
