%
M48
M72
T01C0.02400
T02C0.02800
T03C0.03200
T04C0.03937
%
T01
X98500Y143974
X108500Y143974
X118500Y143974
X118600Y170474
X108600Y170474
X98600Y170474
X98500Y197674
X108500Y197674
X118500Y197674
X118400Y231274
X108400Y231274
X98400Y231274
T02
X76500Y154274
X69500Y154274
T03
X20300Y45874
X40300Y45874
X108500Y131574
X128500Y131574
X138600Y135574
X148600Y135574
X158600Y135574
X169900Y129174
X189900Y129174
X196600Y153074
X202800Y169974
X182800Y169974
X176600Y153074
X157700Y160574
X147700Y160574
X137700Y160574
X128500Y155774
X108500Y155774
X82600Y183718
X72600Y183630
X75000Y204374
X64900Y222274
X59900Y229774
X54900Y222274
X55000Y204374
X35900Y229474
X25900Y229474
X108500Y218374
X128500Y218374
X138000Y227574
X148000Y227574
X158000Y227574
X187600Y210474
X207600Y210474
X158000Y191474
X148000Y191474
X138000Y191474
T04
X135261Y115087
X145261Y115087
X155261Y115087
X165261Y115087
X175261Y115087
X185261Y115087
X125261Y115087
X115261Y115087
X105261Y115087
X95261Y115087
X85261Y115087
X75261Y115087
X65261Y115087
X55261Y115087
X45261Y115087
X50300Y145874
X50300Y155874
X36500Y192474
X26500Y192474
X45261Y17567
X55261Y17567
X65261Y17567
X75261Y17567
X85261Y17567
X95261Y17567
X105261Y17567
X115261Y17567
X125261Y17567
X135261Y17567
X145261Y17567
X155261Y17567
X165261Y17567
X175261Y17567
X185261Y17567
M30
