G75*
%MOIN*%
%OFA0B0*%
%FSLAX25Y25*%
%IPPOS*%
%LPD*%
%AMOC8*
5,1,8,0,0,1.08239X$1,22.5*
%
%ADD10C,0.00000*%
%ADD11C,0.00600*%
%ADD12C,0.01000*%
%ADD13C,0.00500*%
%ADD14C,0.00400*%
%ADD15R,0.08268X0.01575*%
%ADD16C,0.00300*%
D10*
X0001100Y0005674D02*
X0001100Y0250374D01*
X0216000Y0250374D01*
X0216000Y0005774D01*
X0001000Y0005774D01*
D11*
X0024300Y0042374D02*
X0025300Y0042374D01*
X0025800Y0042874D01*
X0034800Y0042874D01*
X0035300Y0042374D01*
X0036300Y0042374D01*
X0036360Y0042376D01*
X0036421Y0042381D01*
X0036480Y0042390D01*
X0036539Y0042403D01*
X0036598Y0042419D01*
X0036655Y0042439D01*
X0036710Y0042462D01*
X0036765Y0042489D01*
X0036817Y0042518D01*
X0036868Y0042551D01*
X0036917Y0042587D01*
X0036963Y0042625D01*
X0037007Y0042667D01*
X0037049Y0042711D01*
X0037087Y0042757D01*
X0037123Y0042806D01*
X0037156Y0042857D01*
X0037185Y0042909D01*
X0037212Y0042964D01*
X0037235Y0043019D01*
X0037255Y0043076D01*
X0037271Y0043135D01*
X0037284Y0043194D01*
X0037293Y0043253D01*
X0037298Y0043314D01*
X0037300Y0043374D01*
X0037300Y0048374D02*
X0037298Y0048434D01*
X0037293Y0048495D01*
X0037284Y0048554D01*
X0037271Y0048613D01*
X0037255Y0048672D01*
X0037235Y0048729D01*
X0037212Y0048784D01*
X0037185Y0048839D01*
X0037156Y0048891D01*
X0037123Y0048942D01*
X0037087Y0048991D01*
X0037049Y0049037D01*
X0037007Y0049081D01*
X0036963Y0049123D01*
X0036917Y0049161D01*
X0036868Y0049197D01*
X0036817Y0049230D01*
X0036765Y0049259D01*
X0036710Y0049286D01*
X0036655Y0049309D01*
X0036598Y0049329D01*
X0036539Y0049345D01*
X0036480Y0049358D01*
X0036421Y0049367D01*
X0036360Y0049372D01*
X0036300Y0049374D01*
X0035300Y0049374D01*
X0034800Y0048874D01*
X0025800Y0048874D01*
X0025300Y0049374D01*
X0024300Y0049374D01*
X0024240Y0049372D01*
X0024179Y0049367D01*
X0024120Y0049358D01*
X0024061Y0049345D01*
X0024002Y0049329D01*
X0023945Y0049309D01*
X0023890Y0049286D01*
X0023835Y0049259D01*
X0023783Y0049230D01*
X0023732Y0049197D01*
X0023683Y0049161D01*
X0023637Y0049123D01*
X0023593Y0049081D01*
X0023551Y0049037D01*
X0023513Y0048991D01*
X0023477Y0048942D01*
X0023444Y0048891D01*
X0023415Y0048839D01*
X0023388Y0048784D01*
X0023365Y0048729D01*
X0023345Y0048672D01*
X0023329Y0048613D01*
X0023316Y0048554D01*
X0023307Y0048495D01*
X0023302Y0048434D01*
X0023300Y0048374D01*
X0023300Y0043374D02*
X0023302Y0043314D01*
X0023307Y0043253D01*
X0023316Y0043194D01*
X0023329Y0043135D01*
X0023345Y0043076D01*
X0023365Y0043019D01*
X0023388Y0042964D01*
X0023415Y0042909D01*
X0023444Y0042857D01*
X0023477Y0042806D01*
X0023513Y0042757D01*
X0023551Y0042711D01*
X0023593Y0042667D01*
X0023637Y0042625D01*
X0023683Y0042587D01*
X0023732Y0042551D01*
X0023783Y0042518D01*
X0023835Y0042489D01*
X0023890Y0042462D01*
X0023945Y0042439D01*
X0024002Y0042419D01*
X0024061Y0042403D01*
X0024120Y0042390D01*
X0024179Y0042381D01*
X0024240Y0042376D01*
X0024300Y0042374D01*
X0091177Y0136691D02*
X0091179Y0136822D01*
X0091185Y0136954D01*
X0091195Y0137085D01*
X0091209Y0137216D01*
X0091227Y0137346D01*
X0091249Y0137475D01*
X0091274Y0137604D01*
X0091304Y0137732D01*
X0091338Y0137859D01*
X0091375Y0137986D01*
X0091416Y0138110D01*
X0091461Y0138234D01*
X0091510Y0138356D01*
X0091562Y0138477D01*
X0091618Y0138595D01*
X0091678Y0138713D01*
X0091741Y0138828D01*
X0091808Y0138941D01*
X0091878Y0139053D01*
X0091951Y0139162D01*
X0092027Y0139268D01*
X0092107Y0139373D01*
X0092190Y0139475D01*
X0092276Y0139574D01*
X0092365Y0139671D01*
X0092457Y0139765D01*
X0092552Y0139856D01*
X0092649Y0139945D01*
X0092749Y0140030D01*
X0092852Y0140112D01*
X0092957Y0140191D01*
X0093064Y0140267D01*
X0093174Y0140339D01*
X0093286Y0140408D01*
X0093400Y0140474D01*
X0093515Y0140536D01*
X0093633Y0140595D01*
X0093752Y0140650D01*
X0093873Y0140702D01*
X0093996Y0140749D01*
X0094120Y0140793D01*
X0094245Y0140834D01*
X0094371Y0140870D01*
X0094499Y0140903D01*
X0094627Y0140931D01*
X0094756Y0140956D01*
X0094886Y0140977D01*
X0095016Y0140994D01*
X0095147Y0141007D01*
X0095278Y0141016D01*
X0095409Y0141021D01*
X0095541Y0141022D01*
X0095672Y0141019D01*
X0095804Y0141012D01*
X0095935Y0141001D01*
X0096065Y0140986D01*
X0096195Y0140967D01*
X0096325Y0140944D01*
X0096453Y0140918D01*
X0096581Y0140887D01*
X0096708Y0140852D01*
X0096834Y0140814D01*
X0096958Y0140772D01*
X0097082Y0140726D01*
X0097203Y0140676D01*
X0097323Y0140623D01*
X0097442Y0140566D01*
X0097559Y0140506D01*
X0097673Y0140442D01*
X0097786Y0140374D01*
X0097897Y0140303D01*
X0098006Y0140229D01*
X0098112Y0140152D01*
X0098216Y0140071D01*
X0098317Y0139988D01*
X0098416Y0139901D01*
X0098512Y0139811D01*
X0098605Y0139718D01*
X0098696Y0139623D01*
X0098783Y0139525D01*
X0098868Y0139424D01*
X0098949Y0139321D01*
X0099027Y0139215D01*
X0099102Y0139107D01*
X0099174Y0138997D01*
X0099242Y0138885D01*
X0099307Y0138771D01*
X0099368Y0138654D01*
X0099426Y0138536D01*
X0099480Y0138416D01*
X0099531Y0138295D01*
X0099578Y0138172D01*
X0099621Y0138048D01*
X0099660Y0137923D01*
X0099696Y0137796D01*
X0099727Y0137668D01*
X0099755Y0137540D01*
X0099779Y0137411D01*
X0099799Y0137281D01*
X0099815Y0137150D01*
X0099827Y0137019D01*
X0099835Y0136888D01*
X0099839Y0136757D01*
X0099839Y0136625D01*
X0099835Y0136494D01*
X0099827Y0136363D01*
X0099815Y0136232D01*
X0099799Y0136101D01*
X0099779Y0135971D01*
X0099755Y0135842D01*
X0099727Y0135714D01*
X0099696Y0135586D01*
X0099660Y0135459D01*
X0099621Y0135334D01*
X0099578Y0135210D01*
X0099531Y0135087D01*
X0099480Y0134966D01*
X0099426Y0134846D01*
X0099368Y0134728D01*
X0099307Y0134611D01*
X0099242Y0134497D01*
X0099174Y0134385D01*
X0099102Y0134275D01*
X0099027Y0134167D01*
X0098949Y0134061D01*
X0098868Y0133958D01*
X0098783Y0133857D01*
X0098696Y0133759D01*
X0098605Y0133664D01*
X0098512Y0133571D01*
X0098416Y0133481D01*
X0098317Y0133394D01*
X0098216Y0133311D01*
X0098112Y0133230D01*
X0098006Y0133153D01*
X0097897Y0133079D01*
X0097786Y0133008D01*
X0097674Y0132940D01*
X0097559Y0132876D01*
X0097442Y0132816D01*
X0097323Y0132759D01*
X0097203Y0132706D01*
X0097082Y0132656D01*
X0096958Y0132610D01*
X0096834Y0132568D01*
X0096708Y0132530D01*
X0096581Y0132495D01*
X0096453Y0132464D01*
X0096325Y0132438D01*
X0096195Y0132415D01*
X0096065Y0132396D01*
X0095935Y0132381D01*
X0095804Y0132370D01*
X0095672Y0132363D01*
X0095541Y0132360D01*
X0095409Y0132361D01*
X0095278Y0132366D01*
X0095147Y0132375D01*
X0095016Y0132388D01*
X0094886Y0132405D01*
X0094756Y0132426D01*
X0094627Y0132451D01*
X0094499Y0132479D01*
X0094371Y0132512D01*
X0094245Y0132548D01*
X0094120Y0132589D01*
X0093996Y0132633D01*
X0093873Y0132680D01*
X0093752Y0132732D01*
X0093633Y0132787D01*
X0093515Y0132846D01*
X0093400Y0132908D01*
X0093286Y0132974D01*
X0093174Y0133043D01*
X0093064Y0133115D01*
X0092957Y0133191D01*
X0092852Y0133270D01*
X0092749Y0133352D01*
X0092649Y0133437D01*
X0092552Y0133526D01*
X0092457Y0133617D01*
X0092365Y0133711D01*
X0092276Y0133808D01*
X0092190Y0133907D01*
X0092107Y0134009D01*
X0092027Y0134114D01*
X0091951Y0134220D01*
X0091878Y0134329D01*
X0091808Y0134441D01*
X0091741Y0134554D01*
X0091678Y0134669D01*
X0091618Y0134787D01*
X0091562Y0134905D01*
X0091510Y0135026D01*
X0091461Y0135148D01*
X0091416Y0135272D01*
X0091375Y0135396D01*
X0091338Y0135523D01*
X0091304Y0135650D01*
X0091274Y0135778D01*
X0091249Y0135907D01*
X0091227Y0136036D01*
X0091209Y0136166D01*
X0091195Y0136297D01*
X0091185Y0136428D01*
X0091179Y0136560D01*
X0091177Y0136691D01*
X0112500Y0135074D02*
X0113500Y0135074D01*
X0114000Y0134574D01*
X0123000Y0134574D01*
X0123500Y0135074D01*
X0124500Y0135074D01*
X0124560Y0135072D01*
X0124621Y0135067D01*
X0124680Y0135058D01*
X0124739Y0135045D01*
X0124798Y0135029D01*
X0124855Y0135009D01*
X0124910Y0134986D01*
X0124965Y0134959D01*
X0125017Y0134930D01*
X0125068Y0134897D01*
X0125117Y0134861D01*
X0125163Y0134823D01*
X0125207Y0134781D01*
X0125249Y0134737D01*
X0125287Y0134691D01*
X0125323Y0134642D01*
X0125356Y0134591D01*
X0125385Y0134539D01*
X0125412Y0134484D01*
X0125435Y0134429D01*
X0125455Y0134372D01*
X0125471Y0134313D01*
X0125484Y0134254D01*
X0125493Y0134195D01*
X0125498Y0134134D01*
X0125500Y0134074D01*
X0125500Y0129074D02*
X0125498Y0129014D01*
X0125493Y0128953D01*
X0125484Y0128894D01*
X0125471Y0128835D01*
X0125455Y0128776D01*
X0125435Y0128719D01*
X0125412Y0128664D01*
X0125385Y0128609D01*
X0125356Y0128557D01*
X0125323Y0128506D01*
X0125287Y0128457D01*
X0125249Y0128411D01*
X0125207Y0128367D01*
X0125163Y0128325D01*
X0125117Y0128287D01*
X0125068Y0128251D01*
X0125017Y0128218D01*
X0124965Y0128189D01*
X0124910Y0128162D01*
X0124855Y0128139D01*
X0124798Y0128119D01*
X0124739Y0128103D01*
X0124680Y0128090D01*
X0124621Y0128081D01*
X0124560Y0128076D01*
X0124500Y0128074D01*
X0123500Y0128074D01*
X0123000Y0128574D01*
X0114000Y0128574D01*
X0113500Y0128074D01*
X0112500Y0128074D01*
X0112440Y0128076D01*
X0112379Y0128081D01*
X0112320Y0128090D01*
X0112261Y0128103D01*
X0112202Y0128119D01*
X0112145Y0128139D01*
X0112090Y0128162D01*
X0112035Y0128189D01*
X0111983Y0128218D01*
X0111932Y0128251D01*
X0111883Y0128287D01*
X0111837Y0128325D01*
X0111793Y0128367D01*
X0111751Y0128411D01*
X0111713Y0128457D01*
X0111677Y0128506D01*
X0111644Y0128557D01*
X0111615Y0128609D01*
X0111588Y0128664D01*
X0111565Y0128719D01*
X0111545Y0128776D01*
X0111529Y0128835D01*
X0111516Y0128894D01*
X0111507Y0128953D01*
X0111502Y0129014D01*
X0111500Y0129074D01*
X0111500Y0134074D02*
X0111502Y0134134D01*
X0111507Y0134195D01*
X0111516Y0134254D01*
X0111529Y0134313D01*
X0111545Y0134372D01*
X0111565Y0134429D01*
X0111588Y0134484D01*
X0111615Y0134539D01*
X0111644Y0134591D01*
X0111677Y0134642D01*
X0111713Y0134691D01*
X0111751Y0134737D01*
X0111793Y0134781D01*
X0111837Y0134823D01*
X0111883Y0134861D01*
X0111932Y0134897D01*
X0111983Y0134930D01*
X0112035Y0134959D01*
X0112090Y0134986D01*
X0112145Y0135009D01*
X0112202Y0135029D01*
X0112261Y0135045D01*
X0112320Y0135058D01*
X0112379Y0135067D01*
X0112440Y0135072D01*
X0112500Y0135074D01*
X0112500Y0152274D02*
X0113500Y0152274D01*
X0114000Y0152774D01*
X0123000Y0152774D01*
X0123500Y0152274D01*
X0124500Y0152274D01*
X0124560Y0152276D01*
X0124621Y0152281D01*
X0124680Y0152290D01*
X0124739Y0152303D01*
X0124798Y0152319D01*
X0124855Y0152339D01*
X0124910Y0152362D01*
X0124965Y0152389D01*
X0125017Y0152418D01*
X0125068Y0152451D01*
X0125117Y0152487D01*
X0125163Y0152525D01*
X0125207Y0152567D01*
X0125249Y0152611D01*
X0125287Y0152657D01*
X0125323Y0152706D01*
X0125356Y0152757D01*
X0125385Y0152809D01*
X0125412Y0152864D01*
X0125435Y0152919D01*
X0125455Y0152976D01*
X0125471Y0153035D01*
X0125484Y0153094D01*
X0125493Y0153153D01*
X0125498Y0153214D01*
X0125500Y0153274D01*
X0125500Y0158274D02*
X0125498Y0158334D01*
X0125493Y0158395D01*
X0125484Y0158454D01*
X0125471Y0158513D01*
X0125455Y0158572D01*
X0125435Y0158629D01*
X0125412Y0158684D01*
X0125385Y0158739D01*
X0125356Y0158791D01*
X0125323Y0158842D01*
X0125287Y0158891D01*
X0125249Y0158937D01*
X0125207Y0158981D01*
X0125163Y0159023D01*
X0125117Y0159061D01*
X0125068Y0159097D01*
X0125017Y0159130D01*
X0124965Y0159159D01*
X0124910Y0159186D01*
X0124855Y0159209D01*
X0124798Y0159229D01*
X0124739Y0159245D01*
X0124680Y0159258D01*
X0124621Y0159267D01*
X0124560Y0159272D01*
X0124500Y0159274D01*
X0123500Y0159274D01*
X0123000Y0158774D01*
X0114000Y0158774D01*
X0113500Y0159274D01*
X0112500Y0159274D01*
X0112440Y0159272D01*
X0112379Y0159267D01*
X0112320Y0159258D01*
X0112261Y0159245D01*
X0112202Y0159229D01*
X0112145Y0159209D01*
X0112090Y0159186D01*
X0112035Y0159159D01*
X0111983Y0159130D01*
X0111932Y0159097D01*
X0111883Y0159061D01*
X0111837Y0159023D01*
X0111793Y0158981D01*
X0111751Y0158937D01*
X0111713Y0158891D01*
X0111677Y0158842D01*
X0111644Y0158791D01*
X0111615Y0158739D01*
X0111588Y0158684D01*
X0111565Y0158629D01*
X0111545Y0158572D01*
X0111529Y0158513D01*
X0111516Y0158454D01*
X0111507Y0158395D01*
X0111502Y0158334D01*
X0111500Y0158274D01*
X0111500Y0153274D02*
X0111502Y0153214D01*
X0111507Y0153153D01*
X0111516Y0153094D01*
X0111529Y0153035D01*
X0111545Y0152976D01*
X0111565Y0152919D01*
X0111588Y0152864D01*
X0111615Y0152809D01*
X0111644Y0152757D01*
X0111677Y0152706D01*
X0111713Y0152657D01*
X0111751Y0152611D01*
X0111793Y0152567D01*
X0111837Y0152525D01*
X0111883Y0152487D01*
X0111932Y0152451D01*
X0111983Y0152418D01*
X0112035Y0152389D01*
X0112090Y0152362D01*
X0112145Y0152339D01*
X0112202Y0152319D01*
X0112261Y0152303D01*
X0112320Y0152290D01*
X0112379Y0152281D01*
X0112440Y0152276D01*
X0112500Y0152274D01*
X0117261Y0177757D02*
X0117263Y0177888D01*
X0117269Y0178020D01*
X0117279Y0178151D01*
X0117293Y0178282D01*
X0117311Y0178412D01*
X0117333Y0178541D01*
X0117358Y0178670D01*
X0117388Y0178798D01*
X0117422Y0178925D01*
X0117459Y0179052D01*
X0117500Y0179176D01*
X0117545Y0179300D01*
X0117594Y0179422D01*
X0117646Y0179543D01*
X0117702Y0179661D01*
X0117762Y0179779D01*
X0117825Y0179894D01*
X0117892Y0180007D01*
X0117962Y0180119D01*
X0118035Y0180228D01*
X0118111Y0180334D01*
X0118191Y0180439D01*
X0118274Y0180541D01*
X0118360Y0180640D01*
X0118449Y0180737D01*
X0118541Y0180831D01*
X0118636Y0180922D01*
X0118733Y0181011D01*
X0118833Y0181096D01*
X0118936Y0181178D01*
X0119041Y0181257D01*
X0119148Y0181333D01*
X0119258Y0181405D01*
X0119370Y0181474D01*
X0119484Y0181540D01*
X0119599Y0181602D01*
X0119717Y0181661D01*
X0119836Y0181716D01*
X0119957Y0181768D01*
X0120080Y0181815D01*
X0120204Y0181859D01*
X0120329Y0181900D01*
X0120455Y0181936D01*
X0120583Y0181969D01*
X0120711Y0181997D01*
X0120840Y0182022D01*
X0120970Y0182043D01*
X0121100Y0182060D01*
X0121231Y0182073D01*
X0121362Y0182082D01*
X0121493Y0182087D01*
X0121625Y0182088D01*
X0121756Y0182085D01*
X0121888Y0182078D01*
X0122019Y0182067D01*
X0122149Y0182052D01*
X0122279Y0182033D01*
X0122409Y0182010D01*
X0122537Y0181984D01*
X0122665Y0181953D01*
X0122792Y0181918D01*
X0122918Y0181880D01*
X0123042Y0181838D01*
X0123166Y0181792D01*
X0123287Y0181742D01*
X0123407Y0181689D01*
X0123526Y0181632D01*
X0123643Y0181572D01*
X0123757Y0181508D01*
X0123870Y0181440D01*
X0123981Y0181369D01*
X0124090Y0181295D01*
X0124196Y0181218D01*
X0124300Y0181137D01*
X0124401Y0181054D01*
X0124500Y0180967D01*
X0124596Y0180877D01*
X0124689Y0180784D01*
X0124780Y0180689D01*
X0124867Y0180591D01*
X0124952Y0180490D01*
X0125033Y0180387D01*
X0125111Y0180281D01*
X0125186Y0180173D01*
X0125258Y0180063D01*
X0125326Y0179951D01*
X0125391Y0179837D01*
X0125452Y0179720D01*
X0125510Y0179602D01*
X0125564Y0179482D01*
X0125615Y0179361D01*
X0125662Y0179238D01*
X0125705Y0179114D01*
X0125744Y0178989D01*
X0125780Y0178862D01*
X0125811Y0178734D01*
X0125839Y0178606D01*
X0125863Y0178477D01*
X0125883Y0178347D01*
X0125899Y0178216D01*
X0125911Y0178085D01*
X0125919Y0177954D01*
X0125923Y0177823D01*
X0125923Y0177691D01*
X0125919Y0177560D01*
X0125911Y0177429D01*
X0125899Y0177298D01*
X0125883Y0177167D01*
X0125863Y0177037D01*
X0125839Y0176908D01*
X0125811Y0176780D01*
X0125780Y0176652D01*
X0125744Y0176525D01*
X0125705Y0176400D01*
X0125662Y0176276D01*
X0125615Y0176153D01*
X0125564Y0176032D01*
X0125510Y0175912D01*
X0125452Y0175794D01*
X0125391Y0175677D01*
X0125326Y0175563D01*
X0125258Y0175451D01*
X0125186Y0175341D01*
X0125111Y0175233D01*
X0125033Y0175127D01*
X0124952Y0175024D01*
X0124867Y0174923D01*
X0124780Y0174825D01*
X0124689Y0174730D01*
X0124596Y0174637D01*
X0124500Y0174547D01*
X0124401Y0174460D01*
X0124300Y0174377D01*
X0124196Y0174296D01*
X0124090Y0174219D01*
X0123981Y0174145D01*
X0123870Y0174074D01*
X0123758Y0174006D01*
X0123643Y0173942D01*
X0123526Y0173882D01*
X0123407Y0173825D01*
X0123287Y0173772D01*
X0123166Y0173722D01*
X0123042Y0173676D01*
X0122918Y0173634D01*
X0122792Y0173596D01*
X0122665Y0173561D01*
X0122537Y0173530D01*
X0122409Y0173504D01*
X0122279Y0173481D01*
X0122149Y0173462D01*
X0122019Y0173447D01*
X0121888Y0173436D01*
X0121756Y0173429D01*
X0121625Y0173426D01*
X0121493Y0173427D01*
X0121362Y0173432D01*
X0121231Y0173441D01*
X0121100Y0173454D01*
X0120970Y0173471D01*
X0120840Y0173492D01*
X0120711Y0173517D01*
X0120583Y0173545D01*
X0120455Y0173578D01*
X0120329Y0173614D01*
X0120204Y0173655D01*
X0120080Y0173699D01*
X0119957Y0173746D01*
X0119836Y0173798D01*
X0119717Y0173853D01*
X0119599Y0173912D01*
X0119484Y0173974D01*
X0119370Y0174040D01*
X0119258Y0174109D01*
X0119148Y0174181D01*
X0119041Y0174257D01*
X0118936Y0174336D01*
X0118833Y0174418D01*
X0118733Y0174503D01*
X0118636Y0174592D01*
X0118541Y0174683D01*
X0118449Y0174777D01*
X0118360Y0174874D01*
X0118274Y0174973D01*
X0118191Y0175075D01*
X0118111Y0175180D01*
X0118035Y0175286D01*
X0117962Y0175395D01*
X0117892Y0175507D01*
X0117825Y0175620D01*
X0117762Y0175735D01*
X0117702Y0175853D01*
X0117646Y0175971D01*
X0117594Y0176092D01*
X0117545Y0176214D01*
X0117500Y0176338D01*
X0117459Y0176462D01*
X0117422Y0176589D01*
X0117388Y0176716D01*
X0117358Y0176844D01*
X0117333Y0176973D01*
X0117311Y0177102D01*
X0117293Y0177232D01*
X0117279Y0177363D01*
X0117269Y0177494D01*
X0117263Y0177626D01*
X0117261Y0177757D01*
X0117161Y0204957D02*
X0117163Y0205088D01*
X0117169Y0205220D01*
X0117179Y0205351D01*
X0117193Y0205482D01*
X0117211Y0205612D01*
X0117233Y0205741D01*
X0117258Y0205870D01*
X0117288Y0205998D01*
X0117322Y0206125D01*
X0117359Y0206252D01*
X0117400Y0206376D01*
X0117445Y0206500D01*
X0117494Y0206622D01*
X0117546Y0206743D01*
X0117602Y0206861D01*
X0117662Y0206979D01*
X0117725Y0207094D01*
X0117792Y0207207D01*
X0117862Y0207319D01*
X0117935Y0207428D01*
X0118011Y0207534D01*
X0118091Y0207639D01*
X0118174Y0207741D01*
X0118260Y0207840D01*
X0118349Y0207937D01*
X0118441Y0208031D01*
X0118536Y0208122D01*
X0118633Y0208211D01*
X0118733Y0208296D01*
X0118836Y0208378D01*
X0118941Y0208457D01*
X0119048Y0208533D01*
X0119158Y0208605D01*
X0119270Y0208674D01*
X0119384Y0208740D01*
X0119499Y0208802D01*
X0119617Y0208861D01*
X0119736Y0208916D01*
X0119857Y0208968D01*
X0119980Y0209015D01*
X0120104Y0209059D01*
X0120229Y0209100D01*
X0120355Y0209136D01*
X0120483Y0209169D01*
X0120611Y0209197D01*
X0120740Y0209222D01*
X0120870Y0209243D01*
X0121000Y0209260D01*
X0121131Y0209273D01*
X0121262Y0209282D01*
X0121393Y0209287D01*
X0121525Y0209288D01*
X0121656Y0209285D01*
X0121788Y0209278D01*
X0121919Y0209267D01*
X0122049Y0209252D01*
X0122179Y0209233D01*
X0122309Y0209210D01*
X0122437Y0209184D01*
X0122565Y0209153D01*
X0122692Y0209118D01*
X0122818Y0209080D01*
X0122942Y0209038D01*
X0123066Y0208992D01*
X0123187Y0208942D01*
X0123307Y0208889D01*
X0123426Y0208832D01*
X0123543Y0208772D01*
X0123657Y0208708D01*
X0123770Y0208640D01*
X0123881Y0208569D01*
X0123990Y0208495D01*
X0124096Y0208418D01*
X0124200Y0208337D01*
X0124301Y0208254D01*
X0124400Y0208167D01*
X0124496Y0208077D01*
X0124589Y0207984D01*
X0124680Y0207889D01*
X0124767Y0207791D01*
X0124852Y0207690D01*
X0124933Y0207587D01*
X0125011Y0207481D01*
X0125086Y0207373D01*
X0125158Y0207263D01*
X0125226Y0207151D01*
X0125291Y0207037D01*
X0125352Y0206920D01*
X0125410Y0206802D01*
X0125464Y0206682D01*
X0125515Y0206561D01*
X0125562Y0206438D01*
X0125605Y0206314D01*
X0125644Y0206189D01*
X0125680Y0206062D01*
X0125711Y0205934D01*
X0125739Y0205806D01*
X0125763Y0205677D01*
X0125783Y0205547D01*
X0125799Y0205416D01*
X0125811Y0205285D01*
X0125819Y0205154D01*
X0125823Y0205023D01*
X0125823Y0204891D01*
X0125819Y0204760D01*
X0125811Y0204629D01*
X0125799Y0204498D01*
X0125783Y0204367D01*
X0125763Y0204237D01*
X0125739Y0204108D01*
X0125711Y0203980D01*
X0125680Y0203852D01*
X0125644Y0203725D01*
X0125605Y0203600D01*
X0125562Y0203476D01*
X0125515Y0203353D01*
X0125464Y0203232D01*
X0125410Y0203112D01*
X0125352Y0202994D01*
X0125291Y0202877D01*
X0125226Y0202763D01*
X0125158Y0202651D01*
X0125086Y0202541D01*
X0125011Y0202433D01*
X0124933Y0202327D01*
X0124852Y0202224D01*
X0124767Y0202123D01*
X0124680Y0202025D01*
X0124589Y0201930D01*
X0124496Y0201837D01*
X0124400Y0201747D01*
X0124301Y0201660D01*
X0124200Y0201577D01*
X0124096Y0201496D01*
X0123990Y0201419D01*
X0123881Y0201345D01*
X0123770Y0201274D01*
X0123658Y0201206D01*
X0123543Y0201142D01*
X0123426Y0201082D01*
X0123307Y0201025D01*
X0123187Y0200972D01*
X0123066Y0200922D01*
X0122942Y0200876D01*
X0122818Y0200834D01*
X0122692Y0200796D01*
X0122565Y0200761D01*
X0122437Y0200730D01*
X0122309Y0200704D01*
X0122179Y0200681D01*
X0122049Y0200662D01*
X0121919Y0200647D01*
X0121788Y0200636D01*
X0121656Y0200629D01*
X0121525Y0200626D01*
X0121393Y0200627D01*
X0121262Y0200632D01*
X0121131Y0200641D01*
X0121000Y0200654D01*
X0120870Y0200671D01*
X0120740Y0200692D01*
X0120611Y0200717D01*
X0120483Y0200745D01*
X0120355Y0200778D01*
X0120229Y0200814D01*
X0120104Y0200855D01*
X0119980Y0200899D01*
X0119857Y0200946D01*
X0119736Y0200998D01*
X0119617Y0201053D01*
X0119499Y0201112D01*
X0119384Y0201174D01*
X0119270Y0201240D01*
X0119158Y0201309D01*
X0119048Y0201381D01*
X0118941Y0201457D01*
X0118836Y0201536D01*
X0118733Y0201618D01*
X0118633Y0201703D01*
X0118536Y0201792D01*
X0118441Y0201883D01*
X0118349Y0201977D01*
X0118260Y0202074D01*
X0118174Y0202173D01*
X0118091Y0202275D01*
X0118011Y0202380D01*
X0117935Y0202486D01*
X0117862Y0202595D01*
X0117792Y0202707D01*
X0117725Y0202820D01*
X0117662Y0202935D01*
X0117602Y0203053D01*
X0117546Y0203171D01*
X0117494Y0203292D01*
X0117445Y0203414D01*
X0117400Y0203538D01*
X0117359Y0203662D01*
X0117322Y0203789D01*
X0117288Y0203916D01*
X0117258Y0204044D01*
X0117233Y0204173D01*
X0117211Y0204302D01*
X0117193Y0204432D01*
X0117179Y0204563D01*
X0117169Y0204694D01*
X0117163Y0204826D01*
X0117161Y0204957D01*
X0113500Y0214874D02*
X0114000Y0215374D01*
X0123000Y0215374D01*
X0123500Y0214874D01*
X0124500Y0214874D01*
X0124560Y0214876D01*
X0124621Y0214881D01*
X0124680Y0214890D01*
X0124739Y0214903D01*
X0124798Y0214919D01*
X0124855Y0214939D01*
X0124910Y0214962D01*
X0124965Y0214989D01*
X0125017Y0215018D01*
X0125068Y0215051D01*
X0125117Y0215087D01*
X0125163Y0215125D01*
X0125207Y0215167D01*
X0125249Y0215211D01*
X0125287Y0215257D01*
X0125323Y0215306D01*
X0125356Y0215357D01*
X0125385Y0215409D01*
X0125412Y0215464D01*
X0125435Y0215519D01*
X0125455Y0215576D01*
X0125471Y0215635D01*
X0125484Y0215694D01*
X0125493Y0215753D01*
X0125498Y0215814D01*
X0125500Y0215874D01*
X0125500Y0220874D02*
X0125498Y0220934D01*
X0125493Y0220995D01*
X0125484Y0221054D01*
X0125471Y0221113D01*
X0125455Y0221172D01*
X0125435Y0221229D01*
X0125412Y0221284D01*
X0125385Y0221339D01*
X0125356Y0221391D01*
X0125323Y0221442D01*
X0125287Y0221491D01*
X0125249Y0221537D01*
X0125207Y0221581D01*
X0125163Y0221623D01*
X0125117Y0221661D01*
X0125068Y0221697D01*
X0125017Y0221730D01*
X0124965Y0221759D01*
X0124910Y0221786D01*
X0124855Y0221809D01*
X0124798Y0221829D01*
X0124739Y0221845D01*
X0124680Y0221858D01*
X0124621Y0221867D01*
X0124560Y0221872D01*
X0124500Y0221874D01*
X0123500Y0221874D01*
X0123000Y0221374D01*
X0114000Y0221374D01*
X0113500Y0221874D01*
X0112500Y0221874D01*
X0112440Y0221872D01*
X0112379Y0221867D01*
X0112320Y0221858D01*
X0112261Y0221845D01*
X0112202Y0221829D01*
X0112145Y0221809D01*
X0112090Y0221786D01*
X0112035Y0221759D01*
X0111983Y0221730D01*
X0111932Y0221697D01*
X0111883Y0221661D01*
X0111837Y0221623D01*
X0111793Y0221581D01*
X0111751Y0221537D01*
X0111713Y0221491D01*
X0111677Y0221442D01*
X0111644Y0221391D01*
X0111615Y0221339D01*
X0111588Y0221284D01*
X0111565Y0221229D01*
X0111545Y0221172D01*
X0111529Y0221113D01*
X0111516Y0221054D01*
X0111507Y0220995D01*
X0111502Y0220934D01*
X0111500Y0220874D01*
X0111500Y0215874D02*
X0111502Y0215814D01*
X0111507Y0215753D01*
X0111516Y0215694D01*
X0111529Y0215635D01*
X0111545Y0215576D01*
X0111565Y0215519D01*
X0111588Y0215464D01*
X0111615Y0215409D01*
X0111644Y0215357D01*
X0111677Y0215306D01*
X0111713Y0215257D01*
X0111751Y0215211D01*
X0111793Y0215167D01*
X0111837Y0215125D01*
X0111883Y0215087D01*
X0111932Y0215051D01*
X0111983Y0215018D01*
X0112035Y0214989D01*
X0112090Y0214962D01*
X0112145Y0214939D01*
X0112202Y0214919D01*
X0112261Y0214903D01*
X0112320Y0214890D01*
X0112379Y0214881D01*
X0112440Y0214876D01*
X0112500Y0214874D01*
X0113500Y0214874D01*
X0117061Y0238557D02*
X0117063Y0238688D01*
X0117069Y0238820D01*
X0117079Y0238951D01*
X0117093Y0239082D01*
X0117111Y0239212D01*
X0117133Y0239341D01*
X0117158Y0239470D01*
X0117188Y0239598D01*
X0117222Y0239725D01*
X0117259Y0239852D01*
X0117300Y0239976D01*
X0117345Y0240100D01*
X0117394Y0240222D01*
X0117446Y0240343D01*
X0117502Y0240461D01*
X0117562Y0240579D01*
X0117625Y0240694D01*
X0117692Y0240807D01*
X0117762Y0240919D01*
X0117835Y0241028D01*
X0117911Y0241134D01*
X0117991Y0241239D01*
X0118074Y0241341D01*
X0118160Y0241440D01*
X0118249Y0241537D01*
X0118341Y0241631D01*
X0118436Y0241722D01*
X0118533Y0241811D01*
X0118633Y0241896D01*
X0118736Y0241978D01*
X0118841Y0242057D01*
X0118948Y0242133D01*
X0119058Y0242205D01*
X0119170Y0242274D01*
X0119284Y0242340D01*
X0119399Y0242402D01*
X0119517Y0242461D01*
X0119636Y0242516D01*
X0119757Y0242568D01*
X0119880Y0242615D01*
X0120004Y0242659D01*
X0120129Y0242700D01*
X0120255Y0242736D01*
X0120383Y0242769D01*
X0120511Y0242797D01*
X0120640Y0242822D01*
X0120770Y0242843D01*
X0120900Y0242860D01*
X0121031Y0242873D01*
X0121162Y0242882D01*
X0121293Y0242887D01*
X0121425Y0242888D01*
X0121556Y0242885D01*
X0121688Y0242878D01*
X0121819Y0242867D01*
X0121949Y0242852D01*
X0122079Y0242833D01*
X0122209Y0242810D01*
X0122337Y0242784D01*
X0122465Y0242753D01*
X0122592Y0242718D01*
X0122718Y0242680D01*
X0122842Y0242638D01*
X0122966Y0242592D01*
X0123087Y0242542D01*
X0123207Y0242489D01*
X0123326Y0242432D01*
X0123443Y0242372D01*
X0123557Y0242308D01*
X0123670Y0242240D01*
X0123781Y0242169D01*
X0123890Y0242095D01*
X0123996Y0242018D01*
X0124100Y0241937D01*
X0124201Y0241854D01*
X0124300Y0241767D01*
X0124396Y0241677D01*
X0124489Y0241584D01*
X0124580Y0241489D01*
X0124667Y0241391D01*
X0124752Y0241290D01*
X0124833Y0241187D01*
X0124911Y0241081D01*
X0124986Y0240973D01*
X0125058Y0240863D01*
X0125126Y0240751D01*
X0125191Y0240637D01*
X0125252Y0240520D01*
X0125310Y0240402D01*
X0125364Y0240282D01*
X0125415Y0240161D01*
X0125462Y0240038D01*
X0125505Y0239914D01*
X0125544Y0239789D01*
X0125580Y0239662D01*
X0125611Y0239534D01*
X0125639Y0239406D01*
X0125663Y0239277D01*
X0125683Y0239147D01*
X0125699Y0239016D01*
X0125711Y0238885D01*
X0125719Y0238754D01*
X0125723Y0238623D01*
X0125723Y0238491D01*
X0125719Y0238360D01*
X0125711Y0238229D01*
X0125699Y0238098D01*
X0125683Y0237967D01*
X0125663Y0237837D01*
X0125639Y0237708D01*
X0125611Y0237580D01*
X0125580Y0237452D01*
X0125544Y0237325D01*
X0125505Y0237200D01*
X0125462Y0237076D01*
X0125415Y0236953D01*
X0125364Y0236832D01*
X0125310Y0236712D01*
X0125252Y0236594D01*
X0125191Y0236477D01*
X0125126Y0236363D01*
X0125058Y0236251D01*
X0124986Y0236141D01*
X0124911Y0236033D01*
X0124833Y0235927D01*
X0124752Y0235824D01*
X0124667Y0235723D01*
X0124580Y0235625D01*
X0124489Y0235530D01*
X0124396Y0235437D01*
X0124300Y0235347D01*
X0124201Y0235260D01*
X0124100Y0235177D01*
X0123996Y0235096D01*
X0123890Y0235019D01*
X0123781Y0234945D01*
X0123670Y0234874D01*
X0123558Y0234806D01*
X0123443Y0234742D01*
X0123326Y0234682D01*
X0123207Y0234625D01*
X0123087Y0234572D01*
X0122966Y0234522D01*
X0122842Y0234476D01*
X0122718Y0234434D01*
X0122592Y0234396D01*
X0122465Y0234361D01*
X0122337Y0234330D01*
X0122209Y0234304D01*
X0122079Y0234281D01*
X0121949Y0234262D01*
X0121819Y0234247D01*
X0121688Y0234236D01*
X0121556Y0234229D01*
X0121425Y0234226D01*
X0121293Y0234227D01*
X0121162Y0234232D01*
X0121031Y0234241D01*
X0120900Y0234254D01*
X0120770Y0234271D01*
X0120640Y0234292D01*
X0120511Y0234317D01*
X0120383Y0234345D01*
X0120255Y0234378D01*
X0120129Y0234414D01*
X0120004Y0234455D01*
X0119880Y0234499D01*
X0119757Y0234546D01*
X0119636Y0234598D01*
X0119517Y0234653D01*
X0119399Y0234712D01*
X0119284Y0234774D01*
X0119170Y0234840D01*
X0119058Y0234909D01*
X0118948Y0234981D01*
X0118841Y0235057D01*
X0118736Y0235136D01*
X0118633Y0235218D01*
X0118533Y0235303D01*
X0118436Y0235392D01*
X0118341Y0235483D01*
X0118249Y0235577D01*
X0118160Y0235674D01*
X0118074Y0235773D01*
X0117991Y0235875D01*
X0117911Y0235980D01*
X0117835Y0236086D01*
X0117762Y0236195D01*
X0117692Y0236307D01*
X0117625Y0236420D01*
X0117562Y0236535D01*
X0117502Y0236653D01*
X0117446Y0236771D01*
X0117394Y0236892D01*
X0117345Y0237014D01*
X0117300Y0237138D01*
X0117259Y0237262D01*
X0117222Y0237389D01*
X0117188Y0237516D01*
X0117158Y0237644D01*
X0117133Y0237773D01*
X0117111Y0237902D01*
X0117093Y0238032D01*
X0117079Y0238163D01*
X0117069Y0238294D01*
X0117063Y0238426D01*
X0117061Y0238557D01*
X0089236Y0191076D02*
X0087536Y0191061D01*
X0087663Y0176462D01*
X0089363Y0176476D01*
X0089308Y0182776D01*
X0089291Y0184776D01*
X0089236Y0191076D01*
X0087536Y0191061D02*
X0085836Y0191046D01*
X0085963Y0176447D01*
X0065964Y0176272D01*
X0065837Y0190872D01*
X0085836Y0191046D01*
X0089291Y0184776D02*
X0089353Y0184775D01*
X0089414Y0184769D01*
X0089475Y0184761D01*
X0089535Y0184748D01*
X0089595Y0184732D01*
X0089653Y0184712D01*
X0089710Y0184688D01*
X0089765Y0184661D01*
X0089819Y0184631D01*
X0089871Y0184597D01*
X0089920Y0184561D01*
X0089967Y0184521D01*
X0090012Y0184478D01*
X0090054Y0184433D01*
X0090093Y0184386D01*
X0090129Y0184336D01*
X0090162Y0184284D01*
X0090191Y0184230D01*
X0090217Y0184174D01*
X0090240Y0184117D01*
X0090259Y0184058D01*
X0090275Y0183998D01*
X0090287Y0183938D01*
X0090295Y0183877D01*
X0090299Y0183816D01*
X0090300Y0183754D01*
X0090297Y0183692D01*
X0090289Y0183631D01*
X0090279Y0183571D01*
X0090264Y0183511D01*
X0090246Y0183452D01*
X0090224Y0183394D01*
X0090199Y0183338D01*
X0090170Y0183284D01*
X0090138Y0183231D01*
X0090103Y0183180D01*
X0090065Y0183132D01*
X0090024Y0183086D01*
X0089980Y0183043D01*
X0089934Y0183002D01*
X0089885Y0182965D01*
X0089834Y0182930D01*
X0089781Y0182899D01*
X0089726Y0182871D01*
X0089669Y0182847D01*
X0089611Y0182826D01*
X0089552Y0182808D01*
X0089492Y0182795D01*
X0089432Y0182785D01*
X0089370Y0182778D01*
X0089309Y0182776D01*
X0087663Y0176462D02*
X0085963Y0176447D01*
X0077550Y0189374D02*
X0077400Y0189370D01*
X0077250Y0189363D01*
X0077100Y0189352D01*
X0076951Y0189337D01*
X0076802Y0189318D01*
X0076653Y0189295D01*
X0076505Y0189268D01*
X0076358Y0189237D01*
X0076212Y0189202D01*
X0076067Y0189164D01*
X0075923Y0189122D01*
X0075780Y0189076D01*
X0075638Y0189026D01*
X0075498Y0188972D01*
X0075359Y0188915D01*
X0075222Y0188854D01*
X0075086Y0188790D01*
X0074952Y0188722D01*
X0074820Y0188650D01*
X0074690Y0188575D01*
X0074562Y0188497D01*
X0074436Y0188415D01*
X0074312Y0188330D01*
X0074190Y0188242D01*
X0074071Y0188150D01*
X0073954Y0188056D01*
X0073840Y0187958D01*
X0073728Y0187857D01*
X0073620Y0187754D01*
X0073513Y0187648D01*
X0073410Y0187539D01*
X0073310Y0187427D01*
X0073212Y0187313D01*
X0073118Y0187196D01*
X0071834Y0187086D02*
X0071919Y0187226D01*
X0072007Y0187364D01*
X0072099Y0187499D01*
X0072195Y0187633D01*
X0072293Y0187764D01*
X0072395Y0187893D01*
X0072500Y0188019D01*
X0072607Y0188142D01*
X0072718Y0188263D01*
X0072832Y0188381D01*
X0072949Y0188496D01*
X0073068Y0188609D01*
X0073190Y0188718D01*
X0073315Y0188825D01*
X0073442Y0188928D01*
X0073572Y0189028D01*
X0073704Y0189125D01*
X0073839Y0189219D01*
X0073976Y0189309D01*
X0074115Y0189396D01*
X0074256Y0189480D01*
X0074399Y0189560D01*
X0074544Y0189636D01*
X0074691Y0189709D01*
X0074839Y0189779D01*
X0074989Y0189844D01*
X0075141Y0189906D01*
X0075294Y0189965D01*
X0075449Y0190019D01*
X0075605Y0190070D01*
X0075762Y0190117D01*
X0075920Y0190160D01*
X0076079Y0190199D01*
X0076240Y0190234D01*
X0076401Y0190266D01*
X0076562Y0190293D01*
X0076724Y0190317D01*
X0076887Y0190336D01*
X0077050Y0190351D01*
X0077214Y0190363D01*
X0077378Y0190370D01*
X0077542Y0190374D01*
X0082152Y0180244D02*
X0082061Y0180126D01*
X0081966Y0180010D01*
X0081869Y0179897D01*
X0081769Y0179786D01*
X0081665Y0179679D01*
X0081559Y0179574D01*
X0081451Y0179471D01*
X0081339Y0179372D01*
X0081226Y0179276D01*
X0081109Y0179182D01*
X0080990Y0179092D01*
X0080869Y0179005D01*
X0080746Y0178921D01*
X0080620Y0178840D01*
X0080493Y0178763D01*
X0080363Y0178689D01*
X0080232Y0178618D01*
X0080099Y0178551D01*
X0079964Y0178487D01*
X0079827Y0178427D01*
X0079689Y0178371D01*
X0079549Y0178318D01*
X0079409Y0178269D01*
X0079266Y0178223D01*
X0079123Y0178181D01*
X0078979Y0178143D01*
X0078834Y0178109D01*
X0078688Y0178079D01*
X0078541Y0178052D01*
X0078393Y0178029D01*
X0078245Y0178011D01*
X0078097Y0177996D01*
X0077948Y0177985D01*
X0077799Y0177977D01*
X0077650Y0177974D01*
X0077622Y0181174D02*
X0077720Y0181177D01*
X0077818Y0181184D01*
X0077916Y0181194D01*
X0078013Y0181208D01*
X0078109Y0181226D01*
X0078205Y0181248D01*
X0078300Y0181274D01*
X0078393Y0181303D01*
X0078486Y0181336D01*
X0078577Y0181373D01*
X0078666Y0181413D01*
X0078754Y0181456D01*
X0078841Y0181504D01*
X0078925Y0181554D01*
X0079007Y0181608D01*
X0079087Y0181664D01*
X0079165Y0181724D01*
X0079240Y0181787D01*
X0079313Y0181853D01*
X0079383Y0181922D01*
X0079451Y0181993D01*
X0079515Y0182067D01*
X0079577Y0182143D01*
X0079635Y0182222D01*
X0079691Y0182303D01*
X0079743Y0182386D01*
X0079792Y0182472D01*
X0079837Y0182559D01*
X0079879Y0182647D01*
X0079918Y0182737D01*
X0079953Y0182829D01*
X0079984Y0182922D01*
X0080012Y0183016D01*
X0080036Y0183112D01*
X0080056Y0183208D01*
X0080073Y0183304D01*
X0080085Y0183402D01*
X0080094Y0183500D01*
X0080099Y0183598D01*
X0080100Y0183696D01*
X0083306Y0187186D02*
X0083218Y0187324D01*
X0083127Y0187461D01*
X0083033Y0187595D01*
X0082935Y0187727D01*
X0082835Y0187856D01*
X0082731Y0187983D01*
X0082624Y0188107D01*
X0082514Y0188229D01*
X0082401Y0188348D01*
X0082285Y0188464D01*
X0082166Y0188577D01*
X0082045Y0188687D01*
X0081921Y0188794D01*
X0081795Y0188899D01*
X0081665Y0189000D01*
X0081534Y0189098D01*
X0081400Y0189192D01*
X0081264Y0189284D01*
X0081125Y0189371D01*
X0080985Y0189456D01*
X0080842Y0189537D01*
X0080698Y0189615D01*
X0080552Y0189689D01*
X0080404Y0189759D01*
X0080254Y0189826D01*
X0080103Y0189889D01*
X0079950Y0189948D01*
X0079796Y0190004D01*
X0079640Y0190056D01*
X0079483Y0190104D01*
X0079325Y0190148D01*
X0079166Y0190188D01*
X0079006Y0190225D01*
X0078846Y0190257D01*
X0078684Y0190286D01*
X0078522Y0190310D01*
X0078359Y0190331D01*
X0078196Y0190347D01*
X0078033Y0190360D01*
X0077869Y0190369D01*
X0077705Y0190373D01*
X0077541Y0190374D01*
X0083385Y0180294D02*
X0083302Y0180156D01*
X0083216Y0180020D01*
X0083126Y0179886D01*
X0083034Y0179754D01*
X0082938Y0179625D01*
X0082839Y0179498D01*
X0082737Y0179373D01*
X0082632Y0179251D01*
X0082525Y0179131D01*
X0082414Y0179014D01*
X0082301Y0178900D01*
X0082185Y0178788D01*
X0082066Y0178679D01*
X0081945Y0178574D01*
X0081821Y0178471D01*
X0081695Y0178371D01*
X0081566Y0178274D01*
X0081435Y0178180D01*
X0081302Y0178090D01*
X0081167Y0178002D01*
X0081029Y0177918D01*
X0080890Y0177838D01*
X0080749Y0177760D01*
X0080606Y0177686D01*
X0080461Y0177616D01*
X0080315Y0177549D01*
X0080167Y0177485D01*
X0080017Y0177425D01*
X0079867Y0177369D01*
X0079715Y0177316D01*
X0079561Y0177267D01*
X0079407Y0177222D01*
X0079251Y0177181D01*
X0079095Y0177143D01*
X0078937Y0177109D01*
X0078779Y0177079D01*
X0078620Y0177052D01*
X0078461Y0177030D01*
X0078301Y0177011D01*
X0078141Y0176996D01*
X0077980Y0176985D01*
X0077819Y0176978D01*
X0077658Y0176974D01*
X0077496Y0176975D01*
X0077334Y0176979D01*
X0077173Y0176988D01*
X0077011Y0177000D01*
X0076850Y0177016D01*
X0076689Y0177036D01*
X0076529Y0177060D01*
X0076369Y0177088D01*
X0076210Y0177120D01*
X0076052Y0177155D01*
X0075895Y0177195D01*
X0075739Y0177238D01*
X0075584Y0177285D01*
X0075430Y0177335D01*
X0075277Y0177389D01*
X0075126Y0177447D01*
X0074976Y0177509D01*
X0074828Y0177574D01*
X0074681Y0177643D01*
X0074536Y0177715D01*
X0074393Y0177791D01*
X0074252Y0177871D01*
X0074113Y0177953D01*
X0073975Y0178039D01*
X0073840Y0178128D01*
X0073707Y0178221D01*
X0073576Y0178317D01*
X0073448Y0178416D01*
X0073322Y0178517D01*
X0073199Y0178622D01*
X0073078Y0178730D01*
X0072960Y0178841D01*
X0072844Y0178955D01*
X0072731Y0179071D01*
X0072622Y0179190D01*
X0072515Y0179312D01*
X0072411Y0179436D01*
X0072310Y0179563D01*
X0072212Y0179692D01*
X0072117Y0179823D01*
X0072026Y0179957D01*
X0071937Y0180093D01*
X0071852Y0180231D01*
X0073112Y0180160D02*
X0073206Y0180043D01*
X0073302Y0179930D01*
X0073402Y0179819D01*
X0073504Y0179710D01*
X0073609Y0179604D01*
X0073717Y0179502D01*
X0073827Y0179401D01*
X0073940Y0179304D01*
X0074056Y0179210D01*
X0074173Y0179119D01*
X0074294Y0179031D01*
X0074416Y0178946D01*
X0074541Y0178864D01*
X0074668Y0178786D01*
X0074796Y0178711D01*
X0074927Y0178640D01*
X0075060Y0178571D01*
X0075194Y0178507D01*
X0075330Y0178446D01*
X0075467Y0178388D01*
X0075606Y0178334D01*
X0075747Y0178284D01*
X0075888Y0178237D01*
X0076031Y0178194D01*
X0076175Y0178155D01*
X0076319Y0178120D01*
X0076465Y0178088D01*
X0076612Y0178060D01*
X0076759Y0178036D01*
X0076906Y0178016D01*
X0077054Y0178000D01*
X0077203Y0177988D01*
X0077352Y0177979D01*
X0077501Y0177975D01*
X0077650Y0177974D01*
X0082038Y0187251D02*
X0081944Y0187364D01*
X0081848Y0187475D01*
X0081749Y0187583D01*
X0081647Y0187688D01*
X0081542Y0187791D01*
X0081435Y0187891D01*
X0081325Y0187989D01*
X0081213Y0188083D01*
X0081098Y0188175D01*
X0080981Y0188263D01*
X0080862Y0188349D01*
X0080740Y0188431D01*
X0080617Y0188510D01*
X0080491Y0188586D01*
X0080364Y0188659D01*
X0080234Y0188729D01*
X0080103Y0188795D01*
X0079971Y0188858D01*
X0079837Y0188917D01*
X0079701Y0188973D01*
X0079564Y0189025D01*
X0079425Y0189074D01*
X0079286Y0189119D01*
X0079145Y0189161D01*
X0079003Y0189199D01*
X0078861Y0189233D01*
X0078717Y0189263D01*
X0078573Y0189290D01*
X0078428Y0189314D01*
X0078282Y0189333D01*
X0078137Y0189349D01*
X0077990Y0189361D01*
X0077844Y0189369D01*
X0077697Y0189373D01*
X0077550Y0189374D01*
X0071000Y0200874D02*
X0070000Y0200874D01*
X0069500Y0201374D01*
X0060500Y0201374D01*
X0060000Y0200874D01*
X0059000Y0200874D01*
X0058940Y0200876D01*
X0058879Y0200881D01*
X0058820Y0200890D01*
X0058761Y0200903D01*
X0058702Y0200919D01*
X0058645Y0200939D01*
X0058590Y0200962D01*
X0058535Y0200989D01*
X0058483Y0201018D01*
X0058432Y0201051D01*
X0058383Y0201087D01*
X0058337Y0201125D01*
X0058293Y0201167D01*
X0058251Y0201211D01*
X0058213Y0201257D01*
X0058177Y0201306D01*
X0058144Y0201357D01*
X0058115Y0201409D01*
X0058088Y0201464D01*
X0058065Y0201519D01*
X0058045Y0201576D01*
X0058029Y0201635D01*
X0058016Y0201694D01*
X0058007Y0201753D01*
X0058002Y0201814D01*
X0058000Y0201874D01*
X0058000Y0206874D02*
X0058002Y0206934D01*
X0058007Y0206995D01*
X0058016Y0207054D01*
X0058029Y0207113D01*
X0058045Y0207172D01*
X0058065Y0207229D01*
X0058088Y0207284D01*
X0058115Y0207339D01*
X0058144Y0207391D01*
X0058177Y0207442D01*
X0058213Y0207491D01*
X0058251Y0207537D01*
X0058293Y0207581D01*
X0058337Y0207623D01*
X0058383Y0207661D01*
X0058432Y0207697D01*
X0058483Y0207730D01*
X0058535Y0207759D01*
X0058590Y0207786D01*
X0058645Y0207809D01*
X0058702Y0207829D01*
X0058761Y0207845D01*
X0058820Y0207858D01*
X0058879Y0207867D01*
X0058940Y0207872D01*
X0059000Y0207874D01*
X0060000Y0207874D01*
X0060500Y0207374D01*
X0069500Y0207374D01*
X0070000Y0207874D01*
X0071000Y0207874D01*
X0071060Y0207872D01*
X0071121Y0207867D01*
X0071180Y0207858D01*
X0071239Y0207845D01*
X0071298Y0207829D01*
X0071355Y0207809D01*
X0071410Y0207786D01*
X0071465Y0207759D01*
X0071517Y0207730D01*
X0071568Y0207697D01*
X0071617Y0207661D01*
X0071663Y0207623D01*
X0071707Y0207581D01*
X0071749Y0207537D01*
X0071787Y0207491D01*
X0071823Y0207442D01*
X0071856Y0207391D01*
X0071885Y0207339D01*
X0071912Y0207284D01*
X0071935Y0207229D01*
X0071955Y0207172D01*
X0071971Y0207113D01*
X0071984Y0207054D01*
X0071993Y0206995D01*
X0071998Y0206934D01*
X0072000Y0206874D01*
X0072000Y0201874D02*
X0071998Y0201814D01*
X0071993Y0201753D01*
X0071984Y0201694D01*
X0071971Y0201635D01*
X0071955Y0201576D01*
X0071935Y0201519D01*
X0071912Y0201464D01*
X0071885Y0201409D01*
X0071856Y0201357D01*
X0071823Y0201306D01*
X0071787Y0201257D01*
X0071749Y0201211D01*
X0071707Y0201167D01*
X0071663Y0201125D01*
X0071617Y0201087D01*
X0071568Y0201051D01*
X0071517Y0201018D01*
X0071465Y0200989D01*
X0071410Y0200962D01*
X0071355Y0200939D01*
X0071298Y0200919D01*
X0071239Y0200903D01*
X0071180Y0200890D01*
X0071121Y0200881D01*
X0071060Y0200876D01*
X0071000Y0200874D01*
X0068148Y0215774D02*
X0051652Y0215774D01*
X0051026Y0221274D02*
X0049447Y0221274D01*
X0058774Y0221274D02*
X0061026Y0221274D01*
X0068148Y0215774D02*
X0068303Y0215976D01*
X0068453Y0216181D01*
X0068599Y0216390D01*
X0068739Y0216603D01*
X0068873Y0216818D01*
X0069003Y0217038D01*
X0069127Y0217260D01*
X0069246Y0217485D01*
X0069359Y0217713D01*
X0069467Y0217943D01*
X0069569Y0218176D01*
X0069666Y0218412D01*
X0069757Y0218649D01*
X0069842Y0218889D01*
X0069921Y0219131D01*
X0069994Y0219375D01*
X0070061Y0219620D01*
X0070122Y0219867D01*
X0070178Y0220116D01*
X0070227Y0220365D01*
X0070270Y0220616D01*
X0070307Y0220868D01*
X0070338Y0221121D01*
X0070363Y0221374D01*
X0070382Y0221628D01*
X0070395Y0221882D01*
X0070401Y0222136D01*
X0070401Y0222391D01*
X0070395Y0222645D01*
X0070383Y0222899D01*
X0070365Y0223153D01*
X0070341Y0223407D01*
X0070310Y0223659D01*
X0070274Y0223911D01*
X0070231Y0224162D01*
X0070182Y0224412D01*
X0070127Y0224660D01*
X0070066Y0224907D01*
X0070000Y0225153D01*
X0069927Y0225397D01*
X0069848Y0225639D01*
X0069764Y0225879D01*
X0069674Y0226117D01*
X0069578Y0226352D01*
X0069476Y0226586D01*
X0069369Y0226817D01*
X0069256Y0227045D01*
X0069137Y0227270D01*
X0069014Y0227492D01*
X0068884Y0227712D01*
X0068750Y0227928D01*
X0068610Y0228140D01*
X0068466Y0228350D01*
X0068316Y0228555D01*
X0068161Y0228758D01*
X0068002Y0228956D01*
X0067837Y0229150D01*
X0067668Y0229340D01*
X0067495Y0229527D01*
X0067317Y0229708D01*
X0067134Y0229886D01*
X0066948Y0230059D01*
X0066757Y0230228D01*
X0066562Y0230391D01*
X0066364Y0230550D01*
X0066161Y0230705D01*
X0065955Y0230854D01*
X0065745Y0230998D01*
X0065532Y0231137D01*
X0065316Y0231271D01*
X0065096Y0231399D01*
X0064873Y0231523D01*
X0064648Y0231640D01*
X0064419Y0231753D01*
X0064188Y0231859D01*
X0063955Y0231960D01*
X0063719Y0232056D01*
X0063481Y0232145D01*
X0063240Y0232229D01*
X0062998Y0232307D01*
X0056802Y0232307D02*
X0056560Y0232229D01*
X0056319Y0232145D01*
X0056081Y0232056D01*
X0055845Y0231960D01*
X0055612Y0231859D01*
X0055381Y0231753D01*
X0055152Y0231640D01*
X0054927Y0231523D01*
X0054704Y0231399D01*
X0054484Y0231271D01*
X0054268Y0231137D01*
X0054055Y0230998D01*
X0053845Y0230854D01*
X0053639Y0230705D01*
X0053436Y0230550D01*
X0053238Y0230391D01*
X0053043Y0230228D01*
X0052852Y0230059D01*
X0052666Y0229886D01*
X0052483Y0229708D01*
X0052305Y0229527D01*
X0052132Y0229340D01*
X0051963Y0229150D01*
X0051798Y0228956D01*
X0051639Y0228758D01*
X0051484Y0228555D01*
X0051334Y0228350D01*
X0051190Y0228140D01*
X0051050Y0227928D01*
X0050916Y0227712D01*
X0050786Y0227492D01*
X0050663Y0227270D01*
X0050544Y0227045D01*
X0050431Y0226817D01*
X0050324Y0226586D01*
X0050222Y0226352D01*
X0050126Y0226117D01*
X0050036Y0225879D01*
X0049952Y0225639D01*
X0049873Y0225397D01*
X0049800Y0225153D01*
X0049734Y0224907D01*
X0049673Y0224660D01*
X0049618Y0224412D01*
X0049569Y0224162D01*
X0049526Y0223911D01*
X0049490Y0223659D01*
X0049459Y0223407D01*
X0049435Y0223153D01*
X0049417Y0222899D01*
X0049405Y0222645D01*
X0049399Y0222391D01*
X0049399Y0222136D01*
X0049405Y0221882D01*
X0049418Y0221628D01*
X0049437Y0221374D01*
X0049462Y0221121D01*
X0049493Y0220868D01*
X0049530Y0220616D01*
X0049573Y0220365D01*
X0049622Y0220116D01*
X0049678Y0219867D01*
X0049739Y0219620D01*
X0049806Y0219375D01*
X0049879Y0219131D01*
X0049958Y0218889D01*
X0050043Y0218649D01*
X0050134Y0218412D01*
X0050231Y0218176D01*
X0050333Y0217943D01*
X0050441Y0217713D01*
X0050554Y0217485D01*
X0050673Y0217260D01*
X0050797Y0217038D01*
X0050927Y0216818D01*
X0051061Y0216603D01*
X0051201Y0216390D01*
X0051347Y0216181D01*
X0051497Y0215976D01*
X0051652Y0215774D01*
X0068774Y0221274D02*
X0070353Y0221274D01*
X0030900Y0223474D02*
X0030748Y0223476D01*
X0030597Y0223482D01*
X0030446Y0223491D01*
X0030294Y0223505D01*
X0030144Y0223522D01*
X0029994Y0223543D01*
X0029844Y0223568D01*
X0029695Y0223596D01*
X0029547Y0223629D01*
X0029400Y0223665D01*
X0029253Y0223704D01*
X0029108Y0223748D01*
X0028964Y0223795D01*
X0028821Y0223846D01*
X0028680Y0223900D01*
X0028539Y0223958D01*
X0028401Y0224019D01*
X0028264Y0224084D01*
X0028128Y0224153D01*
X0027995Y0224224D01*
X0027863Y0224299D01*
X0027733Y0224378D01*
X0027606Y0224459D01*
X0027480Y0224544D01*
X0027356Y0224632D01*
X0027235Y0224723D01*
X0027116Y0224817D01*
X0027000Y0224915D01*
X0026886Y0225015D01*
X0026774Y0225117D01*
X0026666Y0225223D01*
X0026560Y0225331D01*
X0026456Y0225442D01*
X0026356Y0225556D01*
X0026258Y0225672D01*
X0026164Y0225791D01*
X0030900Y0235474D02*
X0031054Y0235472D01*
X0031208Y0235466D01*
X0031362Y0235456D01*
X0031516Y0235442D01*
X0031669Y0235425D01*
X0031821Y0235403D01*
X0031973Y0235377D01*
X0032125Y0235348D01*
X0032275Y0235314D01*
X0032425Y0235277D01*
X0032573Y0235236D01*
X0032721Y0235191D01*
X0032867Y0235142D01*
X0033012Y0235090D01*
X0033155Y0235034D01*
X0033298Y0234974D01*
X0033438Y0234911D01*
X0033577Y0234844D01*
X0033714Y0234773D01*
X0033849Y0234699D01*
X0033982Y0234622D01*
X0034114Y0234541D01*
X0034243Y0234457D01*
X0034370Y0234369D01*
X0034494Y0234278D01*
X0034616Y0234185D01*
X0034736Y0234087D01*
X0034853Y0233987D01*
X0034968Y0233884D01*
X0035080Y0233778D01*
X0035189Y0233670D01*
X0035295Y0233558D01*
X0035399Y0233444D01*
X0035499Y0233327D01*
X0035597Y0233208D01*
X0035691Y0233086D01*
X0035782Y0232961D01*
X0030900Y0235474D02*
X0030750Y0235472D01*
X0030599Y0235466D01*
X0030449Y0235457D01*
X0030300Y0235444D01*
X0030150Y0235427D01*
X0030001Y0235406D01*
X0029853Y0235382D01*
X0029705Y0235354D01*
X0029558Y0235322D01*
X0029412Y0235287D01*
X0029267Y0235247D01*
X0029123Y0235205D01*
X0028980Y0235158D01*
X0028838Y0235108D01*
X0028697Y0235055D01*
X0028558Y0234998D01*
X0028420Y0234938D01*
X0028284Y0234874D01*
X0028150Y0234807D01*
X0028017Y0234736D01*
X0027886Y0234662D01*
X0027757Y0234585D01*
X0027630Y0234504D01*
X0027505Y0234421D01*
X0027382Y0234334D01*
X0027261Y0234245D01*
X0027143Y0234152D01*
X0027027Y0234056D01*
X0026913Y0233958D01*
X0026802Y0233857D01*
X0026693Y0233752D01*
X0026588Y0233646D01*
X0026484Y0233536D01*
X0026384Y0233424D01*
X0026286Y0233310D01*
X0026192Y0233193D01*
X0026100Y0233074D01*
X0030900Y0223474D02*
X0031052Y0223476D01*
X0031203Y0223482D01*
X0031354Y0223491D01*
X0031506Y0223505D01*
X0031656Y0223522D01*
X0031806Y0223543D01*
X0031956Y0223568D01*
X0032105Y0223596D01*
X0032253Y0223629D01*
X0032400Y0223665D01*
X0032547Y0223704D01*
X0032692Y0223748D01*
X0032836Y0223795D01*
X0032979Y0223846D01*
X0033120Y0223900D01*
X0033261Y0223958D01*
X0033399Y0224019D01*
X0033536Y0224084D01*
X0033672Y0224153D01*
X0033805Y0224224D01*
X0033937Y0224299D01*
X0034067Y0224378D01*
X0034194Y0224459D01*
X0034320Y0224544D01*
X0034444Y0224632D01*
X0034565Y0224723D01*
X0034684Y0224817D01*
X0034800Y0224915D01*
X0034914Y0225015D01*
X0035026Y0225117D01*
X0035134Y0225223D01*
X0035240Y0225331D01*
X0035344Y0225442D01*
X0035444Y0225556D01*
X0035542Y0225672D01*
X0035636Y0225791D01*
X0173900Y0132674D02*
X0174900Y0132674D01*
X0175400Y0132174D01*
X0184400Y0132174D01*
X0184900Y0132674D01*
X0185900Y0132674D01*
X0185960Y0132672D01*
X0186021Y0132667D01*
X0186080Y0132658D01*
X0186139Y0132645D01*
X0186198Y0132629D01*
X0186255Y0132609D01*
X0186310Y0132586D01*
X0186365Y0132559D01*
X0186417Y0132530D01*
X0186468Y0132497D01*
X0186517Y0132461D01*
X0186563Y0132423D01*
X0186607Y0132381D01*
X0186649Y0132337D01*
X0186687Y0132291D01*
X0186723Y0132242D01*
X0186756Y0132191D01*
X0186785Y0132139D01*
X0186812Y0132084D01*
X0186835Y0132029D01*
X0186855Y0131972D01*
X0186871Y0131913D01*
X0186884Y0131854D01*
X0186893Y0131795D01*
X0186898Y0131734D01*
X0186900Y0131674D01*
X0186900Y0126674D02*
X0186898Y0126614D01*
X0186893Y0126553D01*
X0186884Y0126494D01*
X0186871Y0126435D01*
X0186855Y0126376D01*
X0186835Y0126319D01*
X0186812Y0126264D01*
X0186785Y0126209D01*
X0186756Y0126157D01*
X0186723Y0126106D01*
X0186687Y0126057D01*
X0186649Y0126011D01*
X0186607Y0125967D01*
X0186563Y0125925D01*
X0186517Y0125887D01*
X0186468Y0125851D01*
X0186417Y0125818D01*
X0186365Y0125789D01*
X0186310Y0125762D01*
X0186255Y0125739D01*
X0186198Y0125719D01*
X0186139Y0125703D01*
X0186080Y0125690D01*
X0186021Y0125681D01*
X0185960Y0125676D01*
X0185900Y0125674D01*
X0184900Y0125674D01*
X0184400Y0126174D01*
X0175400Y0126174D01*
X0174900Y0125674D01*
X0173900Y0125674D01*
X0173840Y0125676D01*
X0173779Y0125681D01*
X0173720Y0125690D01*
X0173661Y0125703D01*
X0173602Y0125719D01*
X0173545Y0125739D01*
X0173490Y0125762D01*
X0173435Y0125789D01*
X0173383Y0125818D01*
X0173332Y0125851D01*
X0173283Y0125887D01*
X0173237Y0125925D01*
X0173193Y0125967D01*
X0173151Y0126011D01*
X0173113Y0126057D01*
X0173077Y0126106D01*
X0173044Y0126157D01*
X0173015Y0126209D01*
X0172988Y0126264D01*
X0172965Y0126319D01*
X0172945Y0126376D01*
X0172929Y0126435D01*
X0172916Y0126494D01*
X0172907Y0126553D01*
X0172902Y0126614D01*
X0172900Y0126674D01*
X0172900Y0131674D02*
X0172902Y0131734D01*
X0172907Y0131795D01*
X0172916Y0131854D01*
X0172929Y0131913D01*
X0172945Y0131972D01*
X0172965Y0132029D01*
X0172988Y0132084D01*
X0173015Y0132139D01*
X0173044Y0132191D01*
X0173077Y0132242D01*
X0173113Y0132291D01*
X0173151Y0132337D01*
X0173193Y0132381D01*
X0173237Y0132423D01*
X0173283Y0132461D01*
X0173332Y0132497D01*
X0173383Y0132530D01*
X0173435Y0132559D01*
X0173490Y0132586D01*
X0173545Y0132609D01*
X0173602Y0132629D01*
X0173661Y0132645D01*
X0173720Y0132658D01*
X0173779Y0132667D01*
X0173840Y0132672D01*
X0173900Y0132674D01*
X0180600Y0149574D02*
X0181600Y0149574D01*
X0182100Y0150074D01*
X0191100Y0150074D01*
X0191600Y0149574D01*
X0192600Y0149574D01*
X0192660Y0149576D01*
X0192721Y0149581D01*
X0192780Y0149590D01*
X0192839Y0149603D01*
X0192898Y0149619D01*
X0192955Y0149639D01*
X0193010Y0149662D01*
X0193065Y0149689D01*
X0193117Y0149718D01*
X0193168Y0149751D01*
X0193217Y0149787D01*
X0193263Y0149825D01*
X0193307Y0149867D01*
X0193349Y0149911D01*
X0193387Y0149957D01*
X0193423Y0150006D01*
X0193456Y0150057D01*
X0193485Y0150109D01*
X0193512Y0150164D01*
X0193535Y0150219D01*
X0193555Y0150276D01*
X0193571Y0150335D01*
X0193584Y0150394D01*
X0193593Y0150453D01*
X0193598Y0150514D01*
X0193600Y0150574D01*
X0193600Y0155574D02*
X0193598Y0155634D01*
X0193593Y0155695D01*
X0193584Y0155754D01*
X0193571Y0155813D01*
X0193555Y0155872D01*
X0193535Y0155929D01*
X0193512Y0155984D01*
X0193485Y0156039D01*
X0193456Y0156091D01*
X0193423Y0156142D01*
X0193387Y0156191D01*
X0193349Y0156237D01*
X0193307Y0156281D01*
X0193263Y0156323D01*
X0193217Y0156361D01*
X0193168Y0156397D01*
X0193117Y0156430D01*
X0193065Y0156459D01*
X0193010Y0156486D01*
X0192955Y0156509D01*
X0192898Y0156529D01*
X0192839Y0156545D01*
X0192780Y0156558D01*
X0192721Y0156567D01*
X0192660Y0156572D01*
X0192600Y0156574D01*
X0191600Y0156574D01*
X0191100Y0156074D01*
X0182100Y0156074D01*
X0181600Y0156574D01*
X0180600Y0156574D01*
X0180540Y0156572D01*
X0180479Y0156567D01*
X0180420Y0156558D01*
X0180361Y0156545D01*
X0180302Y0156529D01*
X0180245Y0156509D01*
X0180190Y0156486D01*
X0180135Y0156459D01*
X0180083Y0156430D01*
X0180032Y0156397D01*
X0179983Y0156361D01*
X0179937Y0156323D01*
X0179893Y0156281D01*
X0179851Y0156237D01*
X0179813Y0156191D01*
X0179777Y0156142D01*
X0179744Y0156091D01*
X0179715Y0156039D01*
X0179688Y0155984D01*
X0179665Y0155929D01*
X0179645Y0155872D01*
X0179629Y0155813D01*
X0179616Y0155754D01*
X0179607Y0155695D01*
X0179602Y0155634D01*
X0179600Y0155574D01*
X0179600Y0150574D02*
X0179602Y0150514D01*
X0179607Y0150453D01*
X0179616Y0150394D01*
X0179629Y0150335D01*
X0179645Y0150276D01*
X0179665Y0150219D01*
X0179688Y0150164D01*
X0179715Y0150109D01*
X0179744Y0150057D01*
X0179777Y0150006D01*
X0179813Y0149957D01*
X0179851Y0149911D01*
X0179893Y0149867D01*
X0179937Y0149825D01*
X0179983Y0149787D01*
X0180032Y0149751D01*
X0180083Y0149718D01*
X0180135Y0149689D01*
X0180190Y0149662D01*
X0180245Y0149639D01*
X0180302Y0149619D01*
X0180361Y0149603D01*
X0180420Y0149590D01*
X0180479Y0149581D01*
X0180540Y0149576D01*
X0180600Y0149574D01*
X0186800Y0166474D02*
X0187800Y0166474D01*
X0188300Y0166974D01*
X0197300Y0166974D01*
X0197800Y0166474D01*
X0198800Y0166474D01*
X0198860Y0166476D01*
X0198921Y0166481D01*
X0198980Y0166490D01*
X0199039Y0166503D01*
X0199098Y0166519D01*
X0199155Y0166539D01*
X0199210Y0166562D01*
X0199265Y0166589D01*
X0199317Y0166618D01*
X0199368Y0166651D01*
X0199417Y0166687D01*
X0199463Y0166725D01*
X0199507Y0166767D01*
X0199549Y0166811D01*
X0199587Y0166857D01*
X0199623Y0166906D01*
X0199656Y0166957D01*
X0199685Y0167009D01*
X0199712Y0167064D01*
X0199735Y0167119D01*
X0199755Y0167176D01*
X0199771Y0167235D01*
X0199784Y0167294D01*
X0199793Y0167353D01*
X0199798Y0167414D01*
X0199800Y0167474D01*
X0199800Y0172474D02*
X0199798Y0172534D01*
X0199793Y0172595D01*
X0199784Y0172654D01*
X0199771Y0172713D01*
X0199755Y0172772D01*
X0199735Y0172829D01*
X0199712Y0172884D01*
X0199685Y0172939D01*
X0199656Y0172991D01*
X0199623Y0173042D01*
X0199587Y0173091D01*
X0199549Y0173137D01*
X0199507Y0173181D01*
X0199463Y0173223D01*
X0199417Y0173261D01*
X0199368Y0173297D01*
X0199317Y0173330D01*
X0199265Y0173359D01*
X0199210Y0173386D01*
X0199155Y0173409D01*
X0199098Y0173429D01*
X0199039Y0173445D01*
X0198980Y0173458D01*
X0198921Y0173467D01*
X0198860Y0173472D01*
X0198800Y0173474D01*
X0197800Y0173474D01*
X0197300Y0172974D01*
X0188300Y0172974D01*
X0187800Y0173474D01*
X0186800Y0173474D01*
X0186740Y0173472D01*
X0186679Y0173467D01*
X0186620Y0173458D01*
X0186561Y0173445D01*
X0186502Y0173429D01*
X0186445Y0173409D01*
X0186390Y0173386D01*
X0186335Y0173359D01*
X0186283Y0173330D01*
X0186232Y0173297D01*
X0186183Y0173261D01*
X0186137Y0173223D01*
X0186093Y0173181D01*
X0186051Y0173137D01*
X0186013Y0173091D01*
X0185977Y0173042D01*
X0185944Y0172991D01*
X0185915Y0172939D01*
X0185888Y0172884D01*
X0185865Y0172829D01*
X0185845Y0172772D01*
X0185829Y0172713D01*
X0185816Y0172654D01*
X0185807Y0172595D01*
X0185802Y0172534D01*
X0185800Y0172474D01*
X0185800Y0167474D02*
X0185802Y0167414D01*
X0185807Y0167353D01*
X0185816Y0167294D01*
X0185829Y0167235D01*
X0185845Y0167176D01*
X0185865Y0167119D01*
X0185888Y0167064D01*
X0185915Y0167009D01*
X0185944Y0166957D01*
X0185977Y0166906D01*
X0186013Y0166857D01*
X0186051Y0166811D01*
X0186093Y0166767D01*
X0186137Y0166725D01*
X0186183Y0166687D01*
X0186232Y0166651D01*
X0186283Y0166618D01*
X0186335Y0166589D01*
X0186390Y0166562D01*
X0186445Y0166539D01*
X0186502Y0166519D01*
X0186561Y0166503D01*
X0186620Y0166490D01*
X0186679Y0166481D01*
X0186740Y0166476D01*
X0186800Y0166474D01*
X0191600Y0206974D02*
X0192600Y0206974D01*
X0193100Y0207474D01*
X0202100Y0207474D01*
X0202600Y0206974D01*
X0203600Y0206974D01*
X0203660Y0206976D01*
X0203721Y0206981D01*
X0203780Y0206990D01*
X0203839Y0207003D01*
X0203898Y0207019D01*
X0203955Y0207039D01*
X0204010Y0207062D01*
X0204065Y0207089D01*
X0204117Y0207118D01*
X0204168Y0207151D01*
X0204217Y0207187D01*
X0204263Y0207225D01*
X0204307Y0207267D01*
X0204349Y0207311D01*
X0204387Y0207357D01*
X0204423Y0207406D01*
X0204456Y0207457D01*
X0204485Y0207509D01*
X0204512Y0207564D01*
X0204535Y0207619D01*
X0204555Y0207676D01*
X0204571Y0207735D01*
X0204584Y0207794D01*
X0204593Y0207853D01*
X0204598Y0207914D01*
X0204600Y0207974D01*
X0204600Y0212974D02*
X0204598Y0213034D01*
X0204593Y0213095D01*
X0204584Y0213154D01*
X0204571Y0213213D01*
X0204555Y0213272D01*
X0204535Y0213329D01*
X0204512Y0213384D01*
X0204485Y0213439D01*
X0204456Y0213491D01*
X0204423Y0213542D01*
X0204387Y0213591D01*
X0204349Y0213637D01*
X0204307Y0213681D01*
X0204263Y0213723D01*
X0204217Y0213761D01*
X0204168Y0213797D01*
X0204117Y0213830D01*
X0204065Y0213859D01*
X0204010Y0213886D01*
X0203955Y0213909D01*
X0203898Y0213929D01*
X0203839Y0213945D01*
X0203780Y0213958D01*
X0203721Y0213967D01*
X0203660Y0213972D01*
X0203600Y0213974D01*
X0202600Y0213974D01*
X0202100Y0213474D01*
X0193100Y0213474D01*
X0192600Y0213974D01*
X0191600Y0213974D01*
X0191540Y0213972D01*
X0191479Y0213967D01*
X0191420Y0213958D01*
X0191361Y0213945D01*
X0191302Y0213929D01*
X0191245Y0213909D01*
X0191190Y0213886D01*
X0191135Y0213859D01*
X0191083Y0213830D01*
X0191032Y0213797D01*
X0190983Y0213761D01*
X0190937Y0213723D01*
X0190893Y0213681D01*
X0190851Y0213637D01*
X0190813Y0213591D01*
X0190777Y0213542D01*
X0190744Y0213491D01*
X0190715Y0213439D01*
X0190688Y0213384D01*
X0190665Y0213329D01*
X0190645Y0213272D01*
X0190629Y0213213D01*
X0190616Y0213154D01*
X0190607Y0213095D01*
X0190602Y0213034D01*
X0190600Y0212974D01*
X0190600Y0207974D02*
X0190602Y0207914D01*
X0190607Y0207853D01*
X0190616Y0207794D01*
X0190629Y0207735D01*
X0190645Y0207676D01*
X0190665Y0207619D01*
X0190688Y0207564D01*
X0190715Y0207509D01*
X0190744Y0207457D01*
X0190777Y0207406D01*
X0190813Y0207357D01*
X0190851Y0207311D01*
X0190893Y0207267D01*
X0190937Y0207225D01*
X0190983Y0207187D01*
X0191032Y0207151D01*
X0191083Y0207118D01*
X0191135Y0207089D01*
X0191190Y0207062D01*
X0191245Y0207039D01*
X0191302Y0207019D01*
X0191361Y0207003D01*
X0191420Y0206990D01*
X0191479Y0206981D01*
X0191540Y0206976D01*
X0191600Y0206974D01*
X0186172Y0066828D02*
X0186172Y0065660D01*
X0186172Y0063325D02*
X0185004Y0063325D01*
X0186172Y0063325D02*
X0186172Y0058654D01*
X0187339Y0058654D02*
X0185004Y0058654D01*
X0182675Y0058654D02*
X0179172Y0060990D01*
X0182675Y0063325D01*
X0179172Y0065660D02*
X0179172Y0058654D01*
X0174510Y0058654D02*
X0176845Y0063325D01*
X0172174Y0063325D02*
X0174510Y0058654D01*
X0169847Y0060990D02*
X0165176Y0060990D01*
X0165176Y0062157D02*
X0165176Y0059822D01*
X0166344Y0058654D01*
X0168679Y0058654D01*
X0169847Y0060990D02*
X0169847Y0062157D01*
X0168679Y0063325D01*
X0166344Y0063325D01*
X0165176Y0062157D01*
X0162849Y0059822D02*
X0162849Y0064493D01*
X0161681Y0065660D01*
X0158178Y0065660D01*
X0158178Y0058654D01*
X0161681Y0058654D01*
X0162849Y0059822D01*
X0155851Y0062157D02*
X0151180Y0062157D01*
X0148853Y0063325D02*
X0148853Y0064493D01*
X0147685Y0065660D01*
X0145350Y0065660D01*
X0144182Y0064493D01*
X0141855Y0064493D02*
X0141855Y0063325D01*
X0140687Y0062157D01*
X0141855Y0060990D01*
X0141855Y0059822D01*
X0140687Y0058654D01*
X0138352Y0058654D01*
X0137184Y0059822D01*
X0134857Y0062157D02*
X0133689Y0060990D01*
X0130186Y0060990D01*
X0130186Y0058654D02*
X0130186Y0065660D01*
X0133689Y0065660D01*
X0134857Y0064493D01*
X0134857Y0062157D01*
X0137184Y0064493D02*
X0138352Y0065660D01*
X0140687Y0065660D01*
X0141855Y0064493D01*
X0140687Y0062157D02*
X0139520Y0062157D01*
X0144182Y0058654D02*
X0148853Y0063325D01*
X0148853Y0058654D02*
X0144182Y0058654D01*
X0127859Y0059822D02*
X0126692Y0058654D01*
X0124356Y0058654D01*
X0123189Y0059822D01*
X0120861Y0058654D02*
X0116191Y0058654D01*
X0116191Y0065660D01*
X0120861Y0065660D01*
X0123189Y0064493D02*
X0123189Y0063325D01*
X0124356Y0062157D01*
X0126692Y0062157D01*
X0127859Y0060990D01*
X0127859Y0059822D01*
X0127859Y0064493D02*
X0126692Y0065660D01*
X0124356Y0065660D01*
X0123189Y0064493D01*
X0118526Y0062157D02*
X0116191Y0062157D01*
X0189669Y0063325D02*
X0192005Y0063325D01*
X0190837Y0064493D02*
X0190837Y0059822D01*
X0192005Y0058654D01*
X0201333Y0060990D02*
X0203668Y0058654D01*
X0206003Y0060990D01*
X0206003Y0065660D01*
X0208330Y0063325D02*
X0210666Y0065660D01*
X0210666Y0058654D01*
X0213001Y0058654D02*
X0208330Y0058654D01*
X0201333Y0060990D02*
X0201333Y0065660D01*
D12*
X0210103Y0011031D02*
X0005379Y0011031D01*
X0005379Y0120874D01*
X0210103Y0120874D01*
X0210103Y0011031D01*
X0127398Y0130982D02*
X0089602Y0130982D01*
X0089602Y0148895D01*
X0095902Y0148895D01*
X0095902Y0147911D01*
X0121098Y0147911D01*
X0121098Y0148895D01*
X0127398Y0148895D01*
X0127398Y0130982D01*
X0127498Y0165553D02*
X0121198Y0165553D01*
X0121198Y0166537D01*
X0096002Y0166537D01*
X0096002Y0165553D01*
X0089702Y0165553D01*
X0089702Y0183466D01*
X0127498Y0183466D01*
X0127498Y0165553D01*
X0127398Y0192753D02*
X0121098Y0192753D01*
X0121098Y0193737D01*
X0095902Y0193737D01*
X0095902Y0192753D01*
X0089602Y0192753D01*
X0089602Y0210666D01*
X0127398Y0210666D01*
X0127398Y0192753D01*
X0127298Y0226353D02*
X0120998Y0226353D01*
X0120998Y0227337D01*
X0095802Y0227337D01*
X0095802Y0226353D01*
X0089502Y0226353D01*
X0089502Y0244266D01*
X0127298Y0244266D01*
X0127298Y0226353D01*
X0062800Y0160874D02*
X0062800Y0140874D01*
X0045300Y0140874D01*
X0045300Y0160874D01*
X0062800Y0160874D01*
X0045300Y0160874D02*
X0037800Y0160874D01*
X0037800Y0140874D01*
X0045300Y0140874D01*
X0041500Y0179974D02*
X0021500Y0179974D01*
X0021500Y0197474D01*
X0041500Y0197474D01*
X0041500Y0179974D01*
X0041500Y0197474D02*
X0041500Y0204974D01*
X0021500Y0204974D01*
X0021500Y0197474D01*
X0030900Y0221474D02*
X0030705Y0221476D01*
X0030509Y0221484D01*
X0030314Y0221496D01*
X0030119Y0221512D01*
X0029924Y0221534D01*
X0029730Y0221560D01*
X0029537Y0221591D01*
X0029345Y0221627D01*
X0029153Y0221667D01*
X0028963Y0221712D01*
X0028774Y0221762D01*
X0028586Y0221816D01*
X0028399Y0221875D01*
X0028214Y0221938D01*
X0028031Y0222006D01*
X0027849Y0222079D01*
X0027669Y0222155D01*
X0027491Y0222237D01*
X0027315Y0222322D01*
X0027141Y0222412D01*
X0026970Y0222506D01*
X0026800Y0222604D01*
X0026634Y0222707D01*
X0026469Y0222813D01*
X0026308Y0222923D01*
X0026149Y0223037D01*
X0025993Y0223156D01*
X0025840Y0223277D01*
X0025690Y0223403D01*
X0025543Y0223532D01*
X0025399Y0223665D01*
X0025259Y0223801D01*
X0025122Y0223941D01*
X0024988Y0224084D01*
X0024858Y0224230D01*
X0024732Y0224379D01*
X0024609Y0224532D01*
X0024490Y0224687D01*
X0024375Y0224845D01*
X0024264Y0225006D01*
X0024157Y0225170D01*
X0024053Y0225336D01*
X0023954Y0225505D01*
X0030900Y0237474D02*
X0031095Y0237472D01*
X0031289Y0237465D01*
X0031483Y0237453D01*
X0031677Y0237436D01*
X0031871Y0237415D01*
X0032064Y0237389D01*
X0032256Y0237358D01*
X0032448Y0237323D01*
X0032638Y0237283D01*
X0032828Y0237238D01*
X0033016Y0237189D01*
X0033203Y0237135D01*
X0033389Y0237077D01*
X0033573Y0237014D01*
X0033756Y0236947D01*
X0033937Y0236875D01*
X0034116Y0236799D01*
X0034293Y0236719D01*
X0034468Y0236634D01*
X0034642Y0236545D01*
X0034812Y0236452D01*
X0034981Y0236355D01*
X0035147Y0236253D01*
X0035311Y0236148D01*
X0035472Y0236039D01*
X0035631Y0235926D01*
X0035786Y0235809D01*
X0035939Y0235688D01*
X0036088Y0235563D01*
X0036235Y0235435D01*
X0036379Y0235304D01*
X0036519Y0235169D01*
X0036656Y0235030D01*
X0036789Y0234889D01*
X0036919Y0234744D01*
X0037046Y0234596D01*
X0030900Y0237474D02*
X0030708Y0237472D01*
X0030516Y0237465D01*
X0030324Y0237453D01*
X0030132Y0237437D01*
X0029941Y0237416D01*
X0029751Y0237391D01*
X0029561Y0237361D01*
X0029372Y0237327D01*
X0029184Y0237288D01*
X0028997Y0237244D01*
X0028811Y0237196D01*
X0028626Y0237144D01*
X0028442Y0237087D01*
X0028260Y0237026D01*
X0028080Y0236960D01*
X0027901Y0236890D01*
X0027723Y0236816D01*
X0027548Y0236738D01*
X0027374Y0236655D01*
X0027203Y0236568D01*
X0027034Y0236478D01*
X0026867Y0236383D01*
X0026702Y0236284D01*
X0026539Y0236181D01*
X0026380Y0236074D01*
X0026222Y0235964D01*
X0026068Y0235850D01*
X0025916Y0235732D01*
X0025767Y0235610D01*
X0025621Y0235485D01*
X0025479Y0235357D01*
X0025339Y0235225D01*
X0025202Y0235090D01*
X0025069Y0234951D01*
X0024939Y0234810D01*
X0024813Y0234665D01*
X0024690Y0234517D01*
X0024571Y0234367D01*
X0024455Y0234213D01*
X0024343Y0234057D01*
X0024235Y0233898D01*
X0024130Y0233737D01*
X0024030Y0233573D01*
X0023934Y0233407D01*
X0023841Y0233239D01*
X0030900Y0221474D02*
X0031093Y0221476D01*
X0031286Y0221483D01*
X0031478Y0221495D01*
X0031671Y0221511D01*
X0031863Y0221532D01*
X0032054Y0221558D01*
X0032244Y0221588D01*
X0032434Y0221623D01*
X0032623Y0221662D01*
X0032811Y0221706D01*
X0032998Y0221754D01*
X0033184Y0221807D01*
X0033368Y0221864D01*
X0033551Y0221926D01*
X0033732Y0221992D01*
X0033912Y0222063D01*
X0034090Y0222137D01*
X0034266Y0222216D01*
X0034440Y0222300D01*
X0034612Y0222387D01*
X0034782Y0222479D01*
X0034949Y0222575D01*
X0035115Y0222674D01*
X0035278Y0222778D01*
X0035438Y0222885D01*
X0035595Y0222997D01*
X0035750Y0223112D01*
X0035902Y0223231D01*
X0036051Y0223353D01*
X0036198Y0223479D01*
X0036341Y0223609D01*
X0036481Y0223742D01*
X0036617Y0223878D01*
X0036751Y0224018D01*
X0036880Y0224160D01*
X0037007Y0224306D01*
D13*
X0038650Y0231224D02*
X0040902Y0231224D01*
X0041653Y0231975D01*
X0041653Y0232725D01*
X0040902Y0233476D01*
X0038650Y0233476D01*
X0038650Y0231224D02*
X0038650Y0235728D01*
X0040902Y0235728D01*
X0041653Y0234977D01*
X0041653Y0234227D01*
X0040902Y0233476D01*
X0043254Y0235728D02*
X0043254Y0231224D01*
X0046256Y0231224D01*
X0047858Y0231224D02*
X0050860Y0231224D01*
X0052462Y0230473D02*
X0055464Y0230473D01*
X0057066Y0231975D02*
X0057816Y0231224D01*
X0059318Y0231224D01*
X0060068Y0231975D01*
X0061670Y0231975D02*
X0062420Y0231224D01*
X0063922Y0231224D01*
X0064672Y0231975D01*
X0064672Y0234977D01*
X0063922Y0235728D01*
X0062420Y0235728D01*
X0061670Y0234977D01*
X0061670Y0231975D01*
X0060068Y0234977D02*
X0059318Y0235728D01*
X0057816Y0235728D01*
X0057066Y0234977D01*
X0057066Y0231975D01*
X0050860Y0235728D02*
X0047858Y0235728D01*
X0047858Y0231224D01*
X0047858Y0233476D02*
X0049359Y0233476D01*
X0066274Y0231224D02*
X0066274Y0235728D01*
X0069276Y0231224D01*
X0069276Y0235728D01*
X0070877Y0235728D02*
X0073880Y0231224D01*
X0073880Y0235728D01*
X0073470Y0233528D02*
X0072719Y0232777D01*
X0072719Y0229775D01*
X0073470Y0229024D01*
X0074971Y0229024D01*
X0075722Y0229775D01*
X0075481Y0230473D02*
X0078484Y0230473D01*
X0078824Y0229024D02*
X0078824Y0233528D01*
X0077323Y0232027D01*
X0075722Y0232777D02*
X0074971Y0233528D01*
X0073470Y0233528D01*
X0071151Y0233528D02*
X0069650Y0233528D01*
X0070401Y0233528D02*
X0070401Y0229024D01*
X0071151Y0229024D02*
X0069650Y0229024D01*
X0070877Y0231224D02*
X0070877Y0235728D01*
X0077323Y0229024D02*
X0080326Y0229024D01*
X0080085Y0231224D02*
X0083088Y0231224D01*
X0084689Y0231224D02*
X0087692Y0231224D01*
X0089293Y0231224D02*
X0091545Y0231224D01*
X0092296Y0231975D01*
X0092296Y0234977D01*
X0091545Y0235728D01*
X0089293Y0235728D01*
X0089293Y0231224D01*
X0086191Y0233476D02*
X0084689Y0233476D01*
X0084689Y0235728D02*
X0084689Y0231224D01*
X0084689Y0235728D02*
X0087692Y0235728D01*
X0080085Y0235728D02*
X0080085Y0231224D01*
X0080826Y0174456D02*
X0083078Y0174475D01*
X0083835Y0173731D01*
X0083862Y0170729D01*
X0083118Y0169972D01*
X0080866Y0169952D01*
X0080826Y0174456D01*
X0079225Y0174442D02*
X0076223Y0174415D01*
X0076262Y0169912D01*
X0079264Y0169938D01*
X0077744Y0172177D02*
X0076242Y0172164D01*
X0074661Y0169898D02*
X0071658Y0169872D01*
X0071619Y0174375D01*
X0070024Y0173611D02*
X0070037Y0172109D01*
X0069293Y0171352D01*
X0067041Y0171333D01*
X0067055Y0169831D02*
X0067015Y0174335D01*
X0069267Y0174355D01*
X0070024Y0173611D01*
X0068543Y0171346D02*
X0070057Y0169858D01*
X0065453Y0169817D02*
X0062451Y0169791D01*
X0062412Y0174295D01*
X0065414Y0174321D01*
X0063932Y0172056D02*
X0062431Y0172043D01*
X0060850Y0169777D02*
X0060810Y0174281D01*
X0057808Y0174255D02*
X0057847Y0169751D01*
X0059335Y0171265D01*
X0060850Y0169777D01*
X0056239Y0170488D02*
X0056213Y0173490D01*
X0055456Y0174234D01*
X0053955Y0174221D01*
X0053211Y0173464D01*
X0053237Y0170462D01*
X0053994Y0169717D01*
X0055495Y0169731D01*
X0056239Y0170488D01*
X0051622Y0171949D02*
X0050878Y0171192D01*
X0048627Y0171172D01*
X0048640Y0169671D02*
X0048600Y0174174D01*
X0050852Y0174194D01*
X0051609Y0173450D01*
X0051622Y0171949D01*
X0139752Y0197974D02*
X0156248Y0197974D01*
X0153528Y0191974D02*
X0152472Y0191974D01*
X0157502Y0195946D02*
X0157398Y0196161D01*
X0157289Y0196374D01*
X0157175Y0196584D01*
X0157056Y0196791D01*
X0156933Y0196996D01*
X0156805Y0197198D01*
X0156672Y0197397D01*
X0156535Y0197592D01*
X0156394Y0197785D01*
X0156248Y0197974D01*
X0157500Y0187002D02*
X0157388Y0186772D01*
X0157271Y0186545D01*
X0157149Y0186321D01*
X0157021Y0186100D01*
X0156887Y0185883D01*
X0156749Y0185668D01*
X0156605Y0185457D01*
X0156456Y0185250D01*
X0156302Y0185046D01*
X0156144Y0184846D01*
X0155980Y0184650D01*
X0155812Y0184458D01*
X0155639Y0184270D01*
X0155461Y0184086D01*
X0155280Y0183907D01*
X0155093Y0183732D01*
X0154903Y0183562D01*
X0154709Y0183397D01*
X0154510Y0183236D01*
X0154308Y0183080D01*
X0154102Y0182929D01*
X0153892Y0182783D01*
X0153679Y0182643D01*
X0153463Y0182507D01*
X0153243Y0182377D01*
X0153020Y0182252D01*
X0152795Y0182133D01*
X0152566Y0182019D01*
X0152335Y0181911D01*
X0152101Y0181808D01*
X0151865Y0181711D01*
X0151626Y0181620D01*
X0151386Y0181535D01*
X0151143Y0181455D01*
X0150898Y0181382D01*
X0150652Y0181314D01*
X0150404Y0181253D01*
X0150155Y0181198D01*
X0149905Y0181148D01*
X0149653Y0181105D01*
X0149400Y0181068D01*
X0149147Y0181037D01*
X0148893Y0181012D01*
X0148638Y0180993D01*
X0148383Y0180981D01*
X0148128Y0180975D01*
X0147872Y0180975D01*
X0147617Y0180981D01*
X0147362Y0180993D01*
X0147107Y0181012D01*
X0146853Y0181037D01*
X0146600Y0181068D01*
X0146347Y0181105D01*
X0146095Y0181148D01*
X0145845Y0181198D01*
X0145596Y0181253D01*
X0145348Y0181314D01*
X0145102Y0181382D01*
X0144857Y0181455D01*
X0144614Y0181535D01*
X0144374Y0181620D01*
X0144135Y0181711D01*
X0143899Y0181808D01*
X0143665Y0181911D01*
X0143434Y0182019D01*
X0143205Y0182133D01*
X0142980Y0182252D01*
X0142757Y0182377D01*
X0142537Y0182507D01*
X0142321Y0182643D01*
X0142108Y0182783D01*
X0141898Y0182929D01*
X0141692Y0183080D01*
X0141490Y0183236D01*
X0141291Y0183397D01*
X0141097Y0183562D01*
X0140907Y0183732D01*
X0140720Y0183907D01*
X0140539Y0184086D01*
X0140361Y0184270D01*
X0140188Y0184458D01*
X0140020Y0184650D01*
X0139856Y0184846D01*
X0139698Y0185046D01*
X0139544Y0185250D01*
X0139395Y0185457D01*
X0139251Y0185668D01*
X0139113Y0185883D01*
X0138979Y0186100D01*
X0138851Y0186321D01*
X0138729Y0186545D01*
X0138612Y0186772D01*
X0138500Y0187002D01*
X0142472Y0191974D02*
X0143528Y0191974D01*
X0138454Y0195852D02*
X0138561Y0196077D01*
X0138673Y0196300D01*
X0138790Y0196520D01*
X0138912Y0196737D01*
X0139040Y0196952D01*
X0139173Y0197163D01*
X0139310Y0197371D01*
X0139453Y0197575D01*
X0139600Y0197777D01*
X0139752Y0197974D01*
X0150543Y0210824D02*
X0150543Y0215328D01*
X0149042Y0215328D02*
X0152045Y0215328D01*
X0153646Y0213076D02*
X0156649Y0213076D01*
X0155898Y0210824D02*
X0155898Y0215328D01*
X0153646Y0213076D01*
X0153528Y0228074D02*
X0152472Y0228074D01*
X0157502Y0232046D02*
X0157398Y0232261D01*
X0157289Y0232474D01*
X0157175Y0232684D01*
X0157056Y0232891D01*
X0156933Y0233096D01*
X0156805Y0233298D01*
X0156672Y0233497D01*
X0156535Y0233692D01*
X0156394Y0233885D01*
X0156248Y0234074D01*
X0139752Y0234074D01*
X0142472Y0228074D02*
X0143528Y0228074D01*
X0138454Y0231952D02*
X0138561Y0232177D01*
X0138673Y0232400D01*
X0138790Y0232620D01*
X0138912Y0232837D01*
X0139040Y0233052D01*
X0139173Y0233263D01*
X0139310Y0233471D01*
X0139453Y0233675D01*
X0139600Y0233877D01*
X0139752Y0234074D01*
X0138500Y0223102D02*
X0138612Y0222872D01*
X0138729Y0222645D01*
X0138851Y0222421D01*
X0138979Y0222200D01*
X0139113Y0221983D01*
X0139251Y0221768D01*
X0139395Y0221557D01*
X0139544Y0221350D01*
X0139698Y0221146D01*
X0139856Y0220946D01*
X0140020Y0220750D01*
X0140188Y0220558D01*
X0140361Y0220370D01*
X0140539Y0220186D01*
X0140720Y0220007D01*
X0140907Y0219832D01*
X0141097Y0219662D01*
X0141291Y0219497D01*
X0141490Y0219336D01*
X0141692Y0219180D01*
X0141898Y0219029D01*
X0142108Y0218883D01*
X0142321Y0218743D01*
X0142537Y0218607D01*
X0142757Y0218477D01*
X0142980Y0218352D01*
X0143205Y0218233D01*
X0143434Y0218119D01*
X0143665Y0218011D01*
X0143899Y0217908D01*
X0144135Y0217811D01*
X0144374Y0217720D01*
X0144614Y0217635D01*
X0144857Y0217555D01*
X0145102Y0217482D01*
X0145348Y0217414D01*
X0145596Y0217353D01*
X0145845Y0217298D01*
X0146095Y0217248D01*
X0146347Y0217205D01*
X0146600Y0217168D01*
X0146853Y0217137D01*
X0147107Y0217112D01*
X0147362Y0217093D01*
X0147617Y0217081D01*
X0147872Y0217075D01*
X0148128Y0217075D01*
X0148383Y0217081D01*
X0148638Y0217093D01*
X0148893Y0217112D01*
X0149147Y0217137D01*
X0149400Y0217168D01*
X0149653Y0217205D01*
X0149905Y0217248D01*
X0150155Y0217298D01*
X0150404Y0217353D01*
X0150652Y0217414D01*
X0150898Y0217482D01*
X0151143Y0217555D01*
X0151386Y0217635D01*
X0151626Y0217720D01*
X0151865Y0217811D01*
X0152101Y0217908D01*
X0152335Y0218011D01*
X0152566Y0218119D01*
X0152795Y0218233D01*
X0153020Y0218352D01*
X0153243Y0218477D01*
X0153463Y0218607D01*
X0153679Y0218743D01*
X0153892Y0218883D01*
X0154102Y0219029D01*
X0154308Y0219180D01*
X0154510Y0219336D01*
X0154709Y0219497D01*
X0154903Y0219662D01*
X0155093Y0219832D01*
X0155280Y0220007D01*
X0155461Y0220186D01*
X0155639Y0220370D01*
X0155812Y0220558D01*
X0155980Y0220750D01*
X0156144Y0220946D01*
X0156302Y0221146D01*
X0156456Y0221350D01*
X0156605Y0221557D01*
X0156749Y0221768D01*
X0156887Y0221983D01*
X0157021Y0222200D01*
X0157149Y0222421D01*
X0157271Y0222645D01*
X0157388Y0222872D01*
X0157500Y0223102D01*
X0155898Y0179228D02*
X0154397Y0179228D01*
X0153646Y0178477D01*
X0152045Y0179228D02*
X0149042Y0179228D01*
X0150543Y0179228D02*
X0150543Y0174724D01*
X0153646Y0175475D02*
X0154397Y0174724D01*
X0155898Y0174724D01*
X0156649Y0175475D01*
X0156649Y0176225D01*
X0155898Y0176976D01*
X0155147Y0176976D01*
X0155898Y0176976D02*
X0156649Y0177727D01*
X0156649Y0178477D01*
X0155898Y0179228D01*
X0156848Y0142074D02*
X0140352Y0142074D01*
X0143072Y0136074D02*
X0144128Y0136074D01*
X0139054Y0139952D02*
X0139161Y0140177D01*
X0139273Y0140400D01*
X0139390Y0140620D01*
X0139512Y0140837D01*
X0139640Y0141052D01*
X0139773Y0141263D01*
X0139910Y0141471D01*
X0140053Y0141675D01*
X0140200Y0141877D01*
X0140352Y0142074D01*
X0139100Y0131102D02*
X0139212Y0130872D01*
X0139329Y0130645D01*
X0139451Y0130421D01*
X0139579Y0130200D01*
X0139713Y0129983D01*
X0139851Y0129768D01*
X0139995Y0129557D01*
X0140144Y0129350D01*
X0140298Y0129146D01*
X0140456Y0128946D01*
X0140620Y0128750D01*
X0140788Y0128558D01*
X0140961Y0128370D01*
X0141139Y0128186D01*
X0141320Y0128007D01*
X0141507Y0127832D01*
X0141697Y0127662D01*
X0141891Y0127497D01*
X0142090Y0127336D01*
X0142292Y0127180D01*
X0142498Y0127029D01*
X0142708Y0126883D01*
X0142921Y0126743D01*
X0143137Y0126607D01*
X0143357Y0126477D01*
X0143580Y0126352D01*
X0143805Y0126233D01*
X0144034Y0126119D01*
X0144265Y0126011D01*
X0144499Y0125908D01*
X0144735Y0125811D01*
X0144974Y0125720D01*
X0145214Y0125635D01*
X0145457Y0125555D01*
X0145702Y0125482D01*
X0145948Y0125414D01*
X0146196Y0125353D01*
X0146445Y0125298D01*
X0146695Y0125248D01*
X0146947Y0125205D01*
X0147200Y0125168D01*
X0147453Y0125137D01*
X0147707Y0125112D01*
X0147962Y0125093D01*
X0148217Y0125081D01*
X0148472Y0125075D01*
X0148728Y0125075D01*
X0148983Y0125081D01*
X0149238Y0125093D01*
X0149493Y0125112D01*
X0149747Y0125137D01*
X0150000Y0125168D01*
X0150253Y0125205D01*
X0150505Y0125248D01*
X0150755Y0125298D01*
X0151004Y0125353D01*
X0151252Y0125414D01*
X0151498Y0125482D01*
X0151743Y0125555D01*
X0151986Y0125635D01*
X0152226Y0125720D01*
X0152465Y0125811D01*
X0152701Y0125908D01*
X0152935Y0126011D01*
X0153166Y0126119D01*
X0153395Y0126233D01*
X0153620Y0126352D01*
X0153843Y0126477D01*
X0154063Y0126607D01*
X0154279Y0126743D01*
X0154492Y0126883D01*
X0154702Y0127029D01*
X0154908Y0127180D01*
X0155110Y0127336D01*
X0155309Y0127497D01*
X0155503Y0127662D01*
X0155693Y0127832D01*
X0155880Y0128007D01*
X0156061Y0128186D01*
X0156239Y0128370D01*
X0156412Y0128558D01*
X0156580Y0128750D01*
X0156744Y0128946D01*
X0156902Y0129146D01*
X0157056Y0129350D01*
X0157205Y0129557D01*
X0157349Y0129768D01*
X0157487Y0129983D01*
X0157621Y0130200D01*
X0157749Y0130421D01*
X0157871Y0130645D01*
X0157988Y0130872D01*
X0158100Y0131102D01*
X0154128Y0136074D02*
X0153072Y0136074D01*
X0158102Y0140046D02*
X0157998Y0140261D01*
X0157889Y0140474D01*
X0157775Y0140684D01*
X0157656Y0140891D01*
X0157533Y0141096D01*
X0157405Y0141298D01*
X0157272Y0141497D01*
X0157135Y0141692D01*
X0156994Y0141885D01*
X0156848Y0142074D01*
X0155747Y0123328D02*
X0155747Y0118824D01*
X0154246Y0118824D02*
X0157249Y0118824D01*
X0154246Y0121827D02*
X0155747Y0123328D01*
X0152645Y0123328D02*
X0149642Y0123328D01*
X0151143Y0123328D02*
X0151143Y0118824D01*
D14*
X0150302Y0136374D02*
X0150302Y0139877D01*
X0151469Y0138709D01*
X0152637Y0139877D01*
X0152637Y0136374D01*
X0149046Y0136374D02*
X0149046Y0139877D01*
X0149046Y0138126D02*
X0146711Y0138126D01*
X0145455Y0139293D02*
X0145455Y0136958D01*
X0144871Y0136374D01*
X0143703Y0136374D01*
X0143120Y0136958D01*
X0143120Y0139293D01*
X0143703Y0139877D01*
X0144871Y0139877D01*
X0145455Y0139293D01*
X0146711Y0139877D02*
X0146711Y0136374D01*
X0141864Y0135790D02*
X0139529Y0135790D01*
X0138273Y0136958D02*
X0138273Y0139293D01*
X0137689Y0139877D01*
X0136521Y0139877D01*
X0135937Y0139293D01*
X0135937Y0136958D01*
X0136521Y0136374D01*
X0137689Y0136374D01*
X0138273Y0136958D01*
X0134682Y0136374D02*
X0133514Y0137542D01*
X0134098Y0137542D02*
X0132346Y0137542D01*
X0132346Y0136374D02*
X0132346Y0139877D01*
X0134098Y0139877D01*
X0134682Y0139293D01*
X0134682Y0138126D01*
X0134098Y0137542D01*
X0131091Y0136374D02*
X0128755Y0136374D01*
X0128755Y0139877D01*
X0131091Y0139877D01*
X0129923Y0138126D02*
X0128755Y0138126D01*
X0127500Y0139293D02*
X0127500Y0139877D01*
X0125164Y0139877D01*
X0127500Y0139293D02*
X0125164Y0136958D01*
X0125164Y0136374D01*
X0127500Y0136374D01*
X0123909Y0135790D02*
X0121573Y0135790D01*
X0120317Y0136958D02*
X0120317Y0137542D01*
X0119734Y0138126D01*
X0119150Y0138126D01*
X0119734Y0138126D02*
X0120317Y0138709D01*
X0120317Y0139293D01*
X0119734Y0139877D01*
X0118566Y0139877D01*
X0117982Y0139293D01*
X0117982Y0136958D02*
X0118566Y0136374D01*
X0119734Y0136374D01*
X0120317Y0136958D01*
X0116726Y0136374D02*
X0114391Y0136374D01*
X0115559Y0136374D02*
X0115559Y0139877D01*
X0114391Y0138709D01*
X0113135Y0138126D02*
X0112551Y0137542D01*
X0110800Y0137542D01*
X0111968Y0137542D02*
X0113135Y0136374D01*
X0113135Y0138126D02*
X0113135Y0139293D01*
X0112551Y0139877D01*
X0110800Y0139877D01*
X0110800Y0136374D01*
X0118980Y0128463D02*
X0121282Y0128463D01*
X0122050Y0127696D01*
X0122050Y0126161D01*
X0121282Y0125394D01*
X0118980Y0125394D01*
X0118980Y0123859D02*
X0118980Y0128463D01*
X0120515Y0125394D02*
X0122050Y0123859D01*
X0123584Y0124626D02*
X0124352Y0123859D01*
X0125886Y0123859D01*
X0126654Y0124626D01*
X0126654Y0125394D01*
X0125886Y0126161D01*
X0123584Y0126161D01*
X0123584Y0124626D01*
X0123584Y0126161D02*
X0125119Y0127696D01*
X0126654Y0128463D01*
X0123909Y0159990D02*
X0121573Y0159990D01*
X0120317Y0160574D02*
X0117982Y0160574D01*
X0120317Y0162909D01*
X0120317Y0163493D01*
X0119734Y0164077D01*
X0118566Y0164077D01*
X0117982Y0163493D01*
X0115559Y0164077D02*
X0115559Y0160574D01*
X0116726Y0160574D02*
X0114391Y0160574D01*
X0113135Y0160574D02*
X0111968Y0161742D01*
X0112551Y0161742D02*
X0110800Y0161742D01*
X0110800Y0160574D02*
X0110800Y0164077D01*
X0112551Y0164077D01*
X0113135Y0163493D01*
X0113135Y0162326D01*
X0112551Y0161742D01*
X0114391Y0162909D02*
X0115559Y0164077D01*
X0125164Y0164077D02*
X0127500Y0164077D01*
X0127500Y0163493D01*
X0125164Y0161158D01*
X0125164Y0160574D01*
X0127500Y0160574D01*
X0128755Y0160574D02*
X0128755Y0164077D01*
X0131091Y0164077D01*
X0132346Y0164077D02*
X0132346Y0160574D01*
X0132346Y0161742D02*
X0134098Y0161742D01*
X0134682Y0162326D01*
X0134682Y0163493D01*
X0134098Y0164077D01*
X0132346Y0164077D01*
X0133514Y0161742D02*
X0134682Y0160574D01*
X0135937Y0161158D02*
X0136521Y0160574D01*
X0137689Y0160574D01*
X0138273Y0161158D01*
X0138273Y0163493D01*
X0137689Y0164077D01*
X0136521Y0164077D01*
X0135937Y0163493D01*
X0135937Y0161158D01*
X0139529Y0159990D02*
X0141864Y0159990D01*
X0143120Y0161158D02*
X0143703Y0160574D01*
X0144871Y0160574D01*
X0145455Y0161158D01*
X0145455Y0163493D01*
X0144871Y0164077D01*
X0143703Y0164077D01*
X0143120Y0163493D01*
X0143120Y0161158D01*
X0146711Y0160574D02*
X0146711Y0164077D01*
X0146711Y0162326D02*
X0149046Y0162326D01*
X0149046Y0164077D02*
X0149046Y0160574D01*
X0150302Y0160574D02*
X0150302Y0164077D01*
X0151469Y0162909D01*
X0152637Y0164077D01*
X0152637Y0160574D01*
X0131091Y0160574D02*
X0128755Y0160574D01*
X0128755Y0162326D02*
X0129923Y0162326D01*
X0096985Y0189826D02*
X0093916Y0186756D01*
X0093916Y0185989D01*
X0092381Y0185989D02*
X0090846Y0187524D01*
X0091614Y0187524D02*
X0089312Y0187524D01*
X0089312Y0185989D02*
X0089312Y0190593D01*
X0091614Y0190593D01*
X0092381Y0189826D01*
X0092381Y0188291D01*
X0091614Y0187524D01*
X0093916Y0190593D02*
X0096985Y0190593D01*
X0096985Y0189826D01*
X0096118Y0213189D02*
X0094583Y0213189D01*
X0093816Y0213956D01*
X0093816Y0214724D01*
X0094583Y0215491D01*
X0096118Y0215491D01*
X0096885Y0214724D01*
X0096885Y0213956D01*
X0096118Y0213189D01*
X0096118Y0215491D02*
X0096885Y0216258D01*
X0096885Y0217026D01*
X0096118Y0217793D01*
X0094583Y0217793D01*
X0093816Y0217026D01*
X0093816Y0216258D01*
X0094583Y0215491D01*
X0092281Y0215491D02*
X0092281Y0217026D01*
X0091514Y0217793D01*
X0089212Y0217793D01*
X0089212Y0213189D01*
X0089212Y0214724D02*
X0091514Y0214724D01*
X0092281Y0215491D01*
X0090746Y0214724D02*
X0092281Y0213189D01*
X0110800Y0223174D02*
X0110800Y0226677D01*
X0112551Y0226677D01*
X0113135Y0226093D01*
X0113135Y0224926D01*
X0112551Y0224342D01*
X0110800Y0224342D01*
X0111968Y0224342D02*
X0113135Y0223174D01*
X0114391Y0223174D02*
X0116726Y0223174D01*
X0115559Y0223174D02*
X0115559Y0226677D01*
X0114391Y0225509D01*
X0117982Y0225509D02*
X0119150Y0226677D01*
X0119150Y0223174D01*
X0120317Y0223174D02*
X0117982Y0223174D01*
X0121573Y0222590D02*
X0123909Y0222590D01*
X0125164Y0223174D02*
X0127500Y0223174D01*
X0128755Y0223174D02*
X0131091Y0223174D01*
X0132346Y0223174D02*
X0132346Y0226677D01*
X0134098Y0226677D01*
X0134682Y0226093D01*
X0134682Y0224926D01*
X0134098Y0224342D01*
X0132346Y0224342D01*
X0133514Y0224342D02*
X0134682Y0223174D01*
X0135937Y0223758D02*
X0136521Y0223174D01*
X0137689Y0223174D01*
X0138273Y0223758D01*
X0138273Y0226093D01*
X0137689Y0226677D01*
X0136521Y0226677D01*
X0135937Y0226093D01*
X0135937Y0223758D01*
X0139529Y0222590D02*
X0141864Y0222590D01*
X0143120Y0223758D02*
X0143703Y0223174D01*
X0144871Y0223174D01*
X0145455Y0223758D01*
X0145455Y0226093D01*
X0144871Y0226677D01*
X0143703Y0226677D01*
X0143120Y0226093D01*
X0143120Y0223758D01*
X0146711Y0223174D02*
X0146711Y0226677D01*
X0146711Y0224926D02*
X0149046Y0224926D01*
X0149046Y0226677D02*
X0149046Y0223174D01*
X0150302Y0223174D02*
X0150302Y0226677D01*
X0151469Y0225509D01*
X0152637Y0226677D01*
X0152637Y0223174D01*
X0131091Y0226677D02*
X0128755Y0226677D01*
X0128755Y0223174D01*
X0128755Y0224926D02*
X0129923Y0224926D01*
X0127500Y0226093D02*
X0127500Y0226677D01*
X0125164Y0226677D01*
X0127500Y0226093D02*
X0125164Y0223758D01*
X0125164Y0223174D01*
X0096785Y0247556D02*
X0096785Y0250626D01*
X0096018Y0251393D01*
X0094483Y0251393D01*
X0093716Y0250626D01*
X0093716Y0249858D01*
X0094483Y0249091D01*
X0096785Y0249091D01*
X0096785Y0247556D02*
X0096018Y0246789D01*
X0094483Y0246789D01*
X0093716Y0247556D01*
X0092181Y0246789D02*
X0090646Y0248324D01*
X0091414Y0248324D02*
X0089112Y0248324D01*
X0089112Y0246789D02*
X0089112Y0251393D01*
X0091414Y0251393D01*
X0092181Y0250626D01*
X0092181Y0249091D01*
X0091414Y0248324D01*
X0059706Y0211277D02*
X0057304Y0211277D01*
X0058505Y0211277D02*
X0058505Y0207674D01*
X0056023Y0208275D02*
X0056023Y0211277D01*
X0053621Y0211277D02*
X0053621Y0208275D01*
X0054221Y0207674D01*
X0055422Y0207674D01*
X0056023Y0208275D01*
X0052339Y0209476D02*
X0051739Y0208875D01*
X0049937Y0208875D01*
X0049937Y0207674D02*
X0049937Y0211277D01*
X0051739Y0211277D01*
X0052339Y0210677D01*
X0052339Y0209476D01*
X0048656Y0211277D02*
X0048656Y0207674D01*
X0046254Y0211277D01*
X0046254Y0207674D01*
X0045000Y0207674D02*
X0043799Y0207674D01*
X0044399Y0207674D02*
X0044399Y0211277D01*
X0043799Y0211277D02*
X0045000Y0211277D01*
X0042518Y0207074D02*
X0040116Y0207074D01*
X0038835Y0207674D02*
X0037634Y0208875D01*
X0038234Y0208875D02*
X0036433Y0208875D01*
X0036433Y0207674D02*
X0036433Y0211277D01*
X0038234Y0211277D01*
X0038835Y0210677D01*
X0038835Y0209476D01*
X0038234Y0208875D01*
X0035151Y0207674D02*
X0032749Y0207674D01*
X0032749Y0211277D01*
X0035151Y0211277D01*
X0033950Y0209476D02*
X0032749Y0209476D01*
X0031468Y0207674D02*
X0031468Y0211277D01*
X0029066Y0211277D02*
X0029066Y0207674D01*
X0030267Y0208875D01*
X0031468Y0207674D01*
X0027785Y0208275D02*
X0027785Y0210677D01*
X0027185Y0211277D01*
X0025984Y0211277D01*
X0025383Y0210677D01*
X0025383Y0208275D01*
X0025984Y0207674D01*
X0027185Y0207674D01*
X0027785Y0208275D01*
X0024102Y0209476D02*
X0023502Y0208875D01*
X0021700Y0208875D01*
X0021700Y0207674D02*
X0021700Y0211277D01*
X0023502Y0211277D01*
X0024102Y0210677D01*
X0024102Y0209476D01*
X0065918Y0199577D02*
X0065918Y0196074D01*
X0065918Y0197242D02*
X0067669Y0197242D01*
X0068253Y0197826D01*
X0068253Y0198993D01*
X0067669Y0199577D01*
X0065918Y0199577D01*
X0067086Y0197242D02*
X0068253Y0196074D01*
X0069509Y0196074D02*
X0071844Y0196074D01*
X0070677Y0196074D02*
X0070677Y0199577D01*
X0069509Y0198409D01*
X0035100Y0147159D02*
X0035100Y0144757D01*
X0032698Y0147159D01*
X0032097Y0147159D01*
X0031497Y0146559D01*
X0031497Y0145358D01*
X0032097Y0144757D01*
X0031497Y0143476D02*
X0035100Y0141074D01*
X0035100Y0143476D02*
X0031497Y0141074D01*
X0040500Y0130678D02*
X0040500Y0126841D01*
X0041267Y0126074D01*
X0042802Y0126074D01*
X0043569Y0126841D01*
X0043569Y0130678D01*
X0045104Y0129911D02*
X0045104Y0129143D01*
X0045871Y0128376D01*
X0047406Y0128376D01*
X0048173Y0127609D01*
X0048173Y0126841D01*
X0047406Y0126074D01*
X0045871Y0126074D01*
X0045104Y0126841D01*
X0046639Y0125307D02*
X0046639Y0131445D01*
X0047406Y0130678D02*
X0048173Y0129911D01*
X0047406Y0130678D02*
X0045871Y0130678D01*
X0045104Y0129911D01*
X0049708Y0129911D02*
X0050475Y0130678D01*
X0052010Y0130678D01*
X0052777Y0129911D01*
X0052777Y0129143D01*
X0049708Y0126074D01*
X0052777Y0126074D01*
X0036560Y0041077D02*
X0037144Y0040493D01*
X0034809Y0038158D01*
X0035393Y0037574D01*
X0036560Y0037574D01*
X0037144Y0038158D01*
X0037144Y0040493D01*
X0036560Y0041077D02*
X0035393Y0041077D01*
X0034809Y0040493D01*
X0034809Y0038158D01*
X0033553Y0037574D02*
X0031218Y0037574D01*
X0032386Y0037574D02*
X0032386Y0041077D01*
X0031218Y0039909D01*
X0029962Y0039326D02*
X0029378Y0038742D01*
X0027627Y0038742D01*
X0028794Y0038742D02*
X0029962Y0037574D01*
X0029962Y0039326D02*
X0029962Y0040493D01*
X0029378Y0041077D01*
X0027627Y0041077D01*
X0027627Y0037574D01*
X0180818Y0120874D02*
X0180818Y0124377D01*
X0182569Y0124377D01*
X0183153Y0123793D01*
X0183153Y0122626D01*
X0182569Y0122042D01*
X0180818Y0122042D01*
X0181986Y0122042D02*
X0183153Y0120874D01*
X0184409Y0120874D02*
X0186744Y0123209D01*
X0186744Y0123793D01*
X0186160Y0124377D01*
X0184993Y0124377D01*
X0184409Y0123793D01*
X0184409Y0120874D02*
X0186744Y0120874D01*
X0184243Y0157874D02*
X0183075Y0157874D01*
X0182491Y0158458D01*
X0181235Y0157874D02*
X0180068Y0159042D01*
X0180651Y0159042D02*
X0178900Y0159042D01*
X0178900Y0157874D02*
X0178900Y0161377D01*
X0180651Y0161377D01*
X0181235Y0160793D01*
X0181235Y0159626D01*
X0180651Y0159042D01*
X0182491Y0160793D02*
X0183075Y0161377D01*
X0184243Y0161377D01*
X0184826Y0160793D01*
X0184826Y0160209D01*
X0184243Y0159626D01*
X0184826Y0159042D01*
X0184826Y0158458D01*
X0184243Y0157874D01*
X0184243Y0159626D02*
X0183659Y0159626D01*
X0185100Y0174774D02*
X0185100Y0178277D01*
X0186851Y0178277D01*
X0187435Y0177693D01*
X0187435Y0176526D01*
X0186851Y0175942D01*
X0185100Y0175942D01*
X0186268Y0175942D02*
X0187435Y0174774D01*
X0188691Y0176526D02*
X0191026Y0176526D01*
X0190443Y0178277D02*
X0190443Y0174774D01*
X0188691Y0176526D02*
X0190443Y0178277D01*
X0198518Y0202174D02*
X0198518Y0205677D01*
X0200269Y0205677D01*
X0200853Y0205093D01*
X0200853Y0203926D01*
X0200269Y0203342D01*
X0198518Y0203342D01*
X0199686Y0203342D02*
X0200853Y0202174D01*
X0202109Y0202758D02*
X0202693Y0202174D01*
X0203860Y0202174D01*
X0204444Y0202758D01*
X0204444Y0203926D01*
X0203860Y0204509D01*
X0203277Y0204509D01*
X0202109Y0203926D01*
X0202109Y0205677D01*
X0204444Y0205677D01*
D15*
X0121492Y0204957D03*
X0121592Y0177757D03*
X0095508Y0136691D03*
X0121392Y0238557D03*
D16*
X0124702Y0108984D02*
X0125319Y0108984D01*
X0125936Y0108367D01*
X0126553Y0108984D01*
X0127171Y0108984D01*
X0127788Y0108367D01*
X0127788Y0107132D01*
X0127171Y0106515D01*
X0127171Y0105301D02*
X0127788Y0104683D01*
X0127788Y0103449D01*
X0127171Y0102832D01*
X0127171Y0101618D02*
X0124702Y0101618D01*
X0124085Y0101000D01*
X0124085Y0099766D01*
X0124702Y0099149D01*
X0127171Y0099149D01*
X0127788Y0099766D01*
X0127788Y0101000D01*
X0127171Y0101618D01*
X0125936Y0104066D02*
X0125936Y0104683D01*
X0126553Y0105301D01*
X0127171Y0105301D01*
X0125936Y0104683D02*
X0125319Y0105301D01*
X0124702Y0105301D01*
X0124085Y0104683D01*
X0124085Y0103449D01*
X0124702Y0102832D01*
X0124702Y0106515D02*
X0124085Y0107132D01*
X0124085Y0108367D01*
X0124702Y0108984D01*
X0125936Y0108367D02*
X0125936Y0107749D01*
X0134085Y0107132D02*
X0134702Y0106515D01*
X0134085Y0107132D02*
X0134085Y0108367D01*
X0134702Y0108984D01*
X0135319Y0108984D01*
X0137788Y0106515D01*
X0137788Y0108984D01*
X0137171Y0105301D02*
X0136553Y0105301D01*
X0135936Y0104683D01*
X0135936Y0104066D01*
X0135936Y0104683D02*
X0135319Y0105301D01*
X0134702Y0105301D01*
X0134085Y0104683D01*
X0134085Y0103449D01*
X0134702Y0102832D01*
X0134702Y0101618D02*
X0134085Y0101000D01*
X0134085Y0099766D01*
X0134702Y0099149D01*
X0137171Y0099149D01*
X0137788Y0099766D01*
X0137788Y0101000D01*
X0137171Y0101618D01*
X0134702Y0101618D01*
X0137171Y0102832D02*
X0137788Y0103449D01*
X0137788Y0104683D01*
X0137171Y0105301D01*
X0144085Y0104683D02*
X0144085Y0103449D01*
X0144702Y0102832D01*
X0144702Y0101618D02*
X0144085Y0101000D01*
X0144085Y0099766D01*
X0144702Y0099149D01*
X0147171Y0099149D01*
X0147788Y0099766D01*
X0147788Y0101000D01*
X0147171Y0101618D01*
X0144702Y0101618D01*
X0145936Y0104066D02*
X0145936Y0104683D01*
X0146553Y0105301D01*
X0147171Y0105301D01*
X0147788Y0104683D01*
X0147788Y0103449D01*
X0147171Y0102832D01*
X0145936Y0104683D02*
X0145319Y0105301D01*
X0144702Y0105301D01*
X0144085Y0104683D01*
X0144085Y0106515D02*
X0145936Y0106515D01*
X0145319Y0107749D01*
X0145319Y0108367D01*
X0145936Y0108984D01*
X0147171Y0108984D01*
X0147788Y0108367D01*
X0147788Y0107132D01*
X0147171Y0106515D01*
X0144085Y0106515D02*
X0144085Y0108984D01*
X0154085Y0108367D02*
X0155936Y0106515D01*
X0155936Y0108984D01*
X0154085Y0108367D02*
X0157788Y0108367D01*
X0157171Y0105301D02*
X0156553Y0105301D01*
X0155936Y0104683D01*
X0155936Y0104066D01*
X0155936Y0104683D02*
X0155319Y0105301D01*
X0154702Y0105301D01*
X0154085Y0104683D01*
X0154085Y0103449D01*
X0154702Y0102832D01*
X0154702Y0101618D02*
X0154085Y0101000D01*
X0154085Y0099766D01*
X0154702Y0099149D01*
X0157171Y0099149D01*
X0157788Y0099766D01*
X0157788Y0101000D01*
X0157171Y0101618D01*
X0154702Y0101618D01*
X0157171Y0102832D02*
X0157788Y0103449D01*
X0157788Y0104683D01*
X0157171Y0105301D01*
X0164085Y0102845D02*
X0167788Y0102845D01*
X0164085Y0100376D01*
X0167788Y0100376D01*
X0166553Y0099162D02*
X0167788Y0097928D01*
X0166553Y0096693D01*
X0164085Y0096693D01*
X0164085Y0099162D02*
X0166553Y0099162D01*
X0174085Y0099162D02*
X0176553Y0099162D01*
X0177788Y0097928D01*
X0176553Y0096693D01*
X0174085Y0096693D01*
X0174085Y0100376D02*
X0174085Y0102228D01*
X0174702Y0102845D01*
X0175936Y0102845D01*
X0176553Y0102228D01*
X0176553Y0100376D01*
X0177788Y0100376D02*
X0174085Y0100376D01*
X0184085Y0100376D02*
X0187788Y0102845D01*
X0184085Y0102845D01*
X0184085Y0100376D02*
X0187788Y0100376D01*
X0187788Y0099162D02*
X0187788Y0096693D01*
X0184085Y0096693D01*
X0184085Y0099162D01*
X0185936Y0097928D02*
X0185936Y0096693D01*
X0157788Y0096693D02*
X0157788Y0097928D01*
X0157788Y0097310D02*
X0154085Y0097310D01*
X0154085Y0096693D02*
X0154085Y0097928D01*
X0147788Y0097928D02*
X0147788Y0096693D01*
X0147788Y0097310D02*
X0144085Y0097310D01*
X0144085Y0096693D02*
X0144085Y0097928D01*
X0137788Y0097928D02*
X0137788Y0096693D01*
X0137788Y0097310D02*
X0134085Y0097310D01*
X0134085Y0096693D02*
X0134085Y0097928D01*
X0127788Y0097928D02*
X0127788Y0096693D01*
X0127788Y0097310D02*
X0124085Y0097310D01*
X0124085Y0096693D02*
X0124085Y0097928D01*
X0117788Y0097928D02*
X0117788Y0096693D01*
X0117788Y0097310D02*
X0114085Y0097310D01*
X0114085Y0096693D02*
X0114085Y0097928D01*
X0114702Y0099149D02*
X0114085Y0099766D01*
X0114085Y0101000D01*
X0114702Y0101618D01*
X0117171Y0101618D01*
X0117788Y0101000D01*
X0117788Y0099766D01*
X0117171Y0099149D01*
X0114702Y0099149D01*
X0114702Y0102832D02*
X0114085Y0103449D01*
X0114085Y0104683D01*
X0114702Y0105301D01*
X0115319Y0105301D01*
X0117788Y0102832D01*
X0117788Y0105301D01*
X0117171Y0106515D02*
X0117788Y0107132D01*
X0117788Y0108367D01*
X0117171Y0108984D01*
X0115936Y0108984D01*
X0115319Y0108367D01*
X0115319Y0107749D01*
X0115936Y0106515D01*
X0114085Y0106515D01*
X0114085Y0108984D01*
X0107788Y0108367D02*
X0107171Y0108984D01*
X0106553Y0108984D01*
X0105936Y0108367D01*
X0105936Y0106515D01*
X0107171Y0106515D01*
X0107788Y0107132D01*
X0107788Y0108367D01*
X0105936Y0106515D02*
X0104702Y0107749D01*
X0104085Y0108984D01*
X0104702Y0105301D02*
X0104085Y0104683D01*
X0104085Y0103449D01*
X0104702Y0102832D01*
X0104702Y0101618D02*
X0104085Y0101000D01*
X0104085Y0099766D01*
X0104702Y0099149D01*
X0107171Y0099149D01*
X0107788Y0099766D01*
X0107788Y0101000D01*
X0107171Y0101618D01*
X0104702Y0101618D01*
X0107788Y0102832D02*
X0105319Y0105301D01*
X0104702Y0105301D01*
X0107788Y0105301D02*
X0107788Y0102832D01*
X0107788Y0097928D02*
X0107788Y0096693D01*
X0107788Y0097310D02*
X0104085Y0097310D01*
X0104085Y0096693D02*
X0104085Y0097928D01*
X0097788Y0097928D02*
X0097788Y0096693D01*
X0097788Y0097310D02*
X0094085Y0097310D01*
X0094085Y0096693D02*
X0094085Y0097928D01*
X0094702Y0099149D02*
X0097171Y0099149D01*
X0097788Y0099766D01*
X0097788Y0101000D01*
X0097171Y0101618D01*
X0094702Y0101618D01*
X0094085Y0101000D01*
X0094085Y0099766D01*
X0094702Y0099149D01*
X0094702Y0102832D02*
X0094085Y0103449D01*
X0094085Y0104683D01*
X0094702Y0105301D01*
X0095319Y0105301D01*
X0097788Y0102832D01*
X0097788Y0105301D01*
X0097788Y0106515D02*
X0097171Y0106515D01*
X0094702Y0108984D01*
X0094085Y0108984D01*
X0094085Y0106515D01*
X0087788Y0105301D02*
X0087788Y0102832D01*
X0087788Y0104066D02*
X0084085Y0104066D01*
X0085319Y0102832D01*
X0084702Y0101618D02*
X0084085Y0101000D01*
X0084085Y0099766D01*
X0084702Y0099149D01*
X0087171Y0099149D01*
X0087788Y0099766D01*
X0087788Y0101000D01*
X0087171Y0101618D01*
X0084702Y0101618D01*
X0084085Y0097928D02*
X0084085Y0096693D01*
X0084085Y0097310D02*
X0087788Y0097310D01*
X0087788Y0096693D02*
X0087788Y0097928D01*
X0085936Y0106515D02*
X0085936Y0108984D01*
X0084085Y0108367D02*
X0085936Y0106515D01*
X0084085Y0108367D02*
X0087788Y0108367D01*
X0077788Y0108984D02*
X0077788Y0106515D01*
X0075319Y0108984D01*
X0074702Y0108984D01*
X0074085Y0108367D01*
X0074085Y0107132D01*
X0074702Y0106515D01*
X0074085Y0104066D02*
X0077788Y0104066D01*
X0077788Y0102832D02*
X0077788Y0105301D01*
X0075319Y0102832D02*
X0074085Y0104066D01*
X0074702Y0101618D02*
X0074085Y0101000D01*
X0074085Y0099766D01*
X0074702Y0099149D01*
X0077171Y0099149D01*
X0077788Y0099766D01*
X0077788Y0101000D01*
X0077171Y0101618D01*
X0074702Y0101618D01*
X0074085Y0097928D02*
X0074085Y0096693D01*
X0074085Y0097310D02*
X0077788Y0097310D01*
X0077788Y0096693D02*
X0077788Y0097928D01*
X0067788Y0097928D02*
X0067788Y0096693D01*
X0067788Y0097310D02*
X0064085Y0097310D01*
X0064085Y0096693D02*
X0064085Y0097928D01*
X0064702Y0099149D02*
X0067171Y0099149D01*
X0067788Y0099766D01*
X0067788Y0101000D01*
X0067171Y0101618D01*
X0064702Y0101618D01*
X0064085Y0101000D01*
X0064085Y0099766D01*
X0064702Y0099149D01*
X0065319Y0102832D02*
X0064085Y0104066D01*
X0067788Y0104066D01*
X0067788Y0102832D02*
X0067788Y0105301D01*
X0067171Y0106515D02*
X0067788Y0107132D01*
X0067788Y0108367D01*
X0067171Y0108984D01*
X0066553Y0108984D01*
X0065936Y0108367D01*
X0065936Y0107749D01*
X0065936Y0108367D02*
X0065319Y0108984D01*
X0064702Y0108984D01*
X0064085Y0108367D01*
X0064085Y0107132D01*
X0064702Y0106515D01*
X0057788Y0105911D02*
X0057788Y0104060D01*
X0054085Y0104060D01*
X0054085Y0105911D01*
X0054702Y0106528D01*
X0057171Y0106528D01*
X0057788Y0105911D01*
X0057788Y0102845D02*
X0054085Y0102845D01*
X0054085Y0100376D02*
X0057788Y0102845D01*
X0057788Y0100376D02*
X0054085Y0100376D01*
X0054702Y0099162D02*
X0054085Y0098545D01*
X0054085Y0097310D01*
X0054702Y0096693D01*
X0057171Y0096693D01*
X0057788Y0097310D01*
X0057788Y0098545D01*
X0057171Y0099162D01*
X0055936Y0099162D01*
X0055936Y0097928D01*
X0047788Y0097928D02*
X0046553Y0099162D01*
X0044085Y0099162D01*
X0044085Y0100376D02*
X0044085Y0101611D01*
X0044085Y0100994D02*
X0047788Y0100994D01*
X0047788Y0101611D02*
X0047788Y0100376D01*
X0047788Y0097928D02*
X0046553Y0096693D01*
X0044085Y0096693D01*
X0044085Y0102832D02*
X0047788Y0105301D01*
X0044085Y0105301D01*
X0044085Y0102832D02*
X0047788Y0102832D01*
X0064006Y0039220D02*
X0064006Y0036751D01*
X0065857Y0036751D01*
X0065240Y0037986D01*
X0065240Y0038603D01*
X0065857Y0039220D01*
X0067092Y0039220D01*
X0067709Y0038603D01*
X0067709Y0037368D01*
X0067092Y0036751D01*
X0067709Y0035537D02*
X0067709Y0033068D01*
X0067709Y0034302D02*
X0064006Y0034302D01*
X0065240Y0033068D01*
X0064623Y0031854D02*
X0064006Y0031237D01*
X0064006Y0030002D01*
X0064623Y0029385D01*
X0067092Y0029385D01*
X0067709Y0030002D01*
X0067709Y0031237D01*
X0067092Y0031854D01*
X0064623Y0031854D01*
X0064006Y0028164D02*
X0064006Y0026930D01*
X0064006Y0027547D02*
X0067709Y0027547D01*
X0067709Y0026930D02*
X0067709Y0028164D01*
X0074006Y0028164D02*
X0074006Y0026930D01*
X0074006Y0027547D02*
X0077709Y0027547D01*
X0077709Y0026930D02*
X0077709Y0028164D01*
X0077092Y0029385D02*
X0077709Y0030002D01*
X0077709Y0031237D01*
X0077092Y0031854D01*
X0074623Y0031854D01*
X0074006Y0031237D01*
X0074006Y0030002D01*
X0074623Y0029385D01*
X0077092Y0029385D01*
X0077709Y0033068D02*
X0075240Y0035537D01*
X0074623Y0035537D01*
X0074006Y0034920D01*
X0074006Y0033685D01*
X0074623Y0033068D01*
X0077709Y0033068D02*
X0077709Y0035537D01*
X0084006Y0034920D02*
X0085857Y0033068D01*
X0085857Y0035537D01*
X0084006Y0034920D02*
X0087709Y0034920D01*
X0087092Y0031854D02*
X0084623Y0031854D01*
X0084006Y0031237D01*
X0084006Y0030002D01*
X0084623Y0029385D01*
X0087092Y0029385D01*
X0087709Y0030002D01*
X0087709Y0031237D01*
X0087092Y0031854D01*
X0087709Y0028164D02*
X0087709Y0026930D01*
X0087709Y0027547D02*
X0084006Y0027547D01*
X0084006Y0026930D02*
X0084006Y0028164D01*
X0094006Y0028164D02*
X0094006Y0026930D01*
X0094006Y0027547D02*
X0097709Y0027547D01*
X0097709Y0026930D02*
X0097709Y0028164D01*
X0097092Y0029385D02*
X0097709Y0030002D01*
X0097709Y0031237D01*
X0097092Y0031854D01*
X0094623Y0031854D01*
X0094006Y0031237D01*
X0094006Y0030002D01*
X0094623Y0029385D01*
X0097092Y0029385D01*
X0097709Y0033068D02*
X0097709Y0035537D01*
X0097709Y0034302D02*
X0094006Y0034302D01*
X0095240Y0033068D01*
X0095857Y0036751D02*
X0094623Y0037986D01*
X0094006Y0039220D01*
X0095857Y0038603D02*
X0095857Y0036751D01*
X0097092Y0036751D01*
X0097709Y0037368D01*
X0097709Y0038603D01*
X0097092Y0039220D01*
X0096475Y0039220D01*
X0095857Y0038603D01*
X0104006Y0039220D02*
X0104006Y0036751D01*
X0104006Y0034302D02*
X0107709Y0034302D01*
X0107709Y0033068D02*
X0107709Y0035537D01*
X0107709Y0036751D02*
X0107092Y0036751D01*
X0104623Y0039220D01*
X0104006Y0039220D01*
X0104006Y0034302D02*
X0105240Y0033068D01*
X0104623Y0031854D02*
X0104006Y0031237D01*
X0104006Y0030002D01*
X0104623Y0029385D01*
X0107092Y0029385D01*
X0107709Y0030002D01*
X0107709Y0031237D01*
X0107092Y0031854D01*
X0104623Y0031854D01*
X0104006Y0028164D02*
X0104006Y0026930D01*
X0104006Y0027547D02*
X0107709Y0027547D01*
X0107709Y0026930D02*
X0107709Y0028164D01*
X0114006Y0028164D02*
X0114006Y0026930D01*
X0114006Y0027547D02*
X0117709Y0027547D01*
X0117709Y0026930D02*
X0117709Y0028164D01*
X0117092Y0029385D02*
X0117709Y0030002D01*
X0117709Y0031237D01*
X0117092Y0031854D01*
X0114623Y0031854D01*
X0114006Y0031237D01*
X0114006Y0030002D01*
X0114623Y0029385D01*
X0117092Y0029385D01*
X0117092Y0033068D02*
X0117709Y0033685D01*
X0117709Y0034920D01*
X0117092Y0035537D01*
X0115857Y0035537D01*
X0115240Y0034920D01*
X0115240Y0034302D01*
X0115857Y0033068D01*
X0114006Y0033068D01*
X0114006Y0035537D01*
X0124006Y0034302D02*
X0127709Y0034302D01*
X0127709Y0033068D02*
X0127709Y0035537D01*
X0127092Y0036751D02*
X0126475Y0036751D01*
X0125857Y0037368D01*
X0125857Y0038603D01*
X0126475Y0039220D01*
X0127092Y0039220D01*
X0127709Y0038603D01*
X0127709Y0037368D01*
X0127092Y0036751D01*
X0125857Y0037368D02*
X0125240Y0036751D01*
X0124623Y0036751D01*
X0124006Y0037368D01*
X0124006Y0038603D01*
X0124623Y0039220D01*
X0125240Y0039220D01*
X0125857Y0038603D01*
X0124006Y0034302D02*
X0125240Y0033068D01*
X0124623Y0031854D02*
X0124006Y0031237D01*
X0124006Y0030002D01*
X0124623Y0029385D01*
X0127092Y0029385D01*
X0127709Y0030002D01*
X0127709Y0031237D01*
X0127092Y0031854D01*
X0124623Y0031854D01*
X0124006Y0028164D02*
X0124006Y0026930D01*
X0124006Y0027547D02*
X0127709Y0027547D01*
X0127709Y0026930D02*
X0127709Y0028164D01*
X0134006Y0028164D02*
X0134006Y0026930D01*
X0134006Y0027547D02*
X0137709Y0027547D01*
X0137709Y0026930D02*
X0137709Y0028164D01*
X0137092Y0029385D02*
X0137709Y0030002D01*
X0137709Y0031237D01*
X0137092Y0031854D01*
X0134623Y0031854D01*
X0134006Y0031237D01*
X0134006Y0030002D01*
X0134623Y0029385D01*
X0137092Y0029385D01*
X0137709Y0033068D02*
X0137709Y0035537D01*
X0137709Y0034302D02*
X0134006Y0034302D01*
X0135240Y0033068D01*
X0135240Y0036751D02*
X0135857Y0037368D01*
X0135857Y0039220D01*
X0134623Y0039220D02*
X0134006Y0038603D01*
X0134006Y0037368D01*
X0134623Y0036751D01*
X0135240Y0036751D01*
X0137092Y0036751D02*
X0137709Y0037368D01*
X0137709Y0038603D01*
X0137092Y0039220D01*
X0134623Y0039220D01*
X0144006Y0037986D02*
X0147709Y0037986D01*
X0147709Y0039220D02*
X0147709Y0036751D01*
X0147709Y0035537D02*
X0147709Y0033068D01*
X0145240Y0035537D01*
X0144623Y0035537D01*
X0144006Y0034920D01*
X0144006Y0033685D01*
X0144623Y0033068D01*
X0144623Y0031854D02*
X0144006Y0031237D01*
X0144006Y0030002D01*
X0144623Y0029385D01*
X0147092Y0029385D01*
X0147709Y0030002D01*
X0147709Y0031237D01*
X0147092Y0031854D01*
X0144623Y0031854D01*
X0144006Y0028164D02*
X0144006Y0026930D01*
X0144006Y0027547D02*
X0147709Y0027547D01*
X0147709Y0026930D02*
X0147709Y0028164D01*
X0154006Y0028164D02*
X0154006Y0026930D01*
X0154006Y0027547D02*
X0157709Y0027547D01*
X0157709Y0026930D02*
X0157709Y0028164D01*
X0157092Y0029385D02*
X0157709Y0030002D01*
X0157709Y0031237D01*
X0157092Y0031854D01*
X0154623Y0031854D01*
X0154006Y0031237D01*
X0154006Y0030002D01*
X0154623Y0029385D01*
X0157092Y0029385D01*
X0157092Y0033068D02*
X0157709Y0033685D01*
X0157709Y0034920D01*
X0157092Y0035537D01*
X0156475Y0035537D01*
X0155857Y0034920D01*
X0155857Y0034302D01*
X0155857Y0034920D02*
X0155240Y0035537D01*
X0154623Y0035537D01*
X0154006Y0034920D01*
X0154006Y0033685D01*
X0154623Y0033068D01*
X0164006Y0034302D02*
X0167709Y0034302D01*
X0167709Y0033068D02*
X0167709Y0035537D01*
X0167092Y0031854D02*
X0164623Y0031854D01*
X0164006Y0031237D01*
X0164006Y0030002D01*
X0164623Y0029385D01*
X0167092Y0029385D01*
X0167709Y0030002D01*
X0167709Y0031237D01*
X0167092Y0031854D01*
X0165240Y0033068D02*
X0164006Y0034302D01*
X0164006Y0028164D02*
X0164006Y0026930D01*
X0164006Y0027547D02*
X0167709Y0027547D01*
X0167709Y0026930D02*
X0167709Y0028164D01*
X0174006Y0028164D02*
X0174006Y0026930D01*
X0174006Y0027547D02*
X0177709Y0027547D01*
X0177709Y0026930D02*
X0177709Y0028164D01*
X0177092Y0029385D02*
X0177709Y0030002D01*
X0177709Y0031237D01*
X0177092Y0031854D01*
X0174623Y0031854D01*
X0174006Y0031237D01*
X0174006Y0030002D01*
X0174623Y0029385D01*
X0177092Y0029385D01*
X0177709Y0033068D02*
X0175240Y0035537D01*
X0174623Y0035537D01*
X0174006Y0034920D01*
X0174006Y0033685D01*
X0174623Y0033068D01*
X0177709Y0033068D02*
X0177709Y0035537D01*
X0177709Y0036751D02*
X0175240Y0039220D01*
X0174623Y0039220D01*
X0174006Y0038603D01*
X0174006Y0037368D01*
X0174623Y0036751D01*
X0177709Y0036751D02*
X0177709Y0039220D01*
X0184006Y0038603D02*
X0184006Y0037368D01*
X0184623Y0036751D01*
X0184623Y0035537D02*
X0184006Y0034920D01*
X0184006Y0033685D01*
X0184623Y0033068D01*
X0184623Y0031854D02*
X0184006Y0031237D01*
X0184006Y0030002D01*
X0184623Y0029385D01*
X0187092Y0029385D01*
X0187709Y0030002D01*
X0187709Y0031237D01*
X0187092Y0031854D01*
X0184623Y0031854D01*
X0187709Y0033068D02*
X0185240Y0035537D01*
X0184623Y0035537D01*
X0185857Y0037986D02*
X0185857Y0038603D01*
X0186475Y0039220D01*
X0187092Y0039220D01*
X0187709Y0038603D01*
X0187709Y0037368D01*
X0187092Y0036751D01*
X0187709Y0035537D02*
X0187709Y0033068D01*
X0187709Y0028164D02*
X0187709Y0026930D01*
X0187709Y0027547D02*
X0184006Y0027547D01*
X0184006Y0026930D02*
X0184006Y0028164D01*
X0184006Y0038603D02*
X0184623Y0039220D01*
X0185240Y0039220D01*
X0185857Y0038603D01*
X0145240Y0036751D02*
X0144006Y0037986D01*
X0057709Y0036147D02*
X0057709Y0034296D01*
X0054006Y0034296D01*
X0054006Y0036147D01*
X0054623Y0036765D01*
X0057092Y0036765D01*
X0057709Y0036147D01*
X0057709Y0033081D02*
X0054006Y0033081D01*
X0054006Y0030613D02*
X0057709Y0033081D01*
X0057709Y0030613D02*
X0054006Y0030613D01*
X0054623Y0029398D02*
X0054006Y0028781D01*
X0054006Y0027547D01*
X0054623Y0026930D01*
X0057092Y0026930D01*
X0057709Y0027547D01*
X0057709Y0028781D01*
X0057092Y0029398D01*
X0055857Y0029398D01*
X0055857Y0028164D01*
X0047709Y0028781D02*
X0047709Y0027547D01*
X0047092Y0026930D01*
X0045857Y0028164D02*
X0045857Y0028781D01*
X0046475Y0029398D01*
X0047092Y0029398D01*
X0047709Y0028781D01*
X0045857Y0028781D02*
X0045240Y0029398D01*
X0044623Y0029398D01*
X0044006Y0028781D01*
X0044006Y0027547D01*
X0044623Y0026930D01*
X0044006Y0030613D02*
X0046475Y0030613D01*
X0047709Y0031847D01*
X0046475Y0033081D01*
X0044006Y0033081D01*
X0044623Y0034296D02*
X0044006Y0034913D01*
X0044006Y0036147D01*
X0044623Y0036765D01*
X0045240Y0036765D01*
X0045857Y0036147D01*
X0046475Y0036765D01*
X0047092Y0036765D01*
X0047709Y0036147D01*
X0047709Y0034913D01*
X0047092Y0034296D01*
X0045857Y0035530D02*
X0045857Y0036147D01*
M02*
